/* XPM */
static char *button_hilite_small[] = {
/* columns rows colors chars-per-pixel */
"79 45 256 2",
"   c #0208642A041D",
".  c #01FD6B2F03A0",
"X  c #09046A8A0393",
"o  c #03B265B30863",
"O  c #02C26B290B61",
"+  c #0A32652C0463",
"@  c #01BD737803BF",
"#  c #01987CBF02D1",
"$  c #01AB74CA0C25",
"%  c #088D77E406FE",
"&  c #050663931797",
"*  c #23A179194659",
"=  c #222268774646",
"-  c #239C6B2E660D",
";  c #24B674C76B68",
":  c #22B97AE16D49",
">  c #2BBF7C0E784A",
",  c #2AFA7AF67267",
"<  c #333A7B6F7AE9",
"1  c #314E7BD57471",
"2  c #018A841102BC",
"3  c #09388252037E",
"4  c #01C38CB7038C",
"5  c #0A498CD0036B",
"6  c #0341838507DE",
"7  c #001B8E4908C1",
"8  c #0B828F6A0B28",
"9  c #12578E7A0A60",
"0  c #0114946302C3",
"q  c #014E9C9E0374",
"w  c #002E92F20A86",
"e  c #0A8F92A40C7F",
"r  c #00779B780A6A",
"t  c #08CA87531582",
"y  c #165C9C41158D",
"u  c #00DEA5060291",
"i  c #011AAD1101C0",
"p  c #014DA3C809A9",
"a  c #0000A9AB088D",
"s  c #0D04A8590E27",
"d  c #0129B4D2005E",
"f  c #00D9BB70034B",
"g  c #00FCB54E0952",
"h  c #0268B9C0084A",
"j  c #0000A3AF1101",
"k  c #1C42A2171E23",
"l  c #0485BFE50FEA",
"z  c #187CB374092F",
"x  c #202FAA701C94",
"c  c #258FA8781490",
"v  c #15EA88D627BF",
"b  c #0F3894642262",
"n  c #26C2A01A257C",
"m  c #1854A9C922A2",
"M  c #26A3A84D26F7",
"N  c #3017B1182D58",
"B  c #37F8B84037C3",
"V  c #40A8B4A33C04",
"C  c #482FBDB72614",
"Z  c #013CC402028D",
"A  c #00FDCBA90354",
"S  c #020FCC46099E",
"D  c #0B06C9D608B7",
"F  c #011ED43A0451",
"G  c #0234DC980425",
"H  c #01FBD4660942",
"J  c #0864D62B05D3",
"K  c #179FC83616DC",
"L  c #0B1AD799138D",
"P  c #07C4D4FA140E",
"I  c #010CE46D04DA",
"U  c #0819E602013A",
"Y  c #0582EB820A47",
"T  c #0886EE870CA7",
"R  c #0290E6C606A4",
"E  c #04DAF3B5047C",
"W  c #0345F4A20912",
"Q  c #0911FA9D054B",
"!  c #15D9FA200D7F",
"~  c #0C0EECCC1162",
"^  c #0DEBFDAC1242",
"/  c #0D75F4BE1762",
"(  c #12C4F6671664",
")  c #1A8EFDB3155A",
"_  c #1B45FE5C1C34",
"`  c #17A6FA3A1D2B",
"'  c #1FEAE61A18D3",
"]  c #2747FEBC1C35",
"[  c #1EC8C9B9205C",
"{  c #2B10D0642ADB",
"}  c #3655C84338F9",
"|  c #2D5ED48F30EB",
" . c #37C0D1143DF8",
".. c #2AF0C9453387",
"X. c #1A36FD6121F3",
"o. c #218AFE6023C8",
"O. c #25CBFFD22964",
"+. c #2C3DFFC22E0C",
"@. c #2BA9FDF321EC",
"#. c #3659FFFF2CF6",
"$. c #2BEEFFDB31D9",
"%. c #346EFFFF349A",
"&. c #3DD7FFFF360C",
"*. c #3C37FFE83B70",
"=. c #356FFFFF38E1",
"-. c #46D9DC4C3DB0",
";. c #4811E7D73DEF",
":. c #509AE8953E72",
">. c #478DFEB03EC8",
",. c #1E3A896E467A",
"<. c #1B3494F94778",
"1. c #225989C8485E",
"2. c #284D86A151FF",
"3. c #25B7A69C469C",
"4. c #3F9EAB7E4ECC",
"5. c #3419B13A43FA",
"6. c #3AE3BED1500E",
"7. c #3102A9D35A62",
"8. c #21D780F76DF4",
"9. c #3E468E136B65",
"0. c #3831825D7D8D",
"q. c #32BD9C086BC2",
"w. c #34D8A8C56395",
"e. c #3B5AB1B36FE3",
"r. c #4288BC8A4593",
"t. c #4B3AAD596F14",
"y. c #4116B2E06EBD",
"u. c #4984AD3676F6",
"i. c #73ECBF9B7146",
"p. c #39F3FFFF3FFE",
"a. c #3182E97746BF",
"s. c #42FAC2D7421D",
"d. c #49D8DA61493B",
"f. c #47E8C4BD54A0",
"g. c #4766D91A52DF",
"h. c #5468D8115729",
"j. c #5394C70C5583",
"k. c #4EB9EDAD49DC",
"l. c #4419FFFF4385",
"z. c #4417FFFF4A95",
"x. c #4B74FFF94D58",
"c. c #50A6FFFF499B",
"v. c #4991E6DD59E2",
"b. c #4B97FDCF540F",
"n. c #5436FEB9522E",
"m. c #5C07FFFF53E8",
"M. c #540FFFFF592E",
"N. c #5EF9FFFF5D36",
"B. c #51BBF0DE5336",
"V. c #5471EB105B97",
"C. c #617FE1995B38",
"Z. c #65DCFFFF5CEB",
"A. c #5A37CF2770FC",
"S. c #4F5ECF7070E1",
"D. c #666FD5A56488",
"F. c #7E80C1407D80",
"G. c #6B18D7B077F3",
"H. c #7BDCDE6B7D84",
"J. c #5094EA996867",
"K. c #64A6E455644D",
"L. c #6699E7876646",
"P. c #6111F5086009",
"I. c #62D8FEC863FC",
"U. c #68F4FFFF6474",
"Y. c #69CEF74B6DF6",
"T. c #693BFFFF6BF3",
"R. c #6173FFFF6B9A",
"E. c #71C4FF3066EF",
"W. c #6CDBE4D779D2",
"Q. c #7B05EAC17AB0",
"!. c #6650FFFA7135",
"~. c #73A7FF627477",
"^. c #7B0DFF4D7BBE",
"/. c #78DEFFFF76FB",
"(. c #81F3FEFB7D60",
"). c #1EB0573A8924",
"_. c #1F1558698A4E",
"`. c #1EDD57578749",
"'. c #2335589586C1",
"]. c #20435781893C",
"[. c #218359698A8D",
"{. c #2A6F5D9C8CA0",
"}. c #2124579E874F",
"|. c #31F75F038AE7",
" X c #25F05EE1904F",
".X c #2DD3609B8E86",
"XX c #330F63048E91",
"oX c #3B0F66808FBE",
"OX c #2C266144915D",
"+X c #353765C99198",
"@X c #3A2366DF9130",
"#X c #3C9A6858913C",
"$X c #491A87658509",
"%X c #5BB3B218858C",
"&X c #5AB9ADD2A254",
"*X c #5C22BB9EB025",
"=X c #6493BFC0A8C5",
"-X c #6328BE43BB76",
";X c #4CEFC6828118",
":X c #5AC2CA4A8785",
">X c #64D0DC0B8B2B",
",X c #63F0DA689A11",
"<X c #6BB3D8899BAD",
"1X c #7777C3748166",
"2X c #6BA5E2328FA0",
"3X c #7EFFEEE68831",
"4X c #7DB9F8FA86AB",
"5X c #5F24C2B1B46C",
"6X c #67A2C761AC23",
"7X c #7064D717A521",
"8X c #72A7CB80B982",
"9X c #6B9FC25BBBBA",
"0X c #5E45AC11DAC1",
"qX c #5DC1ABD9D7E7",
"wX c #700EC030C7D1",
"eX c #62A8AE43DBEC",
"rX c #681CB024DDE2",
"tX c #66ACB0BCDC4F",
"yX c #6C09B32FDE25",
"uX c #7164B5C4DF4A",
"iX c #7642B903DF68",
"pX c #7A18BAFCDFA0",
"aX c #6D79B632E157",
"sX c #739BB71EE1C9",
"dX c #762FB943E1B4",
"fX c #7CBCBD06E2FB",
"gX c #6B72C0BEC0A2",
"hX c #7B02CA74C538",
"jX c #7551C92DC423",
"kX c #7FFBC140E420",
"lX c #9174DB8C9038",
"zX c #9643DBD4820E",
"xX c #836FFF308340",
"cX c #88B9FFFF8831",
"vX c #9272E81198CE",
"bX c #A3EAEE109EBE",
"nX c #8197D29ABC29",
"mX c #A5C8FB1CA3F0",
"MX c #B5C6E912B534",
"NX c #B0E5F9A7B23D",
"BX c #BE58F710BAF7",
"VX c #8170BF1DE473",
"CX c #804ACB51C3CA",
"ZX c #BE94FCC2C13E",
"AX c #83E5C15AE4F7",
"SX c #89E8C30DE69C",
"DX c #8AB0C502E8E4",
"FX c #DB37FDB9DC11",
"GX c #D06BFDCFD82F",
"HX c #E01BF8A9E20E",
"JX c #E501FC9AE5D2",
"KX c #ED14FE75EDA2",
"LX c #E8CEF7F0ED72",
"PX c #F33EFCA9E619",
"IX c #FD82FCAAFC10",
"UX c #F4AAFAD4F418",
/* pixels */
"[.[.].[.[.).[.).[.).).).[._.].[.[.[.{.{.[.{.'.{.{..X.X0.w.u.%XB.n.Z.I.T.!.T.T.T.T.T.U.I.Z.Z.U.Y.<X,X<XwXuXsXsXsXdXdXdXiXdXdXdXdXdXpXfXpXfXfXVXpXAXfXpXfXAXfXfX",
"[._._.[.[.[._.[.[.[.[._.[.[.[.'.]._.[.[.[.{.{.w.%XC.~.~.E.U.N.b.x.z.=.%.%.$.$.$.$.+.$.$.+.%.&.&.l.l.z.x.b.I.,X7XpXdXdXsXdXfXdXdXdXpXfXfXfXfXfXVXfXVXAXfXfXfXkX",
"_.[._.[.[.).[.[.).[._.[.[.].[._._. X[.> u.P.^./.T.M.l.#.o.` ~ Y I G F A Z Z Z A Z Z Z A A F G R Y / ) _ @.#.>.p.l.n.,XjXdXfXfXpXpXkXAXdXfXAXfXfXAXfXkXfXfXfXfX",
"[.).[.[.[.).[.].[.[.[.[.[.[.[._.: t.Y.xX~.N.z.O.( Y J A Z h d d d d d d d d d d d d d d d d f h h h l Z F I ~ ( _ O.%.*.B.>XhXfXdXfXfXAXfXfXfXfXdXfXkXfXfXfXfX",
").).[.].[._.[.).OX[.[.[.[.).> A.xX(.N.*.X.T F Z f d d d d d d d d d d d d d d d d d d d d d d d d d d d d d d f A R W ^ _ o.$.J.jXfXfXVXfXVXfXfXfXAXVXfXVXpXfX",
").).)._.).[._.'.`.'.[.`.> G.cX/.n.@.~ H Z d d d d d d d d d d d d d d d d d d d d d d d d d d d d d d d d d d d d d f Z G W ^ X.O.v.jXAXkXfXAXfXfXfXVXAXfXfXVX",
")._.).).[.[.[.[.`._.: A.cX~.x.` R S f d d d d d d d d d d d d d d d d d f d d d d d d d d d d d d d d d d d d d d d d d h Z A U Q ^ ) V.hXAXfXfXAXVXVXfXVXfXfX",
").).)._._.[.}._.'.t.4X/.b.` G f d d d d d d d d d d d d d d d d d d d d d d d d d d d d d d d d d d d d d d d d d g d d d d d f S I W Q _ >XVXVXfXVXAXVXVXVXfX",
").).[._.'.[.[., G.4Xm.o.I Z d d d d d d d d d d d d d d d d d d d d d d d d d d d d d d d d d d d d d d d d d d d d d d d d d d d d A R W E a.CXSXAXAXVXVXVXVX",
").).].[.[.].0.~.~.*.T A f d d d d d d d d d d d d d d d d d d d d d d d d d d d d d d d d d d d d d d d d d d d d d d d d d d d d d d Z F I R ' 8XAXAXAXVXVXVX",
"`.).`.[.[.$X(.I.o.G f f d d i d d d d d d d d d d d d d d d d d d d d d d d d d d d d d d d d d d d d d d d d d d d d d d d d d d d d d f Z G G G 6XAXSXSXAXVX",
").).'.[.$XxXM.( F f d d d i d d d d d d d d d d d d d d d d d d d d d d d d d d d d d d d d d d d d d d d d d d d d d d d d d d d d d d i d f F J D 6XSXSXSXSX",
"}._.[.0.^.M.! A f d d d d d d d d d d d d d d d d d d d d d d d d d d d d d d d d d d d d d d d d d d d d d d d d d d d d d d d d d d d d d d Z A A Z 6XSXSXSX",
")._.8.E.m.( Z f d d d d d d d d d d d d d d d d d d d d d d d d d d d d d d d d f d d d d d d d d d d d d d d d d d d d d d d d d d d d g d d d f Z d D nXDXDX",
"[.`.D.R.` A f d d d d d d d d d d d d d d d d d d d d d d d d d d d d d d d d d d d d d d d d d d d d d d d d d d d d d d d d d d d d d d d d d d h d i } VXDX",
"'.7.!.$.G h d d g d d d d d d d d d d d d d d d d d d d d d d d d d d d d d d d d d d d d d d d d d d d d d d d d d d d d d d d d d d d d d d d d d d i q >XDX",
"'.>.z.Y f d d d d d d d d d d d d d d d d d d d d d d d d d d d i g i d d d h d d d d d d h d d h d d d d d d d d d d d d d d d d d d d d d d d d d h d a K DX",
"3.x._ A f d d d d d d d d d d d d d d d d d d d d d d g h d d d d d d d d d d d d f d d g g d d d d d d d d d d d d d d d d d d d d d d d d d d d d d d a 0 2X",
" .=.T f d d d d d d d d d d d d d d d d d d d d d d d d f d P P h h d d d d d d h d g d d d d d d g d d d d d d d d d d d d d d d d d d d d d d d d d i i q r.",
"] X.G f d d d d d d d d d d d d d d d d d d d d d d d f [ NXIXIXFXh.d i d d d g d k.IXk.h V.Q.g i d f d d d d d d d d d d d d d d d d d d d d d d d d d d r z ",
"_ ^ F g d d d d d d d d d d d d d d d d d d d d d d d h BXIXvXD.JXUX| h J Z Z L S L $.D { LXmXZ i h d d d d i d d d d d d d d d d d d d d d d d d d d d d 0 0 ",
"! W Z d f d d d d d d d d d d d d d d d d d d d d d d | JXBXa 4 K.IXQ.W.IXB s.IXL.:.IXv.MXIXIXbXs i d d d d d d d d d d d d d d d d d d d d d d d d d d d 0 # ",
"Q W f d d d d d d d d d d d d d d d d d d d d d d d f  .KXNXp 4 g.IXzXH.IXV r.IXL.;.IXv.C PXbXu 4 u d d d d d d d d d d d d d d d d d d d d d d d d f d i 0 @ ",
"E E Z d d d d d d d d d d d d d f d d d d d d d d d d K FXFX{ mXZXIXg.K.IXr.s.IXC.-.IXd.n JXvX# 4 q d i d d d d d d d d d d d d d d d d d d d d d d d d g 4 @ ",
"U G Z d d d d d d d d d d d d d d d d d d d d d d d f g G.UXPXPXIXLXM j.IXGXGXIXC.-.IXd.M FXLXg.4 u i d d d d d d d d d d d d d d d d d d d d d d d d d i 4 # ",
"A F Z d d d d d d d d d d d d d d d d d d d d d d d d d u ..(.lX1XMXlXe D.zX..F.N m i.M 4 f.cXj.7 u d d d d d d d d d d d d d d d d d d d d d d d d d d u # s ",
"m Z f d d d d d d d d d d d d d d d d d d d d d d d d d i q 4 2 6 2 0 2 7 4 # 2 2 2 4 4 4 0 0 7 0 q i d d d d d d d d d d d d d d d d d d d d d d d d d q . r.",
"<.d d d d d d d d d d d d d d d d d d d d d d d d d d d d i q 0 4 7 4 4 q 0 0 0 0 0 q q q u q q q i i d d d d d d d d d d d d d d d d d d d d d d d d i 2 + >X",
"{.d i d d g d d d d d d d d d d d d d d d d d d d d d d d i a a u u u u u u u i p i i a i i i a i i d d d d d d d d d d d d d d d d d d d d d d i d i p X c pX",
"'.1.u i d d d d d d d d d d d d d d d d d d d d d d d d d d d d d d d i d d i d d d d d d h d d d d d d d d d d d d d d d d d d d d d d d d d d d d u # o :XAX",
"{.{.b p u i d d d d d d d d d d d d d d d d d d d d d d d d d d d d d g d d d d d d d d f g g f g d d d d d d d d d d d d d d d d d d d d d d d d u 4 + 3.AXAX",
"{.{.; u q d d d d d d d d d d d d d d d d d d d d d d d d d d d d d d d d d d d d d d d d d d d d d d d d d d d d d d d d d d d d d d d d d d d i 0 O 9 8XdXAX",
"{.{.{.- r q i d g d d d d d d d d d d d d d d d d d d d d d d d d d d d d d d d d d d d d d d d d d d d d d d d d d d d d d d d d d d g d d d i w O 3 6XfXfXAX",
"{.{.{.{.- 4 0 u d d d d d d d d d d d d d d d d d d d d d d d d d d d d d d d d d d d d d d d d d d d d d d d d d d d d d d d d d d d d d i u 7 X X &XfXfXfXfX",
"{.{.{.{. X- 4 4 q i d d d d d d d d d d d d d d d d d d d d d d d d d d d d d d d d d d d d d d d d d d d d d d d d d d d d d d d d d d i u 2 + $ =XdXfXfXfXfX",
"{.{.{.{.{.{.; 0 4 0 u i d d d d d d d d d d d d d d d d d d d d d d d d d d d d d d d d d d d d d d d d d d d d d d d d d d d d d d d a q @ & y 6XdXdXdXpXVXfX",
"[.{.{.{.{..X{.; v # 7 q i i d d d f d d d d d d d d d d d d d d d d d d d d d d d d d d d d d d d d d d d d d d d d d d d d f d d i q 6 o + 5.8XsXdXdXdXdXkXfX",
"{.{.{.[.{.{..X.X{.* 6 # 4 r i i d d d d d d d d d d d d d d d d d d d d d d d d d d d d d d d d d d d d d d d d d d d d d d d i q 2 @ O y ;XyXyXsXsXdXsXdXdXdX",
"{.[.{.{.{.{.{..X.X{., v # # 0 q u d d d d d d d d d d d d d d d d d d d d d d d d d d d d d d d d d d d d d d d i d d d d a q 7 $ o 3 6.9XaXyXaXaXsXsXsXdXdXdX",
"{.{.{.{.{.{..X{.{.{.XX.X, v # % 2 0 p a i d d d d d d d d d d d d d d d d d d d f d d d d d d d d d d d d d d d d d d u 0 2 @ o % 5.5XrXrXaXuXuXaXsXaXsXsXdXsX",
"{.{.{.{.{.{.{. X{..X.XXXXX.X, v # @ # 4 0 u u d d d d d d h d d d d d d d d d f d d d f d d d d d d d d d d i i p q 4 @ .   8 4.-XrXrXtXyXyXyXuXsXsXsXsXdXdXdX",
"'.{.{.{.{.{.{.{.{.{.XX.XXXXXXXXX, 1.e . @ # 2 4 0 u i i d d d d d i d d d d d d g d d d d d d d d d d a a j e 2 @ o + X M S.gXtXrXrXyXtXyXyXuXuXsXsXsXsXsXdXdX",
"{.{.{.{.{.{.{. X{.XXXXXXXXXXXXXXoXXX+X1 * 9 $ . . @ # 4 4 0 q u u u u i i i i i i i i i u u u u 0 7 2 # $ X o   3 c e.*X0XeXeXtXrXyXyXyXyXyXuXyXuXsXsXsXsXsXdX",
"{.{.{.{.{.{.{.{.{.{..XXXXXXXXXXX+XoX+X#X@X+X#X2.* t # . . . . @ @ # # 2 2 # 2 2 2 # 2 # # @ @ . . o o . 9 x q.;XqX0XeXeX0XtXeXeXrXyXrXyXyXuXuXsXuXuXsXsXdXdXdX",
"{.{.{..X{.{. XOX.XXX{.XXXXXX+XXXXXoX@X@X#X#X#X#X@X@X#X< 1.* = e 4 2 @ .               . @ 2 e M 9.y.S.-XeX0X0X0X0X0X0X0X0XtXtXtXrXyXyXyXyXuXyXuXyXsXsXsXdXdXfX"
};
