/* XPM */
static char *button_hilite_small[] = {
/* columns rows colors chars-per-pixel */
"79 45 256 2",
"   c #0C525EFE025C",
".  c #022F64F20418",
"X  c #01F16B4702E8",
"o  c #0328660309B7",
"O  c #09406B800521",
"+  c #020E73E903AD",
"@  c #01E67CCD02A9",
"#  c #046B76D40816",
"$  c #0811738D0989",
"%  c #1B8C79B645D5",
"&  c #1A396E3D492D",
"*  c #24CE6C1A6897",
"=  c #24CF751F6D55",
"-  c #2510706465A5",
";  c #2859716B737A",
":  c #33BB7E167CA2",
">  c #01D4843B03A9",
",  c #082C842105B4",
"<  c #02008CA60327",
"1  c #008984D70925",
"2  c #01F68AF008FE",
"3  c #0A57895007EA",
"4  c #01C69437033B",
"5  c #020F9C7902B6",
"6  c #010492AF09B7",
"7  c #010F9C4F0A42",
"8  c #0BB698A0048E",
"9  c #1732979A163B",
"0  c #108D93D0112C",
"q  c #01C2A40F029A",
"w  c #0150AC940276",
"e  c #0234A3F90B0F",
"r  c #0049ACDD0828",
"t  c #0AFFA91702C3",
"y  c #0133B4D800B7",
"u  c #00ECBAF4037B",
"i  c #013BB4FB09AD",
"p  c #0183BAC00A7F",
"a  c #0B3CBB050AF6",
"s  c #1167B9190535",
"d  c #0CA8A2E41603",
"f  c #19C8B9B61639",
"g  c #172EA8DD155A",
"h  c #2437ACF81DB4",
"j  c #134E86B826E5",
"k  c #1690985B2143",
"l  c #25DF98922696",
"z  c #3BE29C653A77",
"x  c #27C695182C2D",
"c  c #1715AAA0236F",
"v  c #1997B9A0264C",
"b  c #1B85B87D34DB",
"n  c #247EA9832540",
"m  c #28EEB4C52A18",
"M  c #3760B9DB3874",
"N  c #2C8AB0D23C87",
"B  c #40829CB93DDE",
"V  c #0114C4A802CF",
"C  c #01A9CC1802E7",
"Z  c #04FDC21E08E5",
"A  c #0A5EC4780C01",
"S  c #06AECA8909DC",
"D  c #019BD37703F9",
"F  c #022DDC6E034B",
"G  c #08DFD77A09EA",
"H  c #0791D5B108D5",
"J  c #0B3EC68E1213",
"K  c #17C6CA30199C",
"L  c #060CD84C1343",
"P  c #17B1D3481855",
"I  c #1045C5ED0D62",
"U  c #269FCE181C57",
"Y  c #029AE47703AD",
"T  c #0858ECA20A62",
"R  c #0597E8F605FD",
"E  c #10DDED6F0C67",
"W  c #036DF30904BB",
"Q  c #088AF9020BD8",
"!  c #13E1FC920E17",
"~  c #0D5BFA59148E",
"^  c #1755FA39183A",
"/  c #0E9CEF3D1118",
"(  c #2281FF931DE7",
")  c #1F70D77E223D",
"_  c #2770C7BF25A5",
"`  c #2A24D344293C",
"'  c #259CD910283B",
"]  c #2605C5513333",
"[  c #3DC6C6E53D92",
"{  c #28F0DA5D3696",
"}  c #3420D86F374A",
"|  c #3078CFBF29B2",
" . c #1AA8FDF02176",
".. c #1207FF982866",
"X. c #1EE5EEAC226A",
"o. c #2BA8FFFF2C4E",
"O. c #2423FE592908",
"+. c #3690FDCA2B01",
"@. c #2BD2FFFF3242",
"#. c #3C1DFFFF3D90",
"$. c #322AFFFF36BE",
"%. c #3800E8203F0E",
"&. c #4275C9D936B1",
"*. c #4518FE0F3BE0",
"=. c #1D9288E2481F",
"-. c #1DBF973F4879",
";. c #216987BA444F",
":. c #3414B68B4986",
">. c #3164AEB85081",
",. c #2C07844371E4",
"<. c #38F0840F7B7D",
"1. c #2FA293B66A50",
"2. c #3795AC1867DF",
"3. c #398FB1226FAD",
"4. c #4990A7984B74",
"5. c #41BFB7AE486A",
"6. c #501BB7B24CFD",
"7. c #4C2CB79752EB",
"8. c #52F1B2AB5857",
"9. c #4B84AF1C75B5",
"0. c #50F7B2ED7AB9",
"q. c #5254B8416CA8",
"w. c #7871BD1D7A56",
"e. c #64F2B3206447",
"r. c #3CBCD5B345B5",
"t. c #3807FFFF460F",
"y. c #3496E4634D85",
"u. c #3EB4CA95747B",
"i. c #3557C0A36E69",
"p. c #4822C7484765",
"a. c #47ACD58D465A",
"s. c #59A7C3675AA9",
"d. c #5784D971587A",
"f. c #4D63CC985161",
"g. c #4374FFBE455C",
"h. c #49C0FFFF4D40",
"j. c #47FBFCF24949",
"k. c #50D2FF9E4AE2",
"l. c #47B1E59F5598",
"z. c #5931E3B25AAB",
"x. c #5613FBAF564A",
"c. c #47CFF8044F3E",
"v. c #618FFFFC5DF7",
"b. c #646EFCFD578F",
"n. c #66D4E4695981",
"m. c #5624DE2868BF",
"M. c #4B54CDB2745D",
"N. c #677EC7EE695A",
"B. c #654FDA3B68A3",
"V. c #7037D9286DD0",
"C. c #7BD1C6067BAF",
"Z. c #7B33D2677AFA",
"A. c #6C22D21A701F",
"S. c #5876E5C963CD",
"D. c #5BAFFD1464D6",
"F. c #67BDE9D965CC",
"G. c #648BFF896467",
"H. c #6CDDFE546C82",
"J. c #6870FC3A6754",
"K. c #7591EB237506",
"L. c #6EFFFC3578DC",
"P. c #7483FE9F7427",
"I. c #761BFDA87CD3",
"U. c #7AC2FA7C7A37",
"Y. c #6C49E7A56FC4",
"T. c #6545D80B5716",
"R. c #85BBE94B7DD4",
"E. c #8166F3327F0E",
"W. c #265F5C6C8B9B",
"Q. c #2AFA5E398CA8",
"!. c #2B735F7F8E0C",
"~. c #2D9260648E24",
"^. c #32B762298E27",
"/. c #38BA64E98DFD",
"(. c #2D1D61A7913B",
"). c #3431647A90E6",
"_. c #3B5784BD80BE",
"`. c #3C3FA86F9C17",
"'. c #3D51B57DA1D9",
"]. c #48C18A2A87CE",
"[. c #5898B7C38612",
"{. c #7ED1BE4B831B",
"}. c #48FEB4F5A9E3",
"|. c #4D50B309B338",
" X c #52A9B078AD72",
".X c #61B5BE34B949",
"XX c #4B0FC93E8216",
"oX c #55A3D140996F",
"OX c #53BECDB58CED",
"+X c #7E6CC3D1828D",
"@X c #6F64D5CF818D",
"#X c #73BDD6738D05",
"$X c #7ED4E85C868C",
"%X c #7EE3F31184A0",
"&X c #7D0DFD57870B",
"*X c #7EC4EF579250",
"=X c #5952C1A6ACA1",
"-X c #6549C3E6B78C",
";X c #3C3799ABCF67",
":X c #3E959B08D122",
">X c #3A7A9817D050",
",X c #42229C1CCFD8",
"<X c #445C9D9AD2EC",
"1X c #48E59F3DD3FA",
"2X c #46BCA0ACD49C",
"3X c #4AA7A17BD545",
"4X c #4C53A2BBD865",
"5X c #5C8CAB96DA9B",
"6X c #5A98A9C1D666",
"7X c #6430AEA2DBDD",
"8X c #60D7ACE1D845",
"9X c #6641B0B2DCD7",
"0X c #6B9BB2E4DDF8",
"qX c #713EB631DF95",
"wX c #67EABF3DC1D6",
"eX c #7293B6E6E0A4",
"rX c #6720C241C07F",
"tX c #959AD0539573",
"yX c #B8FADEF699EB",
"uX c #86F1EA2985B3",
"iX c #9470E6268BC6",
"pX c #83B3FAC185FD",
"aX c #8E90FA8E95F6",
"sX c #9B4DF8229B03",
"dX c #8F4EE2749C4B",
"fX c #A219EB119B03",
"gX c #A212FB789AC4",
"hX c #A1F5EF858D20",
"jX c #9BB5FA3EA415",
"kX c #A4F7EAD2A598",
"lX c #A72AE7F5A91C",
"zX c #B699EB24A5CF",
"xX c #A7C2FAF9AA15",
"cX c #B3F2F811ACB7",
"vX c #AE89FDADB1EC",
"bX c #A793FB9BB244",
"nX c #B6B6F9F6B61F",
"mX c #CAD5F998BCAD",
"MX c #BB60F741C791",
"NX c #C5CFEB8EC492",
"BX c #C7AEFAB9C76A",
"VX c #D2E4FAEECEC0",
"CX c #D563FC9CD3F7",
"ZX c #DCC4FE63DD41",
"AX c #DBB8F852DCA3",
"SX c #CE95F721DFF4",
"DX c #E6EBFDC5DE1B",
"FX c #DE5EFD79E64A",
"GX c #E59EFD75E474",
"HX c #EDA5FD86EC51",
"JX c #E83FF9A5E876",
"KX c #F37DFE0CEEE1",
"LX c #EE88FE18F36B",
"PX c #F565FD84F4A7",
"IX c #FD81FD3CFC07",
"UX c #FA9AF952F91F",
/* pixels */
"Q.~.~.~.^.^.^.Q.^.Q.~.^.^.^.^.).^./././.).^.^.~.~.~.^.: 2.9.[.x.x.b.G.H.H.G.G.G.J.J.G.G.x.b.b.v.oXoXOX|.1X1X2X1X1X<X1X1X<X1X1X2X1X1X,X,X,X;X,X,X,X:X:X:X<X;X>X",
"~.~.~.Q.Q.Q.Q.^.^.^.Q.^.^.^.).)./.^.(.)./.^.^.9.[.b.P.U.H.J.x.x.h.g.#.$.@.@.@.@.@.o.@.@.$.t.t.g.j.c.x.x.k.x.OXOX1X1X1X4X<X<X1X1X3X3X1X2X2X,X<X<X<X<X<X<X;X;X>X",
"Q.Q.Q.Q.Q.^.Q.Q.Q.^.^.^.^.^.^./.^././.<.0.J.U.P.J.x.*.+. .^ / R Y F D C C C V C V C C C D D F Y T E ^ ..o.#.t.*.*.j.XX|.<X<X<X4X3X3X3X2X<X<X1X<X<X<X<X:X;X;X;X",
"~.Q.Q.~.Q.^.Q.^.Q.^.^.^.).^././.<.0.H.pXP.D.j.O.^ R D V V u y u y y i u y y y y y y y y y y u y u V u A C Y R Q  .O.o.+.*.M.|.4X3X3X3X3X2X1X<X1X<X<X<X<X<X;X>X",
"Q.^.(.Q.Q.^.Q.~.~.~.~.^.^.^._.A.pXI.G.#.^ T D V u y y y y y y y y y y y y y y y y y y y y y y y y y y y y u p V C F W ~ ^ @.o.l.|.4X4X4X2X2X2X3X4X1X<X<X,X;X>X",
"Q.Q.Q.Q.!.Q.Q.^.^.^.~.^._.@X&X&Xh.O.T D V u y y y y y y y y y y y y u y y y y y y y y y y y y y y y y y y y y y y y u V F W ~ .. .y.}.2X3X3X3X3X2X<X<X<X<X,X>X",
"Q.Q.Q.(.!.Q.).Q.Q.!.,.m.pXL.c.^ Y V u y y y y y y y y y y y y y y y y y y y y y y u y y y y y y y y y y y y y y y y y y u u D Y W ! ! y.|.6X2X2X3X1X1X<X<X:X:X",
"Q.Q.Q.~.!.!.Q.Q.^.9.pXI.j.^ F V y u y y y y y y u y y y y y y y y y y y y y y y y y y y y y y y y y y y y y y y y u y y y i u u S R W Q ! u.2X<X3X1X1X<X:X<X<X",
"Q.Q.(.Q.~.~.~.,.@XpXD.O.Y V y y y y y u y y y u u y y y y y u y y y y y y y y y y y y y y y y y y y y y y w p y u y y y y y y y y u C Y W Q y.}.1X<X1X<X,X<X;X",
"!.Q.^.~.~.~._.&XP.#.T C u y y y w u y y i y y y y y y y y y y y y y y y y y y y u y y y y y u y y y y y y w u y y y y y y y y y y y y u D Y W E }.1X1X<X<X:X<X",
"!.Q.(.^.~.].&XJ.O.F u u y y y y y y y S L u u y y y y y y u y y y y y y y y y y y y y y u y y y y y y y y y y y y y y y y y y y y y y y u C D G F `.,X<X<X<X<X",
"Q.^.(.).].pXx.^ D u u y y y y y y ` BXUXIXPXK.a y y y y y y y y y u y y y y y y y y y y y y y y y y y y y l.%Xi y y y y y y y y y y u y u y u C C H `.<X<X<X<X",
"^.^.Q.].I.D.~ C y y y y y i y y V VXUXuXV.AXnXf w u ` { a i S L C ' P w y u ' { a u C G I ' u p ' ' P y ` GXcXC w i ) } A u y y u y y y y y y y V S Z `.1X,X<X",
"^.^.,.H.x.~ V y y y y y y y y y } HXbXe K U _ a _ VXIXIXCXP K.KXVXUXHX} K BXIXIXZX` F.KXDXVX_ BXIXIXPXS.lXIXIXcXg cXIXUXHX} r y p w y y y y y y y Z u Z '.<X<X",
"^.^.m.G. .C u y y y y y y i u y a.PXsX6 zXIXIXa.uXPXc.S.PXdXK.UXS.B.IXz.R.UXx.l.HXfXF.IXE.I f V.l.d.PXkX_ DXcXw d.PXH.y.JXmXr w u y y y y u y y y u y r b 2X,X",
"^.2.v.o.F y y y y y y y y i y u I GXZXg v %XIXa.lXPXaX%XuXd.Y.UXz 5.IXz.iXUXsXuXuXB.n.IX4.4 f BXnXdXPXzXl AXlX@ #XPXxXpXR.K.4 5 y y y y y y y y y y u i e i.,X",
"^.g.g.T u y y y y y y y y y y y w uXUXLXFXIXHXN f.PXxXvXJXM Y.IXz 4.IXm.5.UXxXxXHXp.d.PX4.< d.UXvXvXIXfX9 CXFXa.m HXnXjXPXT.< 5 w y y y y y y y y y y y q I 1X",
">.k. .D u y y y y y y y y y y y y w &.$X*XN.d > < 7.R.R.5.@ m tX9 j tXm < :.uXR.7.1 n tXl 3 7 B.E.M e.e.2 7.%Xs.4 N R.R.8.3 1 5 w y y y y y y y u y y y w 4 M.",
"} +./ u y y y y y y y y y y y y w w 5 < , > 1 < 6 < < 1 # 1 < < > < 4 < < < < > @ 1 < 4 1 6 e q 4 > > > > < < 2 < < 4 > @ > 4 q w y y y y y y y y y y u w 4 N ",
"^ ( F u y u y y y y y y y y y y y w w 5 6 4 < 7 q e 5 4 4 5 5 q 5 5 q 5 5 q 5 8 6 4 5 q 5 5 w w 5 4 4 6 5 q 5 4 5 q 5 4 4 4 q r y y y y y y y y y y y u y 4 s ",
"O.~ C y y y y y y y p y u i y u s p y t w q q w r w w q q q w w w w w r y r t t q r w w r r w y w w w w w r i w r r w q q r w i i y y y u y y y y y y u r 4 < ",
"~ W V y y y y y y y u i y y i u y t w y w y y y y y y y y u y y y p u y i i i i u y y y y w y y y y w y y y w w y y y y y u t y u y u i y y y y y y y u y 4 @ ",
"~ W V y y y y y y &XIXiXa ` KXsXu y u u i u y y u u y y u u y y y r NXIXUXIXUXIXp.y u y u y y u y y y y y y u u y y u y u jXGXL u y y u y y y y y y y y y 4 + ",
"W W V u y y y y y &XIXIXa._ HXsXr w P ' I u V G u u G C y C F y y w N.uXGXIXtXC.n r ) ` a u V H S ' V H D ) A y P ' ) u u X.+.u S D Z ' Z y y y y y y y y 2 + ",
"R Y u u y y y y y U.IXUXCX' KXgXq uXIXIXIXF.a.KXz.f.PXnXa BXMXa y y y q NXIXz @ d MXUXIXGX` F.PXFXCX` DXZXPXd.K.IXIXIXnXA gXGXI nXGXAXIXCXp y y y y y y y < 3 ",
"D D V y y y y y y I.IXJ.PXBXPXsX_ KXjX{ mXJXb VXfXsXPXJXa.DXF.q w r w w NXIX>.1 V.UXx.l.HXlXz.IXuXJ f ZXAXK u a.K.%.mXGXP gXGXI vXHX{ kXLX] q w y y y y q @ d ",
"c u u u y y y y y U.UX_ #XIXUXsX[ KXBX%X%XpX9 F.JXUXU.AXBXGXn 4 5 w y w NXIXB # iXPXsXpXR.V.d.IX7.1 l DXzX< 6 uXFXuXNXGXK gXGXA bXJX< tXPX_ 4 w y y y y 5 X -.",
"-.y u y w y y y y U.UX&.2 MXIXfXd SXCXaXKXuX6 n DXUXx yXIXkX< < q r y y NXUXB > r.PXcXbXKXp.m.IX4.> h DXzX> 9 CXDXhXKXGXf sXGXa cXJX@ tXHXf < q w y y w > . M.",
"~.u y y y y y y y r.Z.c @ l w.6.@ d Z.K.A.0 2 6 e.N.3 l {.n @ < q w u y N.C.l > 5 &.$X$X6.> h tXx 1 d A.s.1 6 &.K.B.M w.k 7.C.8 s.w.> 4.C.d < q y y i 8 + 0 6X",
"~.=.q w y y y y y w 8 < < 4 < 2 > < 6 < @ @ < 5 e < > > < , > 5 w r y y w 5 6 6 5 q < > > @ < 4 3 4 q 5 4 4 5 q 4 > > > > 3 < < < < < 4 4 < 4 q w y q 1 X [.6X",
"~.~.k 5 w y y y y i r 5 q q e 4 4 5 5 4 4 4 5 5 q q 4 5 5 5 5 q w u y u w q 5 5 r q q 4 4 7 5 8 5 q r w q 5 q t e 4 4 4 4 5 5 5 5 5 5 q q 5 5 w y r < o x 5X6X",
"~.Q.= q 5 w y y y w y w i i w w w i w w r q y y y w w w w w w w y y u y y y r w y i w w q e w y r w w y w r y y y r q w r r w w r w r w w r y w w < . 0  X6X6X",
"~.~.Q.- 6 5 q u y y y y y y y y y y w y y y y y u y y y y y y u y y y y y y y y y y y y y y y y y y y y y y y y y y w y y w y y y y y y u y y w 6 X $  X5X8X5X",
"Q.Q.Q.Q.- < 7 q r y y y y y y y y y y y y y y y y y y y y y y y y y y y y y y u y y y y y y y y y y y y y y y y y y y y y y y y y y y r y r w < o +  X8X5X8X5X",
"Q.Q.Q.Q.Q.* 6 < q w y y y y y y y y y y y y y y y y y y y y y y y y y y y u y y y y y y y y y y y y y y y y y y y y y y y y y y y y y u w q > o $  X6X8X5X8X8X",
"Q.Q.Q.W.Q.Q.- 4 > 4 q y i y y y y y y y y y y y y y y y y y y y y y y y y y y y y y y y y y y y y y y y u y y y y y y y y y y y y y y r 4 @ . 9 =X8X9X7X9X8X7X",
"Q.W.Q.W.Q.Q.Q.= j @ < 5 q y y y y i y y i y y y y y y y y y y y y y y y y y y y y y y y y y y y y y y y y y y y y y y y u y y y y r 5 @ O o N .X8X0X9X9X8X9X8X",
"W.Q.W.Q.W.Q.Q.Q.W.=.> @ < 5 w y y y y y y y y y y y y y y y y y y y y y y y y y y y y u y y y y y y y y y y y y y y w y y y w w q 3 # o 0 0.0X9X0X0X9X9X9X9X9X",
"W.W.W.W.W.W.W.Q.Q.W.= j @ @ < 5 w w y y y y y y y y u y y y y y y y y y y y y y y y y y y y y y y y y y y y s y y y y u y w 5 < + . 3 :.rX9X9X0X0X0X9X9X9X9X9X",
"Q.W.W.W.W.W.Q.W.W.Q.W.Q.* j @ + > 4 5 w u y y y y y y y y y y y y y u y y y y y y y y y y y y y y y y y u y y y y y w q 4 > X . $ :.=X9X9X0X0X9X8X9X0X9X0X9X0X",
"W.W.W.W.W.W.W.W.W.W.W.Q.Q.W.* % @ + @ > 4 q w y u y y u y y w y y y y y y y y y y w y y u y y y y y y y y p r y q 7 < + . . 3 :..X9X0X9X0X0X0X0X0X0X0X0X0X0X0X",
"W.W.W.W.W.W.W.W.W.W.W.Q.W.Q.Q.W.= % 2 + X @ > < 4 q w w y y y y u y y y y y y y u u y y y u y y y y y w q 5 6 1 # o O O h u.wX7X8X9X9X0X0X0X0X0X0X9X0X0X0X0X0X",
"W.W.W.W.W.W.W.W.W.W.W.W.W.W.W.W.W.Q.W.= % 3 + X X + @ > < 5 5 q q q w w w w w w y w w w q q 5 5 4 < > > + X X o $ h 3..X5X8X8X7X8X9X0X0X0XqXqX0X0XqX0X0X0X0X0X",
"W.W.W.W.W.W.W.W.W.W.W.W.W.W.W.Q.~.W.~.Q.(.(.Q.% & 3 + . . X X + @ @ @ @ > > > @ > > @ @ + + + X . X   O 3 g 1.[.7X7X8X5X7X7X7X7X9X8X0X0X0XqXqXqXqXqXqXqX0XqX0X",
"W.W.W.W.W.W.W.W.W.W.W.W.W.W.W.W.Q.Q.W.Q.Q.Q.Q.!.Q.Q.~.; ;.% & 2 3 @ + X o . . . .   . X , 8 t h 1.2.u. X6X6X5X5X5X5X8X8X7X8X7X9X9X0X0X0XqXqXqXqXqXqXqXqX0X0X0X"
};
