/* XPM */
static char *button_hilite_small[] = {
/* columns rows colors chars-per-pixel */
"79 45 256 2",
"   c #01FB643D0450",
".  c #092D633C00B4",
"X  c #019C6C0603C3",
"o  c #00D762AA0862",
"O  c #00BE6A960A21",
"+  c #0A54642B0C05",
"@  c #01F373EA0330",
"#  c #02197CFE02EB",
"$  c #018F72710ABC",
"%  c #03CD793A0A01",
"&  c #08FA793F03D0",
"*  c #01E366EE1643",
"=  c #005A723E11ED",
"-  c #169867F8440A",
";  c #184079F54581",
":  c #1FBC7BF74E3C",
">  c #266A6B3C658B",
",  c #23EF72326E08",
"<  c #269576436B09",
"1  c #24D271BC7152",
"2  c #233C6B2A735D",
"3  c #0231843A0265",
"4  c #089D82E401A9",
"5  c #017C8BF802E1",
"6  c #08D789FC0160",
"7  c #00938322092E",
"8  c #084189280BA1",
"9  c #11D986440730",
"0  c #018E94A6031E",
"q  c #01179C3F0200",
"w  c #003C952C0A0F",
"e  c #02959CB609DD",
"r  c #08C595A20095",
"t  c #171A9A5C075F",
"y  c #07B280E81393",
"u  c #1BC29AAE1B5D",
"i  c #00F2A4E00222",
"p  c #00D7ACB901B1",
"a  c #003CAE520950",
"s  c #0536A4DC086E",
"d  c #1069A44B0482",
"f  c #012CB4CF0068",
"g  c #081EB41C0109",
"h  c #010CBBB403CC",
"j  c #009CB6690817",
"k  c #003BBAD209E0",
"l  c #08B1BFC605E9",
"z  c #1A2FA78F194C",
"x  c #0798B71010A8",
"c  c #16EAB7F114C6",
"v  c #1672B7FF0443",
"b  c #2500AB061C9A",
"n  c #121F86A1282B",
"m  c #0F3E93A32263",
"M  c #2D109F0A2A8C",
"N  c #2647999637DE",
"B  c #1844AC22225E",
"V  c #2409B9182877",
"C  c #2880B5D13BC4",
"Z  c #3102B10A30BC",
"A  c #00D1C43603B1",
"S  c #00ABCC82044C",
"D  c #032FC2D9096C",
"F  c #02FDCB100A5D",
"G  c #0B1FCA0206E1",
"H  c #17ECC5B40C8C",
"J  c #0115D55A040F",
"K  c #014CDBF803AD",
"L  c #07CBD7C3073B",
"P  c #17DACBB81690",
"I  c #09ACD71F1288",
"U  c #122ADD7414CC",
"Y  c #07FFC71E12CD",
"T  c #019AE4C604BB",
"R  c #034FEB7D05FB",
"E  c #0338E4670976",
"W  c #09EBEC910AF3",
"Q  c #0705ECBE084B",
"!  c #0227F580046F",
"~  c #06AAF52909F1",
"^  c #0A9CF93D0B14",
"/  c #0DDBFBA81337",
"(  c #0E98F73A14E0",
")  c #1598F8CD1962",
"_  c #1A0BFBBE1B9A",
"`  c #14F1FA31161C",
"'  c #141AE9F2156C",
"]  c #2450FF7E1BEC",
"[  c #1A34CCA328D8",
"{  c #35ECCDDB3854",
"}  c #28A1DB98308E",
"|  c #2FEADDC23E77",
" . c #28F3D5792C04",
".. c #1DCEFF5E21E4",
"X. c #1705FFFA26F3",
"o. c #21B6FDF42128",
"O. c #242CFF912BC6",
"+. c #2BCBFFF82C98",
"@. c #28BBFF0A25E3",
"#. c #2FBEFFFF2A8B",
"$. c #2DBCFFFF3161",
"%. c #33F5FFFF34EF",
"&. c #32BAFFFF3BC0",
"*. c #3C6FFFFF3E8D",
"=. c #3F19FFC7366E",
"-. c #4500D7EA3E5B",
";. c #4853FFFF3C68",
":. c #1A9186684894",
">. c #17BD973B4777",
",. c #2C34AD2A4E28",
"<. c #3621A61B432B",
"1. c #2F3FB09F489C",
"2. c #38B9BE5B49F1",
"3. c #394ABC555030",
"4. c #2D3683BA726C",
"5. c #391483BE7D1A",
"6. c #2B698EBA69DD",
"7. c #3B4CAA746743",
"8. c #37ACB9546CC9",
"9. c #2843A2F16ACB",
"0. c #4DECB8BC4C43",
"q. c #4E8FAF675262",
"w. c #4CCDBC6F50CB",
"e. c #53C5BD9A5AC4",
"r. c #41C1B2E1655D",
"t. c #4FAAAE157B3A",
"y. c #4C15B6077AEB",
"u. c #5498B20B7990",
"i. c #6A33BC33706C",
"p. c #7618BD567DF1",
"a. c #6639B66C6D50",
"s. c #393CC4B03FC3",
"d. c #3254D5D14188",
"f. c #3C8BFFFF4453",
"g. c #364FFFFF46AD",
"h. c #3E29E68655A3",
"j. c #4C8AC4534BB0",
"k. c #448EDFBC4650",
"l. c #3FDFD18B51BF",
"z. c #4CACD12E527C",
"x. c #71D2C2BB4651",
"c. c #409CE3984BE5",
"v. c #4357FF254497",
"b. c #4470FFFF4A36",
"n. c #4BD9FFFE4BFE",
"m. c #4CB2FEF74432",
"M. c #5571FD3F495B",
"N. c #596DE3515B0A",
"B. c #5A0CE7F05698",
"V. c #4C01FFFF5328",
"C. c #5492FFFF5592",
"Z. c #598EFFFF5230",
"A. c #5C9CFFFF5C3C",
"S. c #56A6F91C5B33",
"D. c #4641E5715D2E",
"F. c #6A96FFFF5CBE",
"G. c #4348C37C7910",
"H. c #50ACCC197CBA",
"J. c #5D8BD5C570F8",
"K. c #6CD7CFE3671E",
"L. c #73CFCEDF671D",
"P. c #68C0D6726627",
"I. c #702BD8286E44",
"U. c #6F13CE157688",
"Y. c #66CDD695764B",
"T. c #792FDB937BF6",
"R. c #5CC4F8E36703",
"E. c #63A7FFFE6342",
"W. c #6AAAFFC76E1B",
"Q. c #6712F67B667D",
"!. c #757DFFFF688A",
"~. c #723FED1372C4",
"^. c #76A4E7377AA3",
"/. c #6B62FFFF7438",
"(. c #6D92F7317224",
"). c #7309FFFF7466",
"_. c #7B01FF807CB4",
"`. c #76F1FFFF7839",
"'. c #751BEB456789",
"]. c #823FEAF77CA9",
"[. c #26C85C528C45",
"{. c #2B0C5E6C8CBE",
"}. c #2CBF5C0987E9",
"|. c #30735F6F8B8E",
" X c #2DAC60778DCE",
".X c #31E461D48DF4",
"XX c #382464DE8F3C",
"oX c #2D8562139173",
"OX c #3423646B90E4",
"+X c #395666B890A9",
"@X c #3D4F84CB80C0",
"#X c #46F589458717",
"$X c #50E98CCF8A0A",
"%X c #4DC49D579D51",
"&X c #5DC4B47F84AF",
"*X c #6528B6BD86DD",
"=X c #524EAC7FA277",
"-X c #4768B081AF20",
";X c #5329BCB1A5E5",
":X c #5AB2BD74AEEC",
">X c #5C16BD6CB5F3",
",X c #59A1B92BB6F0",
"<X c #60D6BA00B9A5",
"1X c #5250C266820A",
"2X c #4D2CD4B88424",
"3X c #5B1BD79C92AD",
"4X c #56FCD39F81D8",
"5X c #7EE6C991849D",
"6X c #6F65D631835A",
"7X c #6AD0D7619A9C",
"8X c #7EFFEB2C8744",
"9X c #7A40F88783AC",
"0X c #7A43FC76917F",
"qX c #5933C192B1E6",
"wX c #5A48C21AAB8E",
"eX c #6F71D9DAA0CA",
"rX c #64C9C347B47A",
"tX c #6599C200BBEA",
"yX c #5453A64DD75C",
"uX c #5B7BA9F3D798",
"iX c #5C42AB1EDA5C",
"pX c #577BA780D89B",
"aX c #4F4DA5A5D7AC",
"sX c #61C0BB09C04A",
"dX c #7225BFEEC7C6",
"fX c #6407AE93DC1D",
"gX c #68A5AF9CDCAA",
"hX c #6B64ACBDD725",
"jX c #665EB10BDCEF",
"kX c #6AD6B2BBDD1A",
"lX c #719EB4C4DE83",
"zX c #6C8FB5CEE1E8",
"xX c #7252B640E0F6",
"cX c #8386FEC28427",
"vX c #84F1FB888AD4",
"bX c #9A2DFA4C9C28",
"nX c #8F82E7F8941F",
"mX c #ACF4E9A0AEB8",
"MX c #B8EEF707B95A",
"NX c #ACE2FA36A9F9",
"BX c #C301FC41BD30",
"VX c #BE4FF233C04D",
"CX c #CDD7EC3ECD71",
"ZX c #CDDCE620CD8C",
"AX c #C829FCF2CA39",
"SX c #C85EF95DCAED",
"DX c #D288FB27D2D1",
"FX c #DB28FE94DB2E",
"GX c #D714FCA7D748",
"HX c #D493EAB2CE81",
"JX c #EDDCFD5BEB79",
"KX c #E5EDFE05E44B",
"LX c #F560FD75F3F7",
"PX c #FDAEFDA2FC37",
"IX c #FDA8F701F6AB",
"UX c #F3E9F6E8EDA7",
/* pixels */
"{.{. X X.X|. X.X X.X.X.XOX.XOXOXXXOXXXOXXX.XXXXXOXOXOX@Xr.u.*XS.Z.F.E./.W.!.W.W./.W.W.E.F.F.F.Q.7X7XeXdXhXlXkXkXzXgXgXiXiXiXiXiXiXfXiXfXiXiXfXfXfXjXjXkXkXkXlX",
"{.{.{. X{.{..X X X.X|..X.XOXOX|..X.X.XOX.XXX+X7.&XQ.)._./.E.A.V.b.v.f.g.&.+.+.O.O.+.+.+.+.%.*.f.b.V.v.M.C.Q.3X7XhXgXiXfXpXpXpXiXuXuXiXfXiXfXfXfXfXfXfXjXkXkXkX",
"{.{. X{.|..X|.{. X.X.X.X X.X|.OX.XOX.X5.u.R._.`./.S.v.%.o.) W E K K J S S F G D S D F S S K K T R ^ _ _ O.$.&.*.;.M.3X<XpXiXpXpXiXiXiXiXfXfXfXjXfXjXkXkXkXkXkX",
"{.{.{. X{. X.X.X.X X|.|. XOX XOX4.u.(.cX).F.;.@.( R J A h h h f f f f f f f f f f f f f f f j g g f l A J T W / _ O.+.%.f.2X,XpXuXuXuXiXiXjXfXjXkXfXkXjXkXkXkX",
"{.{.{.{.oX{.OX{.|.{. X|..XOX@XY.cX_.R.f._ W J A k h f f f f f f f f f f f f f f f g f f f f f f f f f f f f h h F K R / ) ] +.D.,XiXiXiXiXfXfXjXjXjXjXkXjXkXkX",
"{.{.{.{.{..X|. X|.{.OX{.5.Y.cX(.n.o.W J D k f f f f f f p f f f f f f f f f f f f f f f f f f f f f f p f f f f h h h S K R / X.o.c.>XiXfXjXjXkXkXkXjXkXkXkXlX",
"[.{.{.{.{.|.|.|.{.|.4.J.vX`.v.) E A f f f f f f f f f f f f f f f f f f f f f f f f f f f f f f f f f f f f p f f f h f f h F R ~ / X.h.qXkXfXkXkXkXkXkXkXkXlX",
"oX X{. X.X{.{..X|.t.cX`.n.) K A f f f f f f f f f f f f f f f f f f f f f f f f f f f f f f f h f f f f f f f f f f f f f f f h S E ! ^ ) 2XgXkXkXkXkXkXkXlXlX",
" X X X{. X X X4.6XcXA...T A f f f f f f f f f f f f f f f f f f f f h f f f f f f f f f f f f f f f f f f f f f f f f f f f f f f h S T ! ! | rXzXkXkXkXlXxXlX",
"{.{.{..X X.X5.0X!.;.W S f g f f f f f g f f f f f f f f f f f f f f f f f f f f f f f f f f f f f f f f f f f f f f f f f f f f f f f l S T R ' wXzXkXlXzXlXxX",
" X X X X|.$X9X!.O.K h f f f f f f f f f f f f f f f f f f f f f f f f f f f f f f f f f f f f f f f f f f f f f f f f f f f f f f f f f h A K L K wXkXlXlXxXlX",
" X{. X.X$X9XA.) S h h f f f f f f h f f f f f f f f f f f f f f f f f f f f f f f h f f f f f f f f f f f f f f f f f f f f f f f f f h g h k S J S wXlXxXlXxX",
" X X X#X_.C.( S f f f f f f f f f f f f f f f f f f f f f f f f f f f f f f f f f f f f f f f f f f f f f f f f f f f f f f f f f f f f f f f k S S l ;XlXlXlX",
" X X4.W.C.^ S g f f f f f f f f f f f f f f f f f f f f f f f f f f f f f f f f f f f f f f f f f f f f f f f f f f f g f f f f f f f f f f f f h A f G rXxXxX",
" X XJ.A.) S f f f f f f f f f f f f f f f f f f f f f f f f f f f f f f f f f f f f f f f f f f f f f f f f f f f f f f f f f f f f f f f f f f f h h p C kXxX",
".X7.E.O.J h f f f f f f f f f f f f f f f f f f f f f g g f k j g f f f f f f f f f f f f f f f f f f f f f f f f f f f f f f f f f f f f f f f f f f j i H.zX",
".Xm.m.Q D f f f f f f f f f f f f f f f f f f f f f j f j g g f g f f f f f f f f f f f f f f f f f f f f f f f f f f f f f f f f f f f f f f f f f f f i H kX",
",.m._ S f f f f f f f f f f f f f f f f f f f f f f k f j x k f f f f f f f f f f f f f f f f f f f f h j f f f f f f f f f f f h f f f f f f f f f h g i 0 4X",
"d.%.~ h f f f f f f f f f g f h f f f f f f f f f f g j f g f h f k f f f f f f f f f f f f f f f g f f f f f f f f f f f f f f f f f f f f f f f f f f p 0 2.",
"] ..K f f h f f f f f f f f f f f f f f f f g h f D DXPXKXV j j.PXN.f f h f f f g h f f f f f f f j  .vXF f f f f f f f f f f f f f f f f f f f f f f f f 0 v ",
"] / S f f f f f f f f f f f f f f f f f f f g f f { JXJXIXB.i j.PXB.P P f f k [ } Y f k I J h L I G MXFXU f f f f f f f f f f f f f f f f f f f f f f g p q r ",
"/ ! A f f f f f f f f f f f f f f f f f f f f f f ~.PXR.FXMXi j.PXJXPXLXz.f bXPXPXKX-.C PX~.c AXCXN.PXPXGXk p g f f f f f f f f f f f f f f f f f f g p p q $ ",
"^ ! A f f f f f f f f f f f f f f f f f f f j f A SXPXs.HXJXM 0.PXnXc FXMXk.PX^.[ FXSX{ PX'.x AXCXY MXFXY w q p f f f f f f f f f f f f f f f f f f f f f 0 # ",
"! R h f f f f f f f f f h f f f f f f f f g j f { LXPXPXPXPXL.q.PXL.e SXMXk.PXN.s MXSXw.PX~.z DXZXs NXGXr 6 q p f f f f f f f f f f f f f f f f f f f f p 5 @ ",
"R T h f h f f f f f f f f f f f f f f f f f f j 9XPXnXe.U.JXMXe.PXFXNXLXT.z GXFXbXIXI.M JXKXBXPXZX0 mXUX].5 q f f f f f f f f f f f f f f f f f f f f f p 3 # ",
"J K A f f f f f f f f f f f f f f f f f f f f f P.5XB # 8 i.*X<.nXx.T.K.8 3 z T.vXj.5 3 0.vXj.e.a.7 V 8XY.e q p f f f f f f f f f f f f f f f f f f f f i 3 d ",
"B k A f f f f f f f f f f f f f f f f f f f f f p q 5 3 5 5 3 3 @ 3 3 3 3 3 5 w 3 3 5 5 5 5 4 3 3 4 5 0 5 6 q p f f f f f f f f f f f f f f f f f f f p 0 @ 1.",
">.f h f f f f f f f f f f f f f f f f f f f f f g i q q i q q e 0 0 0 0 0 q i q e 0 0 0 i q 0 0 0 e q i q q i p f f f f f f f f f f f f f f f f f f f p 4   H.",
"{.g f f p f f f f f f f f f f f f f f f f f f f f p p p p f p p a p i p p p p p p i i p p p p i p i p p p i p f f f f f f f f f f f f f f f f f f f p i $ t iX",
"{.>.i p f k f f f f f f f f f f f f f f f f f f f f f f p f f j f f f f f f f f f f f f f f f f f f f f p f f f f f f f f f f f f f f f f f f f f f i # * y.iX",
"{.{.m q p f g f f f f f f f f f f f f f f f f f f f f f h f f f f f f f f f f f f f p f f f f f f f f f f f f f f f f f f f f f f f f f f f f f f p 5   N iXiX",
"{.|.< s e p f f f f f f f f f f f f f f f f f f f f f f f f f f f f f f f f f f f f f f f f f f f f f f f f f f f f f f f f f f f f f f f f f f p w = 9 qXiXiX",
"{.|.{.< 0 q i f f f f f f f f f f f f f f f f f f f f f f f f f f f f f f f f f f f f f f f f f f f f f f f f f f f f f f f f f f f f f f f g p 5 X & =XfXiXuX",
" X{.|.{.> 5 0 p p f f f f f f f f f f f f f f f f f f f f f f f f f f f f f f f f f f f f f f f f h f f f f f f f f f f f f f f f f f f f f p 5 . $ =XiXiXiXiX",
" X X{.{.{.> 6 5 i p f p f f f f f h f f f f f f f f f f f f f f f f f f f f f f f f f f f f f f f f f f f f f f f f f f f f f f f f g p p q 7   = =XiXiXiXiXpX",
"{.{.{.{.{.{., 0 7 0 s f f f h f f f f f f f f f f f f f f f f f f f f f f f f f f f f f f f f f f f f f f f f f f f h f f f f f f f g a e @ * u qXiXfXiXpXuXpX",
" X{.{.{.{.{.}., n # 4 q j f p f f f f f f f f f f f f h f f f f f f f f f f f f f f f f f f f f f f f f f f f f f f f f h f j f f p i 4 O   1.rXkXfXfXiXiXpXiX",
"{.{.{.{.{.{.{.{. X:.8 # 6 q p p f f f f f f f f f f f f f f f f f f f f f f f f f f f f f f f f f f f f f f f f f f f f f f f p q 5 @ + t H.fXjXfXfXiXiXiXiXpX",
"{.{.{.{.{.[.{.{.[.[., m 7 # 5 0 i p f f f f f f f f f f f f f f f f f f f f f f f f f f f f f f f f f f f f f f f f f f f p q 5 @   9 3.<XzXfXjXfXfXfXfXiXpXiX",
"{.{.{.{.{.{.{.{.oX{.{.[.2 n # # 8 0 i p f f f f f f f f f f f f f f f f f f f f f f f f f f f f f f f f f f h f j f p p 0 4 $   & 1.<XkXfXfXfXfXfXfXfXiXiXiXiX",
"{.{.{.{.{.{.{.[.{.{.{. X[.{.2 n # @ # 5 q i p p f f f f f f f f f f f j f f f f f f f f f k f f f f f f f g p p i r 8 @ O * 9 3.tXjXjXkXjXhXjXfXjXfXjXfXiXfXiX",
"{.{.[.{.{.[.{.{.{.{.[.[.{.[.[.{., ; 8 X X # 3 0 q i p p p f f f f f f f f f f f f f f f f f f f f p f p i q 6 7 $ O . X b G.<XfXjXjXjXjXjXkXkXkXjXjXfXfXfXiXfX",
"[.{.[.{.{.{.[.{.{.[.{. X{.[.{.{.{. X[., ; 8 @   X $ 3 3 5 q q q i i p p p f p p f p p p p i i q e 5 3 # @ X O o & c 8.,XiXuXfXfXjXjXkXkXkXkXkXkXkXhXjXfXfXfXiX",
"{.{.{.{.{.[.{.{.[.{. X{.{.{.{.{. X[.{.{.}.{.{.; - 8 @     X X @ @ # # 7 3 3 3 3 7 7 3 # @ @ @ O O     X 6 z 9.G.iXpXiXfXfXfXiXfXjXhXkXkXkXzXkXkXjXjXjXfXjXfXfX",
"{.{.{.{.{.{.[.{.{.{.{.{.{.{.{.{.[.[.[.}.[.[.[.[.}.[.[.2 :.- - 7 4 # @ X   o o       o X X # t z 6.9.8.-XaXaXpXyXpXiXiXiXiXfXiXjXkXkXjXkXkXkXkXkXkXkXjXkXjXjXjX"
};
