/* XPM */
static char *button_hilite_small[] = {
/* columns rows colors chars-per-pixel */
"79 45 256 2",
"   c #024064B803EB",
".  c #02C36C130345",
"X  c #00E2655A0B24",
"o  c #035B697F0CD4",
"O  c #0B7F6B23059A",
"+  c #028173000323",
"@  c #01FE7C70028B",
"#  c #0B4A7DAF0241",
"$  c #006C7C1E0AC8",
"%  c #0A077644061D",
"&  c #0132685714BE",
"*  c #003371CB111F",
"=  c #122275980ED4",
"-  c #143068FF4652",
";  c #1AE97853495A",
":  c #2A526CFF68FA",
">  c #2BA579246D67",
",  c #2C4F785372AF",
"<  c #31AF7A346FF7",
"1  c #25396C057347",
"2  c #0107844C02A2",
"3  c #07E383C90362",
"4  c #01A78B8E0211",
"5  c #0A4D8D1702B7",
"6  c #0388830C09A3",
"7  c #00E88C2E08D5",
"8  c #0A668C640AE4",
"9  c #10B380580069",
"0  c #13018DBD052F",
"q  c #0100946002CB",
"w  c #013E9C500364",
"e  c #017E93A40938",
"r  c #02DB9BCC090C",
"t  c #0B13936B0A36",
"y  c #195E9FC40BFD",
"u  c #13F19E5715E1",
"i  c #167D988312B6",
"p  c #10CA871A116A",
"a  c #00E0A4F8033D",
"s  c #009DAC6C02C3",
"d  c #02A1A3BF0A23",
"f  c #0185ADC20B33",
"g  c #0C7AA6D707FB",
"h  c #0132B4D7007D",
"j  c #00E5BA6D0351",
"k  c #00CFB565098C",
"l  c #015ABA98090A",
"z  c #090BB6C104E8",
"x  c #057EA60B11F8",
"c  c #1848A7CC1499",
"v  c #0B8DB8551467",
"b  c #154AB96617BC",
"n  c #15DBAA6406FA",
"m  c #289CA2581F12",
"M  c #16668934298C",
"N  c #158193A4279B",
"B  c #17E98D503C16",
"V  c #20C59B1B3F99",
"C  c #0E11A22E2009",
"Z  c #1796A77C2702",
"A  c #1524BE412007",
"S  c #192FA8FF3809",
"D  c #298FB49D2F8E",
"F  c #00F0C4AC024A",
"G  c #0175CBDB0379",
"H  c #03C0CFBC08F4",
"J  c #075EC6460841",
"K  c #0108D45103E7",
"L  c #013FDC5E02EF",
"P  c #0420D2D00ADB",
"I  c #08C9D7D70AF4",
"U  c #0A5BCB1313A4",
"Y  c #17E1C7351848",
"T  c #0604D2871B68",
"R  c #1466D52717EF",
"E  c #21FFC2931F4F",
"W  c #0387E44C0300",
"Q  c #0235E9B00524",
"!  c #03DCE49E09F2",
"~  c #067AEC230A63",
"^  c #0FDBEC6C09FB",
"/  c #0373F4580400",
"(  c #0549F3C90A88",
")  c #0B81F44A0CDA",
"_  c #0835F97606EC",
"`  c #1373FB4F0E0D",
"'  c #0600EB5E10C5",
"]  c #0B87FBC61380",
"[  c #12C0FC65140E",
"{  c #1A03FCE01C24",
"}  c #160EF8BA17F5",
"|  c #22F3FFFF17F8",
" . c #03C3C06C1FB7",
".. c #1AA5D48E2BFE",
"X. c #27F8C972290B",
"o. c #26D3D9A72B76",
"O. c #2C69C8BB34E6",
"+. c #3B78CFCC3E53",
"@. c #35E4CA5E343A",
"#. c #38FBD16F37CA",
"$. c #1BCAFF0620B3",
"%. c #228CFDAB2433",
"&. c #2824FEA7230A",
"*. c #285EFFD22A95",
"=. c #3278FFFF2C7B",
"-. c #39ACFFFF2EC0",
";. c #2B36FFFF324E",
":. c #2AA3F5D932CE",
">. c #343CFFFF34B5",
",. c #3BA9FFFF3B66",
"<. c #3678FD01374E",
"1. c #22B3ECAB2BA6",
"2. c #4477FFFF3A25",
"3. c #1B2F8BC74751",
"4. c #23588DFD4895",
"5. c #3AFABF7C450D",
"6. c #2D42B0F5512F",
"7. c #39B0AD29421F",
"8. c #2860836769F9",
"9. c #260E9CF6662E",
"0. c #39F0830B7B78",
"q. c #2BD4826A717C",
"w. c #1D55A0E565CC",
"e. c #2492A8D966AA",
"r. c #26A2B60366D0",
"t. c #3142ACE56B4A",
"y. c #43C7BC514FA7",
"u. c #47FBAB70733D",
"i. c #571FB5227BDC",
"p. c #4573B3B3663B",
"a. c #6F42C0246D09",
"s. c #7952BBA67A8E",
"d. c #2B5ED88544B5",
"f. c #32ABDCEB4FB9",
"g. c #3BADF86944B1",
"h. c #3DA4FFFF5551",
"j. c #2F18E213474E",
"k. c #3111C61275D8",
"l. c #4F65C05250D2",
"z. c #534EC8CB5839",
"x. c #5C6CD8A8581A",
"c. c #536AD1454D2F",
"v. c #7AACD26B5956",
"b. c #421CFFFF42D1",
"n. c #4AA8FE6C4589",
"m. c #46A1FFFF4B10",
"M. c #51C6FFFF4D8D",
"N. c #52FBFFFF449B",
"B. c #4D45FFFF5151",
"V. c #58CCFFFF5D03",
"C. c #5670FC6756F9",
"Z. c #4C5BE5314050",
"A. c #6326FFFF5CE4",
"S. c #5B8ED6136939",
"D. c #5BEED2D36928",
"F. c #682DC7AA6A9E",
"G. c #6689D3BB692C",
"H. c #7025D5516F80",
"J. c #7896CADC79B5",
"K. c #6A1BD3797ACB",
"L. c #7E79D8127B6C",
"P. c #581FE0A1603E",
"I. c #5F1FFFFF631D",
"U. c #5BB2FC5F657F",
"Y. c #6430FFFF647A",
"T. c #69C3FF9C6B1B",
"R. c #6657FB0769C1",
"E. c #77B6FBA06B1E",
"W. c #78FBE5657E2E",
"Q. c #7375FFFF72AE",
"!. c #7BF8FB1B7A36",
"~. c #657EF6296BEA",
"^. c #814AC18B7F0A",
"/. c #8028DEB17F30",
"(. c #833EFDBE7D40",
"). c #8F1AFFFF7A0A",
"_. c #8474EC877F5A",
"`. c #26C15C5C8B4C",
"'. c #2A725DDA8CC5",
"]. c #2FE75E998A1C",
"[. c #29FB5F5990F8",
"{. c #2E7160A48DF9",
"}. c #353663B28E7B",
"|. c #38C465048F4B",
" X c #35C8649990D5",
".X c #3965662690EE",
"XX c #405F69458F8E",
"oX c #21F18AF69522",
"OX c #25259CC196C2",
"+X c #28B09C5B9ABE",
"@X c #3F51874982CA",
"#X c #2852A3739B3E",
"$X c #3310A8F49E7D",
"%X c #2D29A532A327",
"&X c #2DF1A8C8A3CB",
"*X c #3027A48FA3D0",
"=X c #3728A6BDACA6",
"-X c #4A9389A486A8",
";X c #58FBB4A18553",
":X c #7F4FBEBB82B6",
">X c #6642B82A8C8D",
",X c #4B2CAE00B943",
"<X c #4553CCC68640",
"1X c #522DCB668CC7",
"2X c #78C2EC4680CB",
"3X c #7B72FFFF8274",
"4X c #7BCDF93C8743",
"5X c #1D1F8A1AC9F9",
"6X c #1C1E87B4C6C7",
"7X c #229B8A18C6E9",
"8X c #25188CF0CAC9",
"9X c #2A848F03CB51",
"0X c #27A0874FC30E",
"qX c #30248FA1C9B8",
"wX c #2CB890EDCCA4",
"eX c #32B6933ECDB9",
"rX c #389896FBD01E",
"tX c #3C5C9947CF7C",
"yX c #2CF79134D0BC",
"uX c #38399750D108",
"iX c #42829C54D22E",
"pX c #8ACFDBA58101",
"aX c #9BD9E00896C0",
"sX c #8A9CEA9E83AB",
"dX c #8471FFFF82AE",
"fX c #847DF5BA8621",
"gX c #928DF3CD8D6B",
"hX c #9DC2ED509AC9",
"jX c #8EB0F142936C",
"kX c #9CCCF6DF96E6",
"lX c #A18FEF619AED",
"zX c #9D03F9B0AC2E",
"xX c #A7B8F7B1A83B",
"cX c #B199F748AE65",
"vX c #ACE3FC0BB7AD",
"bX c #BA8FF733BC57",
"nX c #AFA2ED28B92A",
"mX c #C245E826BECE",
"MX c #CD21FDB8C463",
"NX c #CD62FD2ACE45",
"BX c #C982F76ACB0C",
"VX c #D609F9B2CCDB",
"CX c #D3F3FD0CD519",
"ZX c #DDEEFE06DAFF",
"AX c #D86AFB70D69C",
"SX c #C62FF448CBCD",
"DX c #E4E3F625D947",
"FX c #DFA6FB13E07F",
"GX c #E59DFC9EE3FA",
"HX c #EB9AFBD4E8E7",
"JX c #F1ABF97CED12",
"KX c #F0A9EDD2FD4C",
"LX c #EF9CFDC1F100",
"PX c #F4F2FC9CF300",
"IX c #FD8CFC38FBE9",
"UX c #F645F7A4F275",
/* pixels */
"'.'.'.`.`.'.'.'.'.'.'.'.{. X X}.}.}.}..X|..X.X.X.X.X.X-Xp.i.>XC.C.A.Y.T.T.T.T.T.T.Y.Y.I.V.B.2.g.i.1X1X,XiXtXiXuXuXtXtXeXrXeXeX9XwXwXwX9X9X8X9X9X9XwXwXwXeXeXeX",
"`.`.`.'.'.'.'.'.'.[.[.].{.]. X[. X}.}.}..X.X.Xu.;XU.Q.Q.Q.Y.C.M.n.b.,.>.>.*.;.*.;.;.*.;.;.;.,.,.g.n.m.M.M.C.1X<XtXuXeXeXeXeXeXeX9XwXwX9X9X9X9X9XwXwXwXyXeXeXwX",
"`.`.`.'.'.'.'.'.'.[.'.[.].[.].}.}.}. X-X;X~.3X!.Q.V.m.>.%.} ) ! L L P G G G F F F F G F G K L W ( ^ ` { ;.>.g.m.b.n.<X=XrXrXeXwX9XwX9X9X8X9X9X9XwXwXwXwX9XwXeX",
"`.`.'.`.'.'.'.`.'.'.'.].]. X]. X< ;XE.).3XY.b.*.} Q K G F j h j h h h h h h h h h j h j j j h h h l j F K ! ' ` { *.=.-.<.k.=XeX9X9X8X9X9XwX9X9XwXwXwXwX9XwXwX",
"`.`.`.'.`.'.'.'.'.{.'.{. X{.0.S.(.!.I.,.{ ~ K F j j h h h h h h h h h h h h j h h h h h h h h h h z h l j h z j H ! ( ] { ;.&.f.&X9X9X9X9XwX9X9X9XwX9X9X9XqXwX",
"`.'.'.`.`.'.'.'.'.'.'.'.0.:X3XQ.M.%.~ K j h h h s h h h h h h h h h h h h h h h h h h h h h h h h h h h h h h h h h j G L ~ ] { ` j.%XwXwX9XwX9XwX8X9X9X9X9XwX",
"'.'.'.'.'.'.'.'.'.{.q.D.dXQ.b.{ W F j j j h h h h h h h h h h h h h h h h h h h h h h h h h h h h h h h h h h h h h h h h j K Q _ ] ] d.&XwXwXwXwXwX9XwXwXwXwX",
"'.'.`.'.'.'.`.'.{.u.4X3XB.} L F l h h s h h h h h h h h h h h h h h h h h h h h h h h h h h h h h h h h h h h h h h h h j j l j G ! / ] ( k.9XwXwX8X9XwXwX9XqX",
"'.'.'.'.`.{.`.q.K.dXV.%.W F h j h j h h h h h h h h h h h h h h h h h h h h h h h h h h h h j h h h h h j h h h h h h h h h h h h l G W ( _ ..*X9XwXwXwX9XwXwX",
"'.'.].[.{.`.@X!.Q.,.( G h h h h h h h h h h h h h h h h h h h h h h h h h h h j h h h h h h h h j h h h h h h h h h h h h h h h h h h j K W ' ^ #XwXwXwXwXwX9X",
"'.'.'.[.{.-XdXI.&.L j h h h h h h h h h h h h h h j h h h h h h h h h h h h h h h h h h h h h h h h h h h h h h h h h h h h h h h h h h h F L ' I OX9X8X9XwX9X",
"'.].{.{.-X(.C.{ P j h h h h h h h h h h h h h h h h h h h h h h h h h h h h h h h h h h h h h h h h h h h h h h h h h h h h h h h s h h h j l G K J OXwX8X9X8X",
"].'.'.-X!.V.] F h j h h h h h h h h h h h h h h h h h h h h h h h h h h h h h h h h h h h h h h h h h h h h h h h h h h h h h h h h h h h z l l J J j OX5X9X8X",
"'. Xq.T.C.[ F j h h h h h h h h h h h h h h j h h h h h h h h h h h h h h h h h h h h h h h h h h h h h h h h h h h h h h h h h h h h h h h h h j G h z #X8X8X",
"}.'.S.I.} G j h h h h h h h h h h h h h h h h h h h h h h h s h h h h h h h h h h h h h h h h h h h h h h h h h h h h h h h h h h h h h h h h h h h z k S 5X8X",
"}.t.I.;.K l h h j h h h h h h h h h h h h h h h h h h h h h h h h h h h h h h h h h h j h h h h h h h h h h h h h h h j h h h h h h h h h h h h h j z s a r.6X",
"'.n.b.~ j h h h j h h h h h h h h h h h h h h h h h h h h h h h h h h h h h h h h h h h h h h h h h h h h h h h h h h h h h h h h h h h h h h h h h l z s n 0X",
"6.n.{ G j h h h h h h h h j h h j k h j z j h s h k j h h j j h h h h h h j k h z k h h j k T T J j k h z l h h l z h k z h j h h h h h h h h h h h s h a q r.",
"#.>./ j h h h h h h h h h h h h P GXDXA h k j h h h j j h h j h h h h h k h mXCXY s h j Y xXIXIXHXx.l vXAXJ U !.+.a h h j l s h h h h h h h h h h h h h s w S ",
"*.$.L h h h h h h h h h h h h h H GXDXb s s s j R o.J j h z R o.R k z j ....mXCXY a h l xXIXkXv.VXHXX.1.:.h fXPX2.z I J z  .I F z h h h h h h h h h h h s q g ",
"{ ` G h h h h h h h h h h h l h K GXZXc w f k 2XPXIXJXP.l kXIXIXIXjXj jXIXUXUXCXc r s X.ZXCXv 4 k d a cXCXO.IXIXPXc.AXBXj hXGXY k h h h h h h h h h j j s q 5 ",
"[ _ F h h h h h h h h h h h h h P GXZXN t a X.GXlXb BXMXY c.~.j.GXMX+.GXcXv VXNXc 4 a X.FXNXx # q 5 x vXCX .sXPXc.t pXGX#.AXgXs f s h h h h h h h h h h k w @ ",
"_ / F h h h h h h h h h h h j h H GXZXb l P #.JXsX7 mXDXD xXAXL.DXMX@.GXaXe mXCXx t w J SXGXD t hXmXo.xXCXf L.LXD $ D LXzXLX5.q w s h h h h h h h h s h k q + ",
"/ Q j h h h h h h h h h h h j h P GXIXIXIXIXO.bXDXxXPX_.D HXVXkXJXMXc mXHXxXUXNXu 7 a f S.IXPXZXIXnXU vXCXf G.UXlXy t nXIXVXq 4 q s s h h h h h h h h h f 4 + ",
"Q L F j h h h h h h h h h h j h F H.pX:Xs.^.i g H.fXD.5 7 z.sXz.y.s.p m W.G.y.a.t 4 s s s 5.L.4XG.u w z.F.q x W.2XZ q x.IXH.% 7 d s h h h h h h h h h j s 2 @ ",
"L L F s s h h h h h h h h h h h h a 4 + 2 2 4 q q 2 2 2 4 4 4 2 2 6 2 4 4 4 2 2 2 q a h h w q 2 2 4 4 q 5 4 e q 4 i vXKXGXc 2 4 a h h h h h h h h s h h a 2 5 ",
"Z F F h h h h h h h h h h h h h h s w q 4 q q w w w q q w a w w q q q w w w q q w a s h h f w q q q w a w w a w w w O.c.c 2 2 w s h h h h h h h h h h h q * N ",
"4.s j h h h h h h h h h h h h h h h s s s a a s s s a a s h s a s a s s s s s a s s s h h k s s a a s s h s s s a s s w q 2 q a h h h h h h h h h h h s 2 . e.",
"}.F s h h h h h h h h h h h h h s h h j h h h h h h h s h h h h s h h h h j s h j h h h h h h s h h h h h h h h h s s d w w a s h s h h h h h h h h s w . 5 5X",
"}.4.s s h h h h h h h h h h h h h h h h h h h h h h h h h h h h h h h h h h h h h h h h h h h h h h h h h h h h h j l h s h s h h h h h h s h h h h a @ X w.6X",
" X XN d s h j h h h h h h h h h h h h h h h h h h h h h h h h h h h h h h h h h h h h h h h h h h h h h h h h h h h h h h h h h h h h h h h h h h s 5 o 3.6X6X",
"|. X8.s w s j h h h h h h h h h h h h h h h h h h h h h h h h h h h h h h h h h h h h h h h h h h h h h h h h h h h h h h h h h h h h h h h h h s e o # +X6X5X",
" X|. X> r w s h h h h h h h h h h h h h h h h h h h h h h h h h h h h h h h h j h h h h h h j h h h h h h h h h h h h h h j h j j h h h h h h s q . % oX0X5X5X",
" X X|.|.: 7 q a s h h h h h h h h h h h h h h h h h h h h h h h h h h h h h h h h h h h h h h h h h h h h h h h h h h h h h h h h h j j j h d 4 O O oX5X5X7X8X",
".X|.}. X}.: 4 4 a s h h h h h s h h h h h h h h h h h h h h h h h h h h h h h h h h h h h h h h h h h h h h h h h h h j h h h h h h h h s w 6 o = oX7X7X5X8X5X",
"|.|. X X X X> w 2 q a h h h h h h h h h h h h h h h h h h h h h h h h h h h h h h h h h h h h h h h h h h h h h h h h h h h h h h h s s q +   0 +X7X9X7X8X7X7X",
"|.|. X X}.}.}.q.M @ 2 w s h h h h h h h h h h h h h h h h h h h h h h h h h h h h h h h h h h h h h h h h h h h h h h h h h h h h s w 6 . . V $XyX9X8X9X7X7X8X",
"|.|.|.|.}.}.}.}.}.4.3 @ 7 w a h h j h h j h h h h h h h h h h h h h h h h h h h h h h h h h h h h h h h h j z h h h h h h h h f w 3 + o t e.0X9X9X9X9X9X9X8X8X",
"|.|.}.|.}.}.}.}.}. X> N @ @ 4 w s s h h s h j h h h h h h h h h h h h h h h h h h h h h h h h h h h h h h h h h h h h h s f r 4 % o # S %X9X9X8X9X9X9X9X9X7X9X",
" X|. X}.|.}.}.}. X.X X X< M @ @ 6 q d s j h h h h h h h h h h h h h h h h h h h h h h h h h h h h h h h h h h h h j h a w # * & % V *XwX8XwX9X9X9X9X9X9X9X9X9X",
"|.|..X|.]..X X|.}.|.|. X X|., M @ + @ 4 q a s s h h h h h h h h h h h h h h h h h h h h h h h h h h h h h h h s a e 3 +   X 9 S $XwXwXwXwX9X9XqX8X9X9X9X9X9X8X",
"|..XXX.X.X X.X].}.}.|.}.|.|.}.}.< 3.8 . + @ 4 4 q a s s s j j z j h h j h h j h j h h h j l z h z k h s d w q @ $ .   O y e.*XwXwXwXwXwXwX9X9X8X9X9X8X9X9X9X8X",
"|.|.|.].}.}. X|.|.|.|.}.|.|.|.}.].}.}., ; 8 + . + @ @ 2 4 q w d a a s s s s h s s h f s d a a r e 5 4 $ $ . o o % y 9.*X8XwXwXwXwXwX9X9X9X9XwX9X9X9X9XqX9X9XwX",
".X|..X|.|.|.}.|.}.}.|.|.}. X|.}.}. X{.{.'.}.'.; - 6 + . . . . + + @ @ @ 6 6 2 @ 2 3 @ $ $ + + O o o X   9 i 8.t.qX9X9X9X9X8X9X8X9X9X9X9X8XwX8X9X9X9X9XwXwXwXwX",
"|.|.|..X|.}.}.}.}.}.|.|.|.}.}.}.}.}. X'.].].'. X`.'.'.1 3.- - p 3 @ + .           X X . # t y c 8.9.r.=XuXeXwXyXyXwXwX8XwX9X8XyX9X9X9X9X8X9X9X9X9XqXwXwXeXwXwX"
};
