/* XPM */
static char *checkbox_checked_small[] = {
/* columns rows colors chars-per-pixel */
"95 35 198 2",
"   c #0E8F1B5B2D6D",
".  c #12121A1A26A7",
"X  c #11FD1D932D83",
"o  c #12281EB430C6",
"O  c #149520202EEF",
"+  c #18D921E22D2D",
"@  c #1354218234B5",
"#  c #139424643B3B",
"$  c #1D9D29FF39CF",
"%  c #155529494485",
"&  c #18392BCC4727",
"*  c #15D62DAE4ACB",
"=  c #18992DAE47C8",
"-  c #1A6131D55220",
";  c #1C3D355559BA",
":  c #1E7F38B95B9C",
">  c #2C2C3BBC4B0B",
",  c #206037B85858",
"<  c #1DC83BBC62F8",
"1  c #21113CDD653D",
"2  c #23FE3ED86A91",
"3  c #2D2D43C45D5D",
"4  c #3C68494D523E",
"5  c #39FA4F4F5EDF",
"6  c #1F1F430365A5",
"7  c #1F5241DB6AD1",
"8  c #22CD418164E4",
"9  c #2BEC454566A6",
"0  c #228541876B38",
"q  c #298A45056BCC",
"w  c #232349896A2A",
"e  c #2BCC4AEA6E4E",
"r  c #307046C76DEE",
"t  c #3C3C555566E7",
"y  c #32B34FD06EEF",
"u  c #38B952526EAE",
"i  c #252545A670F1",
"p  c #25504A0075A0",
"a  c #26D74D5D7B3B",
"s  c #29EA4F4F7979",
"d  c #34144E4E7495",
"f  c #252551927BFC",
"g  c #2AAB52527CFD",
"h  c #33F44FD07777",
"j  c #3C7C56567171",
"k  c #377754147A3A",
"l  c #3BFC56167BDC",
"z  c #43834C8C5616",
"x  c #428250D15A1A",
"c  c #484856166161",
"v  c #45455D9D7535",
"b  c #404059197CFD",
"n  c #4D6D61C27333",
"m  c #55F668C97414",
"M  c #509068687A3A",
"N  c #595F6BE67A7F",
"B  c #29EA55968222",
"V  c #26265A1A8343",
"C  c #2CE05AF48545",
"Z  c #2D1D5CCD8B0B",
"A  c #2AEB60208707",
"S  c #319C62828CAC",
"D  c #2D6D64249111",
"F  c #2E6E692996D6",
"G  c #3192646594B4",
"H  c #32996A10963C",
"J  c #387869299191",
"K  c #32026D559D0D",
"L  c #35D671E29CCC",
"P  c #3A3A74349EF4",
"I  c #33336EAEA060",
"U  c #35357151A060",
"Y  c #3A5473F4A0FA",
"T  c #3C3C7B1BA5D5",
"R  c #32B37A2AAC9C",
"E  c #3A477BA2AC79",
"W  c #39BA7E7EB171",
"Q  c #42625D5E81A2",
"!  c #4949636386B1",
"~  c #5A5A6FAF8141",
"^  c #512B6A9D8C18",
"/  c #591971F28282",
"(  c #56566FF08F4F",
")  c #59FA735391D1",
"_  c #51917C7C9A5A",
"`  c #63A37B7B8A8A",
"'  c #681E7E128DD7",
"]  c #68687EBE9191",
"[  c #65257D5D9BBC",
"{  c #6AEB7BFC9B9B",
"}  c #41C27474A020",
"|  c #3D3D8141AD2D",
" . c #3D9E8242B1B1",
".. c #3A3A89C9B979",
"X. c #656580409252",
"o. c #6AAA81C19454",
"O. c #62A281419EBE",
"+. c #6CAC85C59898",
"@. c #417184B4B444",
"#. c #46068A0AB7F7",
"$. c #44E98C67BBE9",
"%. c #4FD08A0AB232",
"&. c #6DAD8808A424",
"*. c #7721899FA38E",
"=. c #7B5B8E6EA949",
"-. c #77F89090A4E4",
";. c #7D7D9151A929",
":. c #72729717B3F3",
">. c #7A3A9ADAB434",
",. c #3DFE8B0BC040",
"<. c #3DAA9A7CCF7E",
"1. c #3A3A9797D0D0",
"2. c #3D8B9AA5D132",
"3. c #464695D5C747",
"4. c #49CA93A8C32D",
"5. c #46469515C888",
"6. c #48C99696CB0A",
"7. c #41529B60CF40",
"8. c #4B1B9B4BCD9D",
"9. c #44099D68D2CF",
"0. c #48B19ED6D407",
"q. c #4B4BA222CF4F",
"w. c #467EA0A7D3AE",
"e. c #4BCCA1F2D50E",
"r. c #4CB1A310D8A1",
"t. c #526AA4E4D63F",
"y. c #5899A565D4D4",
"u. c #55BCA8BBD734",
"i. c #59EFA9A4D787",
"p. c #5550A6C2D8CA",
"a. c #58E2A71DD96B",
"s. c #5681A8FBD8F5",
"d. c #5CCFAAEFDA0F",
"f. c #6D6DA666CDCD",
"g. c #6283ADE7DBC8",
"h. c #6868AF2FDA9A",
"j. c #66B7B0D3DCF0",
"k. c #69FDB27BDDC2",
"l. c #7380B373DADA",
"z. c #78A3B7B7DEBE",
"x. c #7737B939DD9D",
"c. c #7F3FC040E4E4",
"v. c #83439595AAEA",
"b. c #898996D6ADAD",
"n. c #81D29E7EB343",
"m. c #8D5D9DCEB4F5",
"M. c #82F4A0E8B296",
"N. c #8E8EA020B5B5",
"B. c #8363A323BB7B",
"V. c #8C2CA9EABE5E",
"C. c #9373A646BC1C",
"Z. c #9C5CAA2ABF3F",
"A. c #8D4DAEAEC6E6",
"S. c #80C0ABEBC9C9",
"D. c #8A4AAD2DCA09",
"F. c #93B3ACEDC626",
"G. c #96D6B272C343",
"H. c #9898B232C605",
"J. c #9151B373CE4E",
"K. c #9A5ABABACE4E",
"L. c #93D3B6F6D211",
"P. c #9878BA9AD433",
"I. c #9BDBBFDFD979",
"U. c #A161B3F3C6C6",
"Y. c #A1E2B9FAD00F",
"T. c #8313BF5FE413",
"R. c #9E89C4AFDEB3",
"E. c #A969C181D716",
"W. c #A4BAC670DE33",
"Q. c #A8A8C8C8E01F",
"!. c #B0B0C484D797",
"~. c #83EEC0C0E590",
"^. c #8E0EC4F4E504",
"/. c #90A0C5E5E3C3",
"(. c #9696C949E666",
"). c #9898CA8AE827",
"_. c #9797CD4DEA6A",
"`. c #99C9CC5CE908",
"'. c #A634CD6DE51A",
"]. c #AA2ACD0CE565",
"[. c #A525D2D2E565",
"{. c #AB80D2E3EB48",
"}. c #AEAED898EF8F",
"|. c #B070D767EF6F",
" X c #B0FBD898EFEF",
".X c #AF3FD797F125",
"XX c #AF4CD8A9F1B5",
"oX c #B030D797F151",
"OX c #B161D951F214",
"+X c #B98BDDD7F3D6",
"@X c #BEBEE060F474",
"#X c #CA4ADF1EED2C",
"$X c #C26CDF5FF272",
"%X c #C198E10AF421",
"&X c #CB8BE6A6F6F6",
"*X c #D528EB0AF76A",
"=X c #D656EB6BF8F8",
"-X c #DCBCF0F0FABA",
/* pixels */
"<.2.<.1.2.<.<.9.<.<.<.9.9.9.9.7.9.w.9.w.w.e.e.e.0.w.e.e.y.%.u.t.e.e.e.e.e.e.t.e.w.t.e.t.0.t.t.e.e.e.e.t.e.t.e.e.t.8.t.t.t.t.t.t.s.s.s.s.i.s.s.d.d.d.g.g.j.j.j.k.k.j.k.k.k.k.l.k.k.x.k.k.k.k.k.",
"2.2.2.2.2.2.2.2.1.7.<.9.9.9.9.9.9.w.w.w.e.e.e.0.e.e.e.y.>.J e.e.e.e.0.e.r.e.e.e.e.e.e.e.e.0.e.t.e.e.t.w.e.e.t.t.e.t.e.t.8.t.t.t.t.t.t.i.d.s.d.d.d.d.d.g.g.g.j.k.k.j.k.k.k.k.z.k.k.k.k.k.k.k.k.",
"2.2.2.2.2.2.<.<.9.1.<.9.9.9.9.9.w.w.w.e.e.w.t.t.e.0.y.F.^ S e.r.e.e.w.0.e.w.w.q.r.e.w.r.t.e.e.e.e.0.w.t.e.t.e.t.t.e.e.t.e.e.t.t.t.t.s.a.s.d.d.d.d.d.g.g.g.j.j.j.j.j.k.k.k.k.k.k.k.z.k.k.k.c.k.",
"9.9.2.2.<.<.<.<.2.9.7.7.1.9.9.9.e.w.e.e.t.e.e.e.t.t.A.;.8 P e.w.w.e.e.w.0.w.9.0.9.9.0.0.0.e.e.e.w.e.e.w.e.e.e.e.e.e.e.e.e.e.t.e.t.s.t.i.d.d.d.d.d.g.g.g.j.j.j.j.j.j.k.k.z.k.k.k.k.k.k.k.k.k.k.",
"w.<.2.7.9.<.9.<.1.9.7.9.9.7.9.9.e.e.t.r.t.r.t.t.e.S.N.! - T e.e.e.e.9.e.0.9.7.9.9.9.w.w.w.e.0.0.0.0.0.e.e.e.e.r.e.e.e.q.e.e.t.e.e.t.t.t.y.d.d.d.g.g.g.g.g.g.g.k.j.k.k.k.k.k.k.k.k.k.k.z.k.k.k.",
"9.9.9.2.7.2.<.<.9.7.7.<.9.9.9.9.w.t.t.t.t.u.t.t.f.C.O.q = L e.w.e.r.e.0.9.9.9.9.9.9.9.9.9.e.r.0.0.w.w.w.e.r.e.e.e.e.w.e.w.e.0.t.t.t.p.s.a.d.d.d.d.d.d.g.g.k.k.g.j.k.k.k.k.k.k.k.k.k.k.k.k.k.j.",
"w.9.9.2.9.9.<.7.7.9.9.7.9.9.9.9.e.s.s.i.s.s.t.y.C.*.l < = C e.e.e.e.e.e.9.9.<.<.2.9.9.9.0.e.0.0.9.9.9.e.e.e.e.e.e.0.w.e.w.0.e.e.e.t.p.t.p.a.d.d.d.d.d.g.g.k.k.k.k.j.k.k.k.k.k.z.k.k.k.k.k.j.k.",
"w.w.w.9.9.<.9.<.l.^.^.^.^./././.(.)._.`.`._.).J.b.^ e < = w e.e.e.e.e.e.9.7.9.<.2.2.9.9.9.e.0.0.9.9.0.0.e.e.r.r.t.w.e.e.e.0.0.e.e.t.t.t.t.p.t.s.a.d.g.g.k.g.k.k.k.k.k.k.z.k.k.k.k.k.j.k.j.k.h.",
"e.9.9.9.9.9.2.x.-X-X=X=X=X=X=X=X=X=X=X=X=X=X#XZ.[ h < - O # 8.r.t.e.0.0.9.<.2.7.9.9.9.9.9.0.0.9.9.w.9.0.0.r.0.0.0.e.e.e.e.e.e.e.e.e.e.t.t.t.s.s.s.d.d.g.g.j.j.k.k.k.k.k.k.k.z.k.k.k.k.k.j.j.g.",
"9.0.9.0.9.9.0.^.*X&X%X+X+X%X%X+X+X@X@X@X@X+XY.;.n 1 - . X g q.t.e.e.0.9.9.<.2.<.<.9.9.2.9.9.9.0.9.9.0.w.9.0.0.r.e.t.e.e.e.e.e.e.e.e.e.t.e.t.t.t.s.s.d.g.g.g.k.j.k.k.k.k.k.k.k.k.k.k.k.k.j.j.g.",
"e.9.9.e.0.w.0.~.$X+X.X.XXX.X X XXX.X.XoX XQ.m.) i - O + | e.t.r.0.9.9.2.<.2.2.<.2.9.9.9.9.9.9.w.0.9.9.0.e.9.9.r.0.0.t.t.t.t.t.e.0.e.e.e.e.t.y.t.s.s.d.d.g.g.j.j.k.k.k.k.k.k.k.k.j.k.k.j.j.g.g.",
"0.e.0.e.9.w.9.T.$X+X.X.XXX.X XR.XX.XXXoX XH.*.l ; o $ n q.u.t.t.9.9.9.2.2.2.<.9.9.2.9.2.9.9.9.9.w.7.0.9.w.9.0.0.e.t.0.t.0.e.t.e.e.9.e.e.e.r.t.t.i.s.d.g.d.g.h.h.k.k.k.k.k.k.k.k.k.k.k.j.j.g.g.",
"0.9.r.0.w.w.w.~.+X+XOX.XXX}.Y.*.R.oXoXoXQ.b.( < @ $ o.N t.s.t.t.9.2.1.2.1.<.<.2.7.9.9.9.9.w.2.w.e.0.0.9.0.w.0.5.3.e.t.0.t.t.e.r.t.0.t.0.t.e.e.t.t.t.d.d.g.g.g.h.k.k.k.k.k.k.k.z.k.j.j.g.j.g.g.",
"0.e.e.e.e.9.0.T.%X+X.X.X|.!.N.l :.oXoXoXG.*.h %   +.M.N t.t.t.w.7.<.1.1.<.<.7.E 7 < 7 1 0 9.w.F 0 8 E w.0.E q 7 8 C t.G 2 Y t.L 1 S 0.e.0.e.e.t.p.s.s.d.d.g.g.g.k.k.k.k.k.k.k.k.k.j.j.g.g.g.g.",
"e.e.w.w.e.w.9.T.$X+X XE.K.v.( < b {.}.].m.^ -   M {.>.N t.t.e.9.1.1.1.1.<.<.2.R 2 B K I I 9.9.a i 7 Z 0.0.i i $.Z g $.8.p i $.0 p 0.e.t.e.w.e.t.t.t.s.i.d.g.g.g.k.k.k.k.k.k.k.k.k.j.j.g.h.d.g.",
"w.w.e.e.9.e.9.T.$X+XD.) Q h q 1 8 D.oXY.=.e   > '.}.M.N t.w.9.9.9.<.1.<.1.1.2.R 0 p B V F w.4.7 Z B 2 3.r.f 2 a D #.t.e.@.0 0 0 @.t.t.e.e.e.e.t.t.t.p.i.d.d.g.g.k.k.k.k.l.k.k.k.k.k.j.j.j.j.j.",
"e.e.e.9.e.9.9.T.$X+XXXL.d - : 1 1 &.{.C.^ % X V.XX{.n.N 0.w.9.2.1.<.2.<.2.2.2.R 2 p B Z K 9.I 0 H F 7 T t.6.H a 8 0  .t.t.S 1 S t.t.t.e.t.e.e.y.r.y.u.s.d.d.d.g.g.j.k.k.k.k.k.k.j.k.k.j.j.j.j.",
"0.w.0.w.9.9.9.T.$X+XXX.XR.3 - , 7 ! B.{ 9 X ~ oXXX{.M.N 9.9.9.9.7.<.9.1.2.2.9.R 0 D 9.9.0.e.a 6 0 0 2 B 3.S G r.Y 2 F u.t.Y 2 Y r.t.e.t.r.t.t.t.y.u.t.i.d.d.g.d.j.k.k.k.k.k.k.k.k.k.k.j.j.j.j.",
"0.w.9.w.9.9.9.T.%X+XXXXX}.R.j ; < k ! e # > '..X X{.M.N 9.9.w.9.9.9.<.9.9.2.9.R 2 0 7 0 0  .1 p  .E p 7 4.a q Z s 0 $.a.p.Y 0 P t.t.p.t.t.t.t.s.s.s.s.s.d.d.d.g.g.j.k.k.k.k.k.k.k.k.k.k.k.j.j.",
"0.w.9.9.9.9.9.T.%X+X XXX}..XR.u < < 1 * @ n..XOX X{.M.N w.0.0.0.9.9.9.9.9.9.9...I I K U U  .P E r.e.| U $.8.P S J 4.a.t.a.$.} #.r.t.e.t.t.t.t.t.t.d.s.s.s.d.d.g.g.g.k.k.k.k.k.k.k.k.k.k.j.k.j.",
"9.w.0.0.w.w.9.~.%X+X}..XXXXXOXP.9 , - o n .XXX.XXX{.n.N w.9.w.0.9.9.9.9.9.7.9.9.9.w.9.9.w.e.e.r.0.e.t.e.t.e.e.p.t.s.s.s.p.p.t.r.t.t.t.t.p.r.p.p.s.s.i.t.i.d.d.d.d.d.j.j.j.j.k.k.k.k.k.k.j.j.j.",
"w.0.0.w.0.9.0.T.$X+XOX}.XXOXXXXXB., # $ P.XXOXXXXX{.>.N w.e.0.9.0.9.0.9.w.9.9.w.w.w.9.w.w.e.0.e.e.e.t.e.t.t.t.t.t.p.t.t.t.t.p.p.u.t.p.t.p.p.p.p.s.t.t.s.s.d.d.d.g.g.d.g.j.j.j.j.k.j.j.h.j.j.j.",
"e.e.w.9.w.e.0.T.%X+XOXXX.XOXXXOXOX[ o / XX.XOXOXXX{.M.N e.9.9.9.9.w.9.0.0.0.w.0.0.0.w.0.w.0.w.e.e.r.r.e.e.t.t.t.u.t.t.t.t.t.p.t.p.t.t.p.p.t.p.s.s.t.s.s.s.s.d.g.s.g.g.g.g.j.g.j.j.j.j.j.j.j.g.",
"e.w.e.9.e.e.0.~.+X+XoXOX.XXXXXOXOX{.v I.OX.XOXXXXX{.n.N w.w.w.w.e.r.0.0.0.e.e.e.e.w.0.0.0.w.9.w.e.e.t.t.t.t.t.t.t.p.t.t.t.s.t.t.s.a.s.i.p.t.s.s.d.a.a.i.i.s.d.d.g.d.g.d.g.g.g.j.j.g.j.g.g.g.g.",
"9.w.0.e.r.0.0.~.@X+X.X.XXX XXXXXoXOX'.OX}..X}.OX}.[.n.m 0.9.e.e.e.e.e.e.e.w.e.e.e.e.0.e.e.9.0.e.e.e.t.e.t.e.t.e.e.t.t.t.t.t.a.y.s.s.s.s.s.d.a.d.s.d.d.s.s.d.d.d.g.g.g.d.g.g.g.g.d.j.d.j.j.i.g.",
"9.0.w.9.9.w.w.T.+X.X'.'.'.'.'.'.'.'.'.'.'.].'.'.'.K.o.x 0.w.9.e.e.w.r.e.e.0.t.t.t.0.e.e.0.0.0.e.e.e.e.t.t.t.t.t.e.t.t.t.t.t.t.s.d.a.d.d.a.d.d.a.d.d.s.d.g.s.g.g.d.g.g.d.d.d.d.d.j.d.d.g.d.d.d.",
"9.9.9.9.e.9.9.l.G.-.' ] ' ' ' ' ' ' ] ' ' ' ' ' ` m z t w.9.0.e.e.e.e.e.e.e.t.t.t.t.t.0.e.w.e.e.e.e.e.e.e.t.t.e.t.t.t.t.t.s.a.a.s.d.d.d.d.g.d.d.d.g.g.d.d.g.g.d.g.g.g.g.g.d.d.d.d.d.j.i.d.d.d.",
"w.9.9.9.9.9.9.r._ x 4 4 4 4 4 4 4 4 4 4 4 4 4 4 4 4 t ..e.0.0.e.e.t.p.e.t.e.t.t.t.t.t.e.e.w.e.e.0.y.t.t.t.0.t.t.t.t.t.t.t.s.a.i.d.d.d.d.d.d.d.g.d.g.d.g.g.d.d.d.g.g.g.g.d.d.s.d.i.d.i.i.g.d.g.",
"9.9.9.9.9.2.9.2.e.9.9.w.w.w.e.e.e.e.e.w.e.e.e.e.0.e.e.9.w.e.e.e.e.t.t.t.t.0.t.t.t.t.t.0.e.0.e.e.e.e.t.t.t.t.t.t.y.s.s.t.s.s.t.d.d.d.g.g.g.g.g.g.g.g.g.g.d.g.d.g.g.g.g.g.g.d.d.d.i.d.d.g.d.d.d.",
"9.9.9.9.9.9.9.9.9.9.9.9.0.0.9.0.e.e.e.e.e.e.t.r.e.t.e.e.e.9.e.0.t.t.t.t.t.t.t.t.e.t.e.t.t.e.t.e.t.t.t.t.t.t.t.s.t.t.s.a.t.i.s.d.g.d.g.d.g.g.g.g.g.d.g.d.g.g.d.g.g.g.d.d.d.d.d.s.i.g.d.d.g.d.g.",
"9.9.9.9.9.9.9.9.9.9.9.9.9.9.w.e.w.e.e.e.e.e.t.e.e.t.t.w.w.e.e.t.t.t.t.t.t.t.t.e.t.t.t.t.t.t.e.t.t.t.e.y.t.p.t.p.i.i.i.s.s.s.d.g.g.g.g.g.g.j.k.g.g.g.g.d.d.g.d.g.d.g.d.d.g.d.d.d.d.d.d.g.d.d.i.",
"9.9.9.9.9.2.9.9.7.2.<.9.9.9.0.w.0.0.w.e.e.e.t.t.t.e.e.e.e.e.r.t.t.t.t.t.t.e.t.t.t.t.e.t.t.t.y.y.t.t.y.t.t.p.i.i.d.d.i.d.i.i.d.g.d.g.j.j.j.g.g.g.g.g.g.g.g.g.g.d.d.d.d.d.d.d.d.d.g.d.d.d.g.g.g.",
"9.9.9.9.7.7.9.7.7.7.<.9.9.9.9.9.0.w.e.e.0.t.e.t.t.e.t.e.e.e.t.t.t.t.t.t.t.t.t.t.t.t.e.t.a.t.t.i.a.s.s.s.s.t.i.s.d.d.g.d.d.d.d.g.g.d.g.j.j.j.j.g.j.j.g.g.g.a.g.a.d.g.g.g.a.d.i.d.g.d.d.d.d.g.g.",
"9.1.9.7.9.<.9.9.7.2.9.7.9.9.9.w.0.0.0.e.t.0.t.t.t.t.t.t.t.t.t.t.t.t.a.t.t.t.t.t.r.r.a.t.p.y.s.a.d.s.s.s.s.a.i.s.d.g.d.d.d.g.g.g.g.g.g.g.j.j.j.j.j.j.j.g.g.d.d.g.d.a.a.a.d.d.g.y.d.i.g.g.g.g.g.",
"9.9.9.9.1.7.7.<.<.9.9.<.<.9.9.9.0.0.0.e.0.e.e.t.e.t.t.t.t.t.t.t.t.t.t.t.t.t.t.t.t.t.t.t.a.a.a.d.d.a.g.d.a.s.i.a.a.d.d.d.d.d.d.g.g.g.g.g.g.j.j.j.j.j.j.g.g.g.g.g.d.d.d.d.g.d.y.y.d.g.d.d.g.g.g."
};
