/* XPM */
static char *checkbox_hilitechecked_small[] = {
/* columns rows colors chars-per-pixel */
"95 35 242 2",
"   c #0A8B1E5E1CDD",
".  c #0AEB23641DBE",
"X  c #0C2D29CA1A1A",
"o  c #0F9021A218D9",
"O  c #0FD02B6B1A1A",
"+  c #13D437B81E9F",
"@  c #0CE21B8625D0",
"#  c #0E391D5E2CED",
"$  c #0D0D21E22262",
"%  c #16D73CBD1FE0",
"&  c #121221A234B5",
"*  c #1192248F3A0F",
"=  c #0D054A770202",
"-  c #0EEF543402C3",
";  c #135453F40E6F",
":  c #13536D9002C9",
">  c #141571F202C3",
",  c #15967F7F0283",
"<  c #19DA70300C8D",
"1  c #191946C73D7D",
"2  c #1EFF61E22666",
"3  c #1F5F63A32B6B",
"4  c #222266E72BEC",
"5  c #25A67E7E2DAE",
"6  c #26A774742FB0",
"7  c #28E9717131F2",
"8  c #15A62AAB4595",
"9  c #16562DEE48C9",
"0  c #189936764787",
"q  c #175731314F0F",
"w  c #195A30864C62",
"e  c #1A2233335323",
"r  c #1CDD36B75A5A",
"t  c #1E9F39795CDD",
"y  c #1E493BE66323",
"u  c #20FD3D62633F",
"i  c #23083F086AF4",
"p  c #27A83EFF6D2D",
"a  c #1CDD46C74404",
"s  c #1D9E53334282",
"d  c #1C9D430355D6",
"f  c #21A253134606",
"g  c #21615DDE41C2",
"h  c #1E9842FC6AA4",
"j  c #22A3422D653A",
"k  c #221841E26B58",
"l  c #299445056CED",
"z  c #2D2D4ACB6DAD",
"x  c #30B148086CED",
"c  c #23F445B67323",
"v  c #24CF4C0C7676",
"b  c #252A4D447AE8",
"n  c #293B4D7C7A80",
"m  c #33D44D6E74F5",
"M  c #32724ECF7838",
"N  c #25C650917BFC",
"B  c #3A7A5B9B70B0",
"V  c #3A7B53D47A39",
"C  c #3F7F5D5D7878",
"Z  c #3D7D7A7A66E7",
"A  c #41815A9A7DFE",
"S  c #41C272F36969",
"D  c #448467E87AFB",
"F  c #160C814B027E",
"G  c #199A96160283",
"H  c #1B1B9F5F02C3",
"J  c #1BEFA3900356",
"K  c #2060B5750586",
"L  c #2020BEBE0303",
"P  c #2B2B86062DAE",
"I  c #333386863939",
"U  c #2BACA1212060",
"Y  c #3CFDA1E13EBF",
"T  c #35F6B3B33272",
"R  c #3D7DBC7C3737",
"E  c #3E7EBC3C3B3B",
"W  c #2335CF8A03AD",
"Q  c #25A6CFCF0788",
"!  c #23CFD4D40376",
"~  c #2574DB23044A",
"^  c #27A8D3530A0A",
"/  c #2987DB2C0A6D",
"(  c #2F3CDB0D1448",
")  c #30E1DAEA1697",
"_  c #34D5DC3C1D9E",
"`  c #270FE39B0404",
"'  c #27F5E5F20449",
"]  c #2868EC2B0404",
"[  c #2BACE0E00C2D",
"{  c #295FF3A4044E",
"}  c #2D2DF2F20949",
"|  c #36B7E1611D1D",
" . c #39BACDCD2AEB",
".. c #3722DADA210C",
"X. c #3D0DD9992B3B",
"o. c #3F3FD6152FF0",
"O. c #3F3FF3F32363",
"+. c #41C2D9592EEF",
"@. c #4040D5143272",
"#. c #43AED8D83449",
"$. c #44E5D9DA3959",
"%. c #4909D8983E7E",
"&. c #4000E3632C6C",
"*. c #33F483C34C0C",
"=. c #373795554A4A",
"-. c #3E7EADED48C9",
";. c #33B48F4F7939",
":. c #36F7B9F970F1",
">. c #4343ACAC4A8A",
",. c #44C5BCFC4989",
"<. c #4B8CA9EA5D9E",
"1. c #5A5A87877F7F",
"2. c #3969C2D66C7C",
"3. c #3DAECC6C6D9D",
"4. c #4444C58543C4",
"5. c #4888C7064787",
"6. c #4787CCCC4202",
"7. c #4C4CCD8D4606",
"8. c #4BECC9494E2E",
"9. c #5010D3934C0C",
"0. c #57D8DE1D4E0E",
"q. c #49CAC6C65717",
"w. c #414ECF0F6E6E",
"e. c #5E1EC84863A3",
"r. c #4101D1D16DEE",
"t. c #4141CC8C71F2",
"y. c #44A5D1B170B1",
"u. c #64E5CD2D6A6A",
"i. c #6EEFC5047878",
"p. c #2727549481C1",
"a. c #29CA577783C4",
"s. c #252559198181",
"d. c #2D2D595985C5",
"f. c #2E995E738C8C",
"g. c #29EA612184C4",
"h. c #2C8D60818CED",
"j. c #2DAD63CE9312",
"k. c #2EAF682897D7",
"l. c #2F0F6E2E9A9A",
"z. c #315167079313",
"x. c #32F36C5F9C9C",
"c. c #2F6F71B19E1E",
"v. c #33D473939E7E",
"b. c #3B2673C99F1E",
"n. c #2E5975A0A9FF",
"m. c #2D6D7939AA2A",
"M. c #34F57595A121",
"N. c #39E473F3A3A3",
"B. c #3D7D79B9A6A6",
"V. c #37B875F6A929",
"C. c #33F47A1AAB3B",
"Z. c #3A5B7CCDACCC",
"A. c #3C7C7E3EB272",
"S. c #42C35E1E82C2",
"D. c #48E962228423",
"F. c #4F8F68A88808",
"G. c #52BD6C578AA0",
"H. c #50D170708D0D",
"J. c #55556EEF9010",
"K. c #59DA72F39090",
"L. c #67677ABA9656",
"P. c #65257B7B9898",
"I. c #68A87F3F9C9C",
"U. c #418177B7A525",
"Y. c #41417CBCA969",
"T. c #3D1D8282B272",
"R. c #34B58ACABBFB",
"E. c #3C928AE0BB90",
"W. c #3EFF9010BF7F",
"Q. c #41C29A1A9BDB",
"!. c #5454BBFB9E9E",
"~. c #7272BCBC8040",
"^. c #7C91B37393BE",
"/. c #7DFEB9799595",
"(. c #424282C2ADED",
"). c #44848787B232",
"_. c #49098707B2F2",
"`. c #48C98F0EBE68",
"'. c #754A89B4A40E",
"]. c #79198CADA303",
"[. c #7C7C9A85A54F",
"{. c #7AFB9353ABEC",
"}. c #4FD0BB7BA0E0",
"|. c #76F7B636ABEB",
" X c #4C8CCB0A8202",
".X c #7272C6468181",
"XX c #7A3AC3838181",
"oX c #7676D35383C3",
"OX c #2B058EB5CA56",
"+X c #3AAB8CACC2C3",
"@X c #2DC69166CCB1",
"#X c #38789212C807",
"$X c #345394BACE31",
"%X c #389B967ECEF3",
"&X c #3BD39953CF3E",
"*X c #36C09603D0BE",
"=X c #39E096CED09C",
"-X c #3CEB9A2FD15C",
";X c #46319413C51A",
":X c #4A609595C6B1",
">X c #4F8F9858C787",
",X c #40409797CBCB",
"<X c #4B4B9656C848",
"1X c #422D9D07CEE3",
"2X c #4DCE9DDECD4D",
"3X c #50D19616C949",
"4X c #50D198D8C908",
"5X c #43C39D0DD2CD",
"6X c #48DD9F20D3F6",
"7X c #50509F9FD2D2",
"8X c #54D5A262CFCF",
"9X c #4707A147D4AE",
"0X c #4BF6A20BD516",
"qX c #4E0EA423D898",
"wX c #52B0A511D6DB",
"eX c #57D8A7A7D797",
"rX c #55BDA88CD763",
"tX c #5959A98CD797",
"yX c #5432A699D89D",
"uX c #59E3A742D9F5",
"iX c #560EA8B1D8D9",
"pX c #5C13AAE1D9FA",
"aX c #66A6A7A7D00F",
"sX c #7DFEAA6ACA8A",
"dX c #629CADFEDBDF",
"fX c #6828AF6FDB5B",
"gX c #66CDB0C9DCFD",
"hX c #6BD3B312DE27",
"jX c #7103B613DF2C",
"kX c #74C1B8B8DF45",
"lX c #6E79B535E0AB",
"zX c #7256B6C1E0C2",
"xX c #7606B94FE193",
"cX c #7878B9B9E1E1",
"vX c #84449BDBA727",
"bX c #85A59939AB2B",
"nX c #8282A1E1A020",
"mX c #8545A3A3ABAB",
"MX c #8707B030A262",
"NX c #8E0EA1E1B737",
"BX c #9252A5E6BC1C",
"VX c #8EAFAC4CC686",
/* pixels */
"wX0X0X0X6X6X6X6X5X5X5X5X5X5X-X&X-X-X&X%X=X=X=X=X%X-X=X&X5X_.&X-X$X$X$X$X&X%X$X$X*X%X$X$X%X%X&X&X=X&X-X-X5X5X5X6X6X6X6X6X6X6X5X6X0X0X0XwXwXwXwXrXtXtXtXpXtXpXpXpXpXuXpXtXpXpXpXdXpXdXdXdXdXdXgX",
"wX0XwX0X0X6X6X0X6X6X5X5X5X5X5X5X5X5X5X5X-X-X1X5X5X-X,X7X{.z.$X&X$X&X&X%X$X$X$X&X$X$X%X%X%X$X$X&X$X-X-X-X5X5X1X5X6X5X5X5X5X6X6X6X0X0X0XwX0XyXeXrXtXpXpXpXpXpXpXpXpXuXpXuXpXpXpXpXpXdXdXdXdXgXdX",
"7XwX0X0X0X0X0X6X0X5X6X6X6X6X6X6X0X6X0X9X6X6X6X5X6X5X7XVXF.h.$X&X%X$X%X$X$X$X$X$X*X$X*X$X%X$X$X$X%X$X-X-X=X5X5X5X5X5X5X5X5X5X6X6X0X0X0XwXwXwXwXeXiXpXpXpXpXpXpXdXpXpXpXpXpXuXpXpXpXgXdXdXgXgXdX",
"wXwXwXwXwXqX0X0X0X0X0X0X0X0X0XwXyXwX0XyXwX0X0X6X6X7XVX{.y c.&X$X$X%X$X$X$X@X$X$X$X$X$X*X$X%X&X$X%X=X&X-X-X5X-X5X5X5X5X5X5X6X6X6X0X0X0X0XwXwXwXeXiXpXpXgXdXpXdXpXdXpXdXpXpXpXpXdXuXpXdXdXgXdXgX",
"wXwXwXwX6XwXwXqX0X0X0X0XwXwXyXyXtXtXrXwXqXwXwX0X6XsXNXS.e v.&X$X$X$X$X$X$X@X@X$X$X@X$X$X$X$X$X%X%X-X&X-X5X-X5X1X5X-X9X-X5X6X6X6X6X0X0XwXwXwXyXyXpXpXpXpXgXdXdXdXdXpXdXpXpXpXpXpXdXdXuXdXdXgXgX",
"wXwXwXqXwXwXwX6X0XwX0XwXwXwXiXuXpXuXtXiXyXwXwX0XaXBXI.p 9 x.&X$X$X$X$X$X$X$X$X@X$X$X$X$X=X=X%X$X*X-X-X-X-X5X-X1X5X-X5X5X6X5XqX6X0X0X0X0XwXyXyXtXiXiXpXdXdXgXgXgXfXfXdXdXdXpXpXdXgXuXdXgXgXgXgX",
"wXwXyXwXwXwXwXwXwX0X0XwXwXrXuXuXdXpXpXtXrXyXrXwXBX'.S.y 9 g.&X$X@X$X@X$X$X$X$X$X@X$X$X$X$X-X%X%X%X=X%X-X5X5X-X1X5X-X5X5X5X6X6X6X6X6X0X0X0XwXyXyXiXtXpXpXdXdXgXdXgXdXdXpXpXdXdXpXdXuXdXdXgXgXgX",
"wXwXwXqXwXwXwX2X!.t.3.3.3.w.w.r.w.y.y.r.r.3. X|.bXG.l u 9 k &X$X$X@X$X$X$X$X$X@X$X$X$X$X$X$X$X%X=X=X&X-X-X5X1X5X5X5X5X-X9X5X6X6X0X0X0X0X0X0XwXyXpXpXpXdXdXdXdXdXdXfXdXdXdXpXdXdXdXdXdXgXdXgXgX",
"wXwXwX0X0XwX0X!.O.{ { { { { { { { { { { { { 0.MXP.M y e & * #X$X$X$X@X$X$X$X$X@X@X$X$X$X$X%X=X=X=X%X&X-X5X5X5X5X5X5X5X5X5X5X9X9X0X0X5X0X0X0X0XyXiXpXpXlXpXgXpXgXpXdXpXdXpXdXdXdXdXgXdXgXgXgXhX",
"wXyX0X0X0X0XwXw.{ ] ' ' ` ' ` ` ' ' ` ` ] X.~.].S.u q @ $ N $X$X@X$X$X$X$X$X$X$X$X$X$X$X$X%X=X&X-X=X5X-X-X-X5X5X5X5X5X5X9X5X9X9X9X0X0X6X0X0XyXyXpXpXpXpXgXpXdXdXdXdXdXdXdXpXpXgXgXdXgXgXgXgXgX",
"wX0XwX0X0X2X0X2.' ` ~ ! ~ ~ ~ / ~ ~ ~ ~ ( e.nXK.l e $ X m.$X@X@X@X@X@X$X$X$X$X$X%X$X$X#X%X%X%X&X-X5X-X5X5X5X5X5X5X5X5X5X5X5X6X9X5X0X0X0X0X0XwXyXpXpXpXdXpXgXdXpXpXdXpXdXdXdXpXdXdXgXgXgXgXgXgX",
"wXyX0X0X0X6X0X2.' ` ~ ~ ~ / X.5.X./ ~ ` %.^.'.V r # O 2 $X$XOXOX@X@X@X$X$X@X$X$X$X=X$X=X=X%X-X&X-X5X5X5X5X5X5X5X6X6X5X6X6X9X6X6X0X0X0X0X0XyXwXyXiXpXpXpXdXpXpXdXpXdXdXpXpXdXdXdXdXdXgXgXgXhXhX",
"wXwX6X0X6X6X0X2.' ' ~ ~ / o.i.1.q./ / | i.bXJ.t & X P < @X@X@X@X$XOX@X$X@X$X$X$X=X$X*X*X-X&X-X5X5X5X5X5X5X5X5X5X6X6X6X5X6X5X6X6X0X0X0X0XqXwXyXyXqXpXpXpXdXdXdXdXfXpXdXdXdXdXdXdXdXgXgXgXgXlXhX",
"wX0X0X0XqX6X0X:.' ~ ~ [ #.XXvXB =.) ~ 6.^.'.m 8   I U : OXOX@X@XOX$X@X$X*X$X$Xn.i f.*X+Xh b -X-Xk.k k C.6X5Xp.i k k c C.qXp.i p j d.;XwXwXwXyXyXiXpXpXpXdXdXdXdXdXdXpXdXdXdXdXdXdXdXdXgXgXlXhX",
"wX7X0X0X0X0XwX2.' [ +.e.MX[.G.u g o.) u.bXG.q @ 4 @.J < OX@X@X@X*X*X@X$X$X$X$Xn.i f.*X+Xh b 1X1Xb c k d.6X6Xb k x.x.i c 6Xb i x.f.i a.wXqXyXyXyXiXiXpXpXpXdXpXdXdXdXdXpXdXdXdXdXdXdXgXgXlXlXhX",
"wXwXwX0X0X0X6X2.' | <.S B M k u d -.#.MX].l # + %./ J : @X@X@X@X@X*X*X$X*X$X*Xn.i b a.a.k b -XE.k f.p.h ;X6Xb y ).B.i n yXn i ,XqXc h 2XqXwXyXyXyXiXiXpXpXdXpXdXdXfXdXgXdXgXdXgXgXgXlXlXlXlXlX",
"wXwXwX6XwX6X0X2.' ` ..T 1 q t j u Z oXmXH.8 . >.( ! J : @X@X@X$X$X$X%X$X%X$X*Xm.k k n v i b 5Xl.k z.k.k N.0Xb h k k n `.wXn h 3XwXN h <XwXqXwXwXwXeXtXtXpXdXdXdXdXdXdXgXdXdXgXdXfXhXfXjXhXjXjX",
"yXqXwX6XwX0X0X2.' ~ ~ / 6.1 q u c D [.P.j $ 7 X.~ ! J > $X@X$X$X=X*X%X%X%X%X%Xm.h j.-XR.h b 5Xb i k k i p.0Xn j `.b k (.iXN c 4X:Xk k wXqXwXwXwXwXtXtXtXuXpXdXdXgXfXdXdXgXgXgXgXfXhXfXfXjXhXjX",
"yXyXwXwXyX0X0X2.' ` ~ ! ( 8.f w u V D.z & + 7./ ~ ! J : $X$X$X$X*X-X=X=X%X*X-XC.p j.&X;Xk b E.h v A.Z.v k ;Xv h <X_.k n 8Xn i k j k N.wXqX0XwXwXyXrXpXtXpXdXdXdXdXdXdXgXgXgXfXgXhXhXhXfXfXjXhX",
"yXyXyXwXwXqX7X2.` ` ~ ~ ~ ( 8.s r j j 8   -.) ~ ! ! J : &X&X&X&X&X%X%X%X=X&X&XR.x.Z.5X&Xx.V.E.N.A.7X6XT.N.E.B.b.0XwXB.v.4XY.N.M.U.`.rXyXyXeXwXeXiXpXpXpXpXpXdXdXpXdXdXgXgXgXhXgXhXfXhXhXjXfXzX",
"yXyXwXwXwXwX2X2.' ` ~ ~ ~ ~ ( ,.a r e # 4 o.~ ~ ~ ! J : -X&X&X&X-X$X&X&X&X-X-X&X5X-X5X5X6X6X0X6X0X0X0XwXwXwXeXwXuXiXiXiXuXuXpXyXuXuXuXyXyXiXrXuXpXpXpXpXgXpXdXpXpXpXfXdXfXhXhXgXhXhXlXhXfXjXhX",
"rXyXyXyX0X0X0X2.' ` ~ ~ ~ ~ ~ _ <.0 & X R / ~ ~ ~ ! J : -X-X-X-X-X-X-X-X-X-X5X5X5X5X5X0X5X6X0X0X0XwX0XqXqXyXyXyXyXrXtXpXpXuXtXtXuXrXtXuXuXpXuXpXpXuXpXpXdXdXdXdXdXdXpXlXhXhXhXlXlXhXlXhXjXhXfX",
"eXyXyXyXwXqXwX2.' ~ ~ ~ ~ ~ ~ ~ @.*.$ 6 ..~ ~ ~ ~ ! J > 1X-X&X-X&X-X-X5X5X5X5X5X5X5X5X6X0X0X0X0XwXwXyXwXyXyXyXeXyXuXpXpXpXiXtXpXpXpXpXuXpXpXpXpXpXpXdXdXdXpXgXdXpXdXdXfXgXhXhXhXhXlXjXjXjXfXhX",
"tXyXyXyXwXwX0X2.' ~ ~ ~ ~ ~ ! ~ / 9.2 R / ~ ! ~ ~ ! J : 5X5X-X&X-X&X5X5X5X9X5X5X6X5X6X0X6X6XwXwXwXwXwXyXyXyXyXyXuXpXpXpXuXpXpXpXpXuXiXpXpXpXpXpXpXpXpXdXdXgXdXdXgXdXdXlXfXhXhXhXzXzXzXzXjXjXjX",
"eXeXyXeXyXqX0X2.' ~ ~ ~ ~ ~ ~ ~ ~ )  ._ ~ ! ~ ! ~ ! H : -X5X5X5X5X5X5X5X0X5X9X5X9X9X6X0X0X0XwXwXwXyXyXyXiXiXtXtXuXtXpXpXtXpXpXtXpXpXpXpXpXpXpXdXdXpXdXdXgXdXgXgXgXgXgXhXfXgXhXhXjXjXzXjXzXjXlX",
"yXyXwXwXwX0X7X2.` ~ W ! W W W W W W Q W W ! W W W L F - 5X5X5X5X5X5X0X5X0X0X9X0X5X2X0X0X0X0XwXwXyXrXrXiXiXtXpXpXpXpXpXpXdXpXpXdXpXpXuXpXpXdXdXpXdXfXfXhXgXgXgXhXhXhXhXhXgXhXhXhXjXjXzXzXjXzXzX",
"eXeXwXwX0X0X0X:.K G , , F F F F F F , F F F F F , : = ; 1X5X5X5X0X5X6X6X0X0X0X0X0X0X0X0X0XwXrXyXtXtXiXpXpXpXtXpXpXpXpXpXpXdXdXpXdXpXdXpXdXdXgXgXgXhXhXhXhXhXhXhXhXhXhXhXhXhXhXhXjXjXzXzXzXzXzX",
"wXyXwX0X7XqX0XQ.5 - = = = = = = = = = = = = = = = = ; ;.0X6X6X6X5X0X0X0X0X6X0X0X0X0X0X0XyXyXiXyXiXtXtXpXpXpXpXtXpXpXdXpXpXpXpXdXpXdXdXpXdXgXgXgXgXhXhXhXjXlXkXjXhXhXhXhXhXhXhXhXhXlXjXzXxXzXxX",
"wXwXwX0X0XwX0X0X6X0X1X0X1X6X1X0X5X0X6X0XwXwX0X8X0XwXwX0X2X9X6X6X9X0X0X0X0X0X0X0X0XwX0X0XyXiXiXiXiXpXpXdXpXdXdXdXpXpXpXpXpXpXdXdXgXgXgXgXgXgXhXhXhXjXjXxXxXzXxXhXhXzXjXhXhXhXlXhXhXlXjXzXxXxXxX",
"qXwX0XwX0X7X0XqX0X0X0X9X0X0X6X5X0X0XwX0XwXwXwXwX0XwXwX0X0X0X6XwX0XwX0X0X0X9X0X0XqXqXwXwXyXiXiXiXpXpXpXdXpXdXdXpXdXpXdXpXpXdXdXdXdXgXdXgXgXgXlXhXjXjXkXxXcXxXxXlXjXkXhXjXjXlXhXhXlXjXjXxXxXxXxX",
"wXwXqXwXwX0XwX0X0X0X0X0X5X0X1X0X0X0X0X0XwXyXyXyXyXyXyXwXwX0XwX0XwXwX0XwXwX0XqXqXwXwXyXyXyXiXiXpXtXpXpXdXdXdXdXdXdXdXtXdXpXpXdXdXgXgXgXgXgXhXhXhXzXxXxXcXcXcXxXkXxXzXhXjXhXlXjXzXlXzXzXxXzXxXxX",
"wXwXwXwXeXwXqXwX0X0X0X9X0X0X0XwX0XwXyXyXwXyXtXrXeXyXyXyXwX0XwXwXwXyXyXwXwXwXwXwXwXrXrXrXiXuXiXpXpXdXdXpXdXpXdXdXpXdXdXdXdXdXdXfXgXgXgXgXhXhXhXxXhXxXxXxXxXxXcXxXkXxXzXjXxXhXjXzXzXzXxXxXcXxXxX",
"yXyXyXyXyXyXeX0XwX0X0X0XqX0XqXqXqXyXyXyXiXiXuXpXpXrXiXiXyXyXwXyXwXyXyXyXyXyXyXyXyXiXiXiXpXpXpXuXpXgXpXpXdXdXdXpXdXdXpXgXdXdXpXgXdXgXgXgXhXhXjXjXkXkXzXxXcXcXcXcXcXcXxXlXkXxXhXxXcXxXxXcXxXxXzX",
"yXyXeXyXyXwXwXwX0X0X0XqXwXwXyXwXrXyXiXiXpXiXpXpXpXpXpXtXrXrXyXrXyXyXeXrXyXwXyXyXtXuXpXiXpXiXpXpXpXpXdXpXpXdXpXdXpXdXdXdXdXdXdXgXfXfXhXhXhXhXhXjXhXkXjXxXxXcXcXcXcXcXxXxXhXxXxXxXcXcXcXcXxXxXlX",
"eXtXtXyXtXrXyXyXwXwXwXwXwXyXrXyXrXpXpXpXpXpXpXpXpXpXuXpXiXrXyXyXyXrXrXeXeXyXeXtXuXuXrXtXpXrXuXpXpXpXpXgXdXpXdXpXdXdXgXdXgXdXgXgXhXhXhXhXkXjXkXkXkXkXxXxXcXcXcXcXcXcXcXcXxXzXxXxXxXcXxXxXxXxXxX"
};
