/* XPM */
static char *checkbox_hilite_small[] = {
/* columns rows colors chars-per-pixel */
"95 35 108 2",
"   c #0D014A1E0226",
".  c #0E4E52BD0202",
"X  c #14D551D21717",
"o  c #12F76E200202",
"O  c #13D473F40202",
"+  c #15967EBE0283",
"@  c #1C1C55952565",
"#  c #23C43EE76ACB",
"$  c #1ED741B26A72",
"%  c #20A1440465A5",
"&  c #227241706BEE",
"*  c #27A840C16BAB",
"=  c #242444C571B1",
"-  c #23434A7A7505",
";  c #28484A2A75F6",
":  c #26264E3E7A6A",
">  c #27E84C0C7AFA",
",  c #24A553137E7E",
"<  c #2A9551FC7DD3",
"1  c #160581B5027F",
"2  c #19DA965602C3",
"3  c #1B9C9EC9041A",
"4  c #1B7BA1A602FE",
"5  c #1D9EACAC0303",
"6  c #1EDFB7370303",
"7  c #24A5B3330D8E",
"8  c #28A9818135F6",
"9  c #21A2C7C70343",
"0  c #22F8CEDB0377",
"q  c #23D4D561037C",
"w  c #252DDB020401",
"e  c #26FDE3220404",
"r  c #27C6E6440404",
"t  c #2929ECEC051A",
"y  c #292DF2EA042B",
"u  c #2C6CF6F607C8",
"i  c #2EAFE4E40FD0",
"p  c #49CAF7F72F6F",
"a  c #3ABBB9794505",
"s  c #37F8BFBF6D2D",
"d  c #3D3DB4B47C7C",
"f  c #35B6C3086B10",
"g  c #385FC2CF6BD2",
"h  c #354AC91E6A55",
"j  c #3CEDCCCC6D2D",
"k  c #3B3BCA6A7292",
"l  c #40A7CF286E47",
"z  c #40C1D1516EEF",
"x  c #4505C0C07DBD",
"c  c #40C1D1516FF0",
"v  c #2A0A55358282",
"b  c #27675B9B84C4",
"n  c #2D185A708545",
"m  c #2D875BF58B0B",
"M  c #31315D5D8A0A",
"N  c #32F363238D4D",
"B  c #29EA63239111",
"V  c #318262C39323",
"C  c #31416A2A9686",
"Z  c #31B267A79858",
"A  c #31CA6D559DE5",
"S  c #3B7B6BAB9818",
"D  c #338071249E04",
"F  c #3AA5725D9F49",
"G  c #35B670F1A0A0",
"H  c #3A217427A0E1",
"J  c #3CBD77F8A7A7",
"K  c #35F677B7ACAC",
"L  c #33137ABBACEC",
"P  c #3AF07C92AC36",
"I  c #2EAF88088000",
"U  c #3D7D80C0AE6E",
"Y  c #3E29859AB5CA",
"T  c #3D7D8B4BBF3F",
"R  c #5272B6D69B9C",
"E  c #43839D5DAEAE",
"W  c #42988343B2B2",
"Q  c #46868B4BB737",
"!  c #43B78C65BBFB",
"~  c #49CA8ECFBD7D",
"^  c #4A0AA2E2AE6E",
"/  c #3B3B9ADAC201",
"(  c #3D3A9A43CF98",
")  c #3A3A9797D0D0",
"_  c #3D9C9AB5D0FF",
"`  c #43038F8FC080",
"'  c #46B194FFC630",
"]  c #4ACB9111C0C0",
"[  c #49099696CB0A",
"{  c #41AA9A7ACF7F",
"}  c #4B659C42CD40",
"|  c #43E99D50D2B2",
" . c #48D69EE4D42F",
".. c #4D0DA2E2CFCF",
"X. c #466CA0C7D3EE",
"o. c #4BCAA1F3D52C",
"O. c #4E08A3FDD8C5",
"+. c #5245A4E5D6CC",
"@. c #5858A5A5D817",
"#. c #55F6A890D74F",
"$. c #59DDA99ED78B",
"%. c #5546A686D8CB",
"&. c #59BAA767D999",
"*. c #566AA8F4D8DF",
"=. c #5CC0AAF8DA02",
"-. c #629DADEDDBCA",
";. c #66ADB0C2DCEE",
":. c #6A21B28DDDCB",
/* pixels */
"( _ _ ( _ ( _ _ _ | | | | | | _ | | X.X. .o.o.o.o.o.o.o.o.%.+.%.o.o.o.O.o.+.o.o.o.O. .+. .+.+.o.o.o.o.+.o.+.o.+. .o.+.+.o.+.+.+.+.#.#.#.*.*.*.*.=.=.-.-.-.;.;.:.;.:.:.:.:.:.:.:.:.:.:.:.:.:.:.",
"_ _ ) ( _ _ _ _ ( | { ( | | | |  .X. .X.X.o.o.o.o.o.o.o.O.%.o.%.o.X.| o.o.o.o.o.o.o.o.o.o.+.o.+.o.o.o.o.o.o.+.+...+.+.+.+.+.+.+.+.#.@.#.=.=.$.=.-.=.=.-.-.;.;.:.;.;.:.:.:.:.:.:.:.:.:.:.:.:.:.",
"_ _ _ _ _ _ _ _ ( ( ( | | | | | X.X.X.o.o.o.o.o.o.o.o.o.o.%.o.O.o.| o. .o.o.o. .X.X.X.o.o.o.o.o.o. .o.o.o.+.o.O.+. .o.o. .+. .+.+.%.%.@.*.=.=.-.=.-.-.-.-.;.:.-.;.:.:.:.:.:.:.:.:.:.:.:.:.:.:.",
"| | _ _ { ( ( { _ | | ( _ | | | X.X.o.o.o.o.+.o.+.o.o.+.+.%.o.o.o.o.o.X.| X.|  . . .X. . .o.o.o.o.o.o.o.o.O.o.o. .+.o.o.o. .+.+.+.%.%.%.*.=.=.=.-.=.-.-.;.:.-.;.;.;.;.:.:.:.:.:.:.:.:.:.:.:.:.",
"| | | _ _ | ( ( _ { | ( | | | | o.o.o.O.O.#.#.O.o.%.+.+.+.o.o.o.o.o.X.o. .| { X.| | |  .| o.X.o.X. . .o.o.o.o.o.o.o.o.X.+.o.o.o.+.+.%.%.&.=.=.=.=.-.-.-.-.-.;.;.:.:.:.:.:.:.:.:.:.:.:.:.:.:.:.",
"| | | _ ( _ { | | ( | | | _ | | o.+.%.#.#.o.#.%.+.+.%.%.+.+.o.o.o. .o. .X.{ ( | | | | X. .o. . . . .X.X.o.o.o.o.o.o.o.} } o.o.o.+.+.+.%.%.=.=.=.=.=.-.-.-.;.;.;.:.:.:.:.:.:.:.:.:.:.:.:.;.:.:.",
"X.| | _ | ( ( { | | | _ | | |  .+.+.*.*.%.*.*.%.%.#.%.%.#.o.o.o.o.o.o.o.| | | ( _ | | |  .O. . .| |  . .O.o.o.o.o.o.o.o.o. .o.o.o.+.+.%.&.%.*.=.=.=.-.-.-.;.:.;.:.:.:.:.:.:.:.:.:.:.:.:.:.:.;.",
"X.X.| | | | { / R k h f h h h h j z j z c j j j z l x ^ +.o.o.o. .+.o.o.| | _ ( _ | | | X.|  .| | | | X.o.O.o.o.o.X.o. .o. .o.o.o.o.+.+.%.*.%.$.*.=.=.-.;.;.:.:.:.:.:.:.:.:.:.:.:.:.:.;.:.;.;.",
" .| | | | | | R p y y y y y y y y y y y y y y y y t i a +.#.o.o.+.o.o. .| _ ( | ( | | | | |  . .X.| |  .O. . .o.o.o.o.o.o.o.o.o.o.o.o.+.+.+.#.%.#.=.=.-.-.:.:.:.:.:.:.:.:.:.:.:.:.:.:.:.;.;.-.",
"X. .X. .X._  .k t t r e r r e r e e e e r e e e r e 9 3 %.%.%.o.o.o.| | | _ _ ( { | | _ {  .|  .| | | o.|  . .o.o.o.o.o.o.+.o.o.o.o.o.o.o.+.+.+.#.*.=.=.-.-.-.-.:.:.:.:.:.:.:.:.:.:.:.:.;.;.-.",
" . . . . . .| f r r w w w q w w w w w w w w w w w q 5 O +.#.+.+. .| | _ _ _ ( _ _ | | | | | | |  .| o.| X. . .o.O.o.+.o.+.o.o.o.X.o.o. .o.+.+.#.@.$.=.-.-.-.:.:.:.:.:.:.:.:.:.:.:.:.:.:.;.-.-.",
"X.|  .X. .X. .f r w w w w w w w w w w w w w w w w q 4 O #.%.#.+.| | { _ _ { ( | | _ | _ | |  .| o.| | | | | | X. .o.o.+.o.+.+.o.o.} o.o.+.o.+.+.#.#.$.-.-.-.-.:.:.:.:.:.:.:.:.:.:.:.:.:.;.-.-.",
" .| o. . .X.X.f r e w w w w w w w w w w w w w w w q 3 o +.%.+.o.| | ) ) ( ( ( _ | | | | | | | X. . .| |  .X.} ' [ o.+.o.+.o.o.+.+. .+. .+.o.o.+.*.#.*.=.-.-.-.;.:.:.:.:.:.:.:.:.:.:.:.:.:.:.-.",
"o.o.X.o.o.|  .f r w w w w w w w w w w w w w w w w q 4 o #.+.o.o.{ _ ) ) ( _ _ P $ $ & & & | X.C & & P X.o.P - & & n +.V # F *.D & V ..o. .o. .+.+.*.#.=.=.-.-.;.:.:.:.:.:.:.:.:.:.:.:.:.;.;.-.",
"X.o.o.o.o. .| f r w w w w w w w w w w w w w w w w q 4 O +.+.o.| _ ( ) ) ) _ ) K # : A A A | | , = $ m o.o.& & ! m < ! } - = Q & > } o.o.o.o.o.+.%.%.$.*.*.-.-.-.:.:.:.:.:.:.:.:.:.:.:.:.;.-.-.",
"o.o.X.X.o.| | f r e w w w w w w w w w w w w w w w q 3 o o.o. .| _ ) ) _ _ ( _ L $ - n b C X.` & B v # ' o., # < V Y +.o.W & & & W +.o.o.o.o. .+.+.%.*.*.=.=.-.-.:.:.:.:.:.:.:.:.:.:.:.:.-.-.;.",
"o. .o. .X.| | f r e w w w w w w w w w w w w w w w q 3 o X.X.| _ ( ) ( ) _ _ _ L # > v n A o.A & C C $ J %.[ C : * & Y +.o.N & M %.+.o.o.o.O.o.+.+.%.+.$.&.=.-.-.;.;.:.:.:.:.:.:.:.:.;.;.;.;.;.",
"o. . .| | | | f r w w w w w w w w w w w w w w w w q 4 O | | | | { _ | _ _ _ _ L # B |  .{ o.: % # $ # v ' N C o.F # C #.%.F & F o.+.+.+.+.+.+.+.%.%.@.$.&.=.=.-.-.;.:.:.:.:.:.:.:.:.:.;.;.;.;.",
"X.| X.X.|  .| f r e w w w w w w w w w w w w w w w q 3 o  .| | | | | _ | | _ | L & # & & & Y # ; P P ; $ ] : & M > $ ! %.%.F & F +.+.+.+.O.+.+.+.%.*.*.*.=.=.=.=.-.;.:.:.:.:.:.:.:.:.:.:.:.:.:.",
"o.| | | | | | f e e w w w w w w w w w w w w w w w q 4 O | X.| o.| | | | | | | T A G A D A Y D U o.o.U D ! } F V S ~ $.%.%.~ F Q o.%.o.+.%.+.+.%.@.*.=.*.&.=.=.-.-.-.:.:.:.:.:.:.:.:.:.:.;.;.;.",
" .|  .|  .| | g r e w q w w w w w w w w w w w w w q 3 o X. . .| | |  .| { { X.{ | X.| X.X.X.o. .O.o.+.o.+.+.+.+.+.#.#.%.*.+.%.o.+.+.+.+.O.*.%.%.#.$.#.&.#.=.=.-.=.-.-.;.;.;.:.:.:.;.:.;.;.:.;.",
"X. . . .|  . .g r w w w w w w w w w w w w w w w w q 4 o X.X. . . . .| | | | X.X.X.X.X.| X.o.o. .o.o.o.o.o.O.+.+.*.+.%.+.+.+.%.*.+.%.%.+.%.*.O.&.@.%.#.*.*.*.=.=.-.-.-.-.;.;.;.:.:.:.;.;.;.;.-.",
"o.X.X.o.X.o. .g r e w w w w w w w w w w w w w w w q 4 o o.| | | | o. . . . .X.o. . .X. .| X.X. .o.o.o.+.+.+.+.+.o.%.+.+.+.#.%.%.%.%.%.%.%.%.*.*.#.#.%.#.*.*.=.-.=.=.-.=.-.;.;.;.;.;.;.;.;.-.-.",
"| o.o.| o.X.X.g r w w w w w w w w w w w w w w w w q 4 o X.o.X.X.o.| o.|  .o.o.o. . .X. . . .o.X.o.o.o.*.+.+.+.O.+.%.+.+.+.+.+.%.#.*.#.%.%.%.*.*.$.%.#.*.*.=.=.=.-.-.=.-.-.-.-.-.;.-.-.;.-.-.=.",
"X.X.|  .X.X.X.g r w w w w w w w w w w w w w q w w q 3 o  .| o.o.X.o.o.o.o.o.o.o.o. .o.o. . .o.o.o. .} +.+.+.o.+.o.+.+.+.+.%.%.%.*.&.*.*.*.=.=.*.*.*.=.*.=.=.-.=.=.-.-.-.$.-.-.-.-.=.-.=.-.-.-.",
"X. . .X.X.X.X.f e q 0 0 0 0 0 0 0 0 0 0 0 0 0 0 0 6 1 . | o.| o.X.o.o.o.o.o.o.o.+. .+.o. . .X.X.o.o.+.+. .+.+.o.o.+.+.+.+.+.%.@.=.&.=.=.=.=.=.&.=.=.=.=.*.-.*.=.-.-.-.=.*.-.=.=.-.=.-.-.-.=.=.",
"X.|  .| | X.( R 7 2 1 1 1 1 1 1 + 1 + + 1 1 1 1 O . . X X.|  .o.o.o.O.o. .o.%.+.+.+.+. .X. . .o.o.+.+.o...+.%.+.%.+.+.+.%.#.@.$.&.=.&.-.=.=.-.=.=.-.=.=.-.-.-.-.-.-.-.-.-.=.=.=.=.-.=.-.=.-.=.",
"| | | | X.X.( E 8 .                                 X d o.| o.o.o.+.%.o.+.+.+.+.+.+.+. .o.o.o.o.o.o.+.o.o.+.o.+.+.%.+.+.+.%.#.$.&.=.=.=.=.=.=.=.-.-.=.-.-.=.*.-.=.-.-.-.-.=.$.=.$.=.=.=.=.=.=.",
"| | | | | | | _ } X. . .X.X.o. .o.o.o.o.o.o.o.o. . . . .| o.o.o.o.+.+.+.+.+.+.+.+.+.+. .o. .+. .o.+.o.+.+.+.+.+.+.+.#.%.%.#.%.$.=.=.=.=.-.-.-.-.-.-.-.=.-.=.-.-.=.-.-.-.=.=.*.=.=.=.=.=.=.=.=.",
"| | | | | | |  .|  .|  . . .X.o.o.o.o.o.o.o.+.+.O.%.X.o.o.|  .o.+.+.+.+.+.o.o.o. .+.+.+.+. .+. .+.+.+.+.+.+.%.%.$.%.%.%.#.#.*.=.=.-.-.-.-.-.-.;.-.=.=.-.-.-.=.=.-.-.=.=.-.=.$.=.@.-.=.=.=.-.=.",
"| | | | | | | _ | | | | |  .X.X. .o.X.| o.o.+.o.O.%.O.o.o. .O.O.+.+.+.+.+.+.+.+.+.+.+.o.+.+.+.+.+.+.+.+.+.%.%.*.@.$.$.#.$.*.=.-.-.-.-.-.-.-.-.-.-.-.-.-.-.=.-.=.-.=.-.=.=.-.=.=.=.=.-.=.-.=.=.",
"| | _ | _ | | | _ _ _ | _ |  .|  . .o.o.o.o.o.%.%. . .O.o.o.O.+.+.+.+.+.+.@.o.+.+.+.+.+.%.+.+.+.@.+.+.@.%.%.$.#.=.=.=.=.$.=.=.=.-.-.;.-.;.-.-.-.-.-.-.-.-.=.-.=.-.$.=.$.=.=.=.=.@.-.=.=.-.-.-.",
"| | | | | | | | _ { { | | | |  .o.o. .o. .+.+.+.+.+.o.+.+.o.+.+.%.+.+.%.O.O.@.+.+.+. .@.+.@.&.%.#.*.*.%.%.*.$.*.*.=.=.=.=.=.=.-.-.-.-.-.-.;.-.-.:.-.-.-.-.=.=.=.=.=.=.=.=.=.$.=.-.=.=.=.-.-.-.",
"| _ | | ) { ( | ( _ | _ _ _ |  . . . .o. .+.o.+.o.+.+.+.+.+.o.+.+.+.%.+.+.O.+.+.+.+.@.O.@.+.*.$.=.*.*.*.@.&.*.$.*.-.-.=.-.=.-.-.-.-.-.-.;.;.:.;.-.:.:.-.-.=.-.=.=.=.=.=.=.=.$.$.$.-.-.-.-.=.-.",
"| |  ._ { { ( { | | _ | | | | |  . . . . .+.+.o.o.+.+.+. .+.+.+.+.+.+.+.+.+.+.O.+.+.@.O.@.&.=.@.@.=.-.=.*.=.$.*.=.=.=.=.=.-.=.-.-.-.=.-.;.-.:.;.:.-.-.:.-.-.-.=.=.=.=.=.$.-.$.$.$.$.-.-.-.-.-."
};
