/* XPM */
static char *checkbox_checked_small[] = {
/* columns rows colors chars-per-pixel */
"95 35 216 2",
"   c #0D8E1B9C2CCD",
".  c #12521A5A2727",
"X  c #11521D512D61",
"o  c #13F41EDF31B2",
"O  c #191920602CAD",
"+  c #146521513222",
"@  c #1B1B292936F7",
"#  c #139424BA3B10",
"$  c #1C5D2BEC3BFC",
"%  c #15AB2A804585",
"&  c #18992C2C4707",
"*  c #15552F6F4A4A",
"=  c #18992DAE4848",
"-  c #19DA2F6F5111",
";  c #1B1432AC5235",
":  c #1D9E36B75AFB",
">  c #1D1D39FA5C9C",
",  c #2A0A39DA4D0D",
"<  c #1FA036365696",
"1  c #1E3E3C3C6373",
"2  c #1E5E3E7E6828",
"3  c #21913C8C62C2",
"4  c #23943E7669E2",
"5  c #28283DFE6D6D",
"6  c #2BAC42C35F1F",
"7  c #3EFF47475191",
"8  c #3C67496B52D2",
"9  c #1E9F440466E7",
"0  c #1E9E42DC6C46",
"q  c #23CA40C0654C",
"w  c #2BEC46066565",
"e  c #225D41C06B5B",
"r  c #2B9C45056BFC",
"t  c #1FA048486969",
"y  c #2E2E4ACB6D2D",
"u  c #30B150906E6E",
"i  c #3C7C54D568E9",
"p  c #249545B673F4",
"a  c #26194D407676",
"s  c #259D4D097A8B",
"d  c #294D4DA37B02",
"f  c #339E4E2374B4",
"g  c #25A650107D7D",
"h  c #26265A5A7D7D",
"j  c #3ADB53F47211",
"k  c #3B3B55807B10",
"l  c #3F7F58987A3A",
"z  c #40C147C85292",
"x  c #40404F4F58D9",
"c  c #434351915C5C",
"v  c #428254145FE0",
"b  c #48085F1F7434",
"n  c #42425AFB7EFF",
"m  c #4F0F5FE06F2F",
"M  c #4DCE656576F7",
"N  c #555567677434",
"B  c #561669EA77B7",
"V  c #511167E87939",
"C  c #58D36C5C7A7F",
"Z  c #2767545482C2",
"A  c #29D455C08282",
"S  c #2C4D599A84C4",
"D  c #2DFB5D5D8BD8",
"F  c #27A860E18686",
"G  c #2AAB60608A8A",
"H  c #2FF05FE08FCF",
"J  c #2CAD640493D3",
"K  c #2E4E6AAA9717",
"L  c #2EEF6E2E9BDB",
"P  c #321268C99333",
"I  c #33036C8C9B0B",
"U  c #2F6F6FF09E1E",
"Y  c #3A2573739F09",
"T  c #34F56DADA222",
"R  c #2DD974F5AA6A",
"E  c #2E4F7858AB2B",
"W  c #34747555A2D2",
"Q  c #39CF73DEA338",
"!  c #38997959A3E4",
"~  c #358B7A7AAA7F",
"^  c #3A907D27AC57",
"/  c #3A7A7E7EB151",
"(  c #42025F1F8505",
")  c #48B362E385DB",
"_  c #4F0F67A789C9",
"`  c #58586EEF8282",
"'  c #53286BAB8C4C",
"]  c #5A5A70B08181",
"[  c #565670708F4F",
"{  c #4D4D6CAC9191",
"}  c #5A9A733391B1",
"|  c #66DA7E2B8D6D",
" . c #68A87EFF8E4E",
".. c #63E47D7D9BDB",
"X. c #68A87CBC9B1B",
"o. c #3FE078B8A4A5",
"O. c #42427CBCA828",
"+. c #3CBD8242B1F2",
"@. c #37778C0CBC3C",
"#. c #3BFC8CE2BBA6",
"$. c #57D883C39FDF",
"%. c #6ACB81619313",
"&. c #626281819EBE",
"*. c #6BAB86869B5B",
"=. c #42C38343AFAF",
"-. c #44448606B111",
";. c #43638F8FBE7E",
":. c #48488E0EBC7C",
">. c #40409292BBBB",
",. c #6DEE86C6A3A3",
"<. c #76368A4AA3E3",
"1. c #78588A8AA585",
"2. c #7B7B8E4EA929",
"3. c #7C7C9191A161",
"4. c #7F7F9252A9E9",
"5. c #74B59595B373",
"6. c #2AF88F02C9FD",
"7. c #3ABB8D5DC353",
"8. c #2DD39185CCBB",
"9. c #36369212C7C7",
"0. c #346494B2CE2F",
"q. c #38D096B9CEF8",
"w. c #36369858CE4E",
"e. c #3B3E9920CF5C",
"r. c #36A095C7D099",
"t. c #39A496CFD097",
"y. c #3D059A3BD121",
"u. c #48C98F8FC040",
"i. c #45659555C606",
"p. c #4C4C9596C5A5",
"a. c #4F4F9818C787",
"s. c #4BB69A2FCC8C",
"d. c #529297D7C686",
"f. c #51119818CACA",
"g. c #43A39D01D2B9",
"h. c #48D39F43D455",
"j. c #4E4E9F9FD898",
"k. c #52529E9ED151",
"l. c #4651A0E1D332",
"z. c #4C0BA205D51D",
"x. c #4DCEA3E3D858",
"c. c #527DA4E7D6C9",
"v. c #5818A7E7D656",
"b. c #5685A897D7A2",
"n. c #5910A98FD7C2",
"m. c #544BA6B3D89D",
"M. c #58B9A6F6D991",
"N. c #5643A8CED8E2",
"B. c #5C3FAAFADA0E",
"V. c #6A2AA727CE8E",
"C. c #6294ADF5DBDB",
"Z. c #68BEAFAFDC06",
"A. c #66B9B0B5DCF2",
"S. c #6C0FB339DE3E",
"D. c #7108B5EADEE8",
"F. c #7484B8C8DF8F",
"G. c #7E7EB9F9DEDE",
"H. c #6F44B5A0E0A0",
"J. c #729AB6FBE0D1",
"K. c #75AAB951E1B1",
"L. c #7882B9C3E1E3",
"P. c #84849656ACAC",
"I. c #888898D8AC6C",
"U. c #84049E1EB303",
"Y. c #8DE39DC8B41E",
"T. c #90509F9FB4B4",
"R. c #833DA167B386",
"E. c #8282A0A0B939",
"W. c #8ECEA7A7BF3F",
"Q. c #8989A868BDFD",
"!. c #93B3A565BC3C",
"~. c #9B9BAAAABE3E",
"^. c #8404A5E5C040",
"/. c #8000AAAAC807",
"(. c #8D9DAD6DC6D7",
"). c #8A0AACACC908",
"_. c #95D5AEEEC6C6",
"`. c #8E4EB131CD0C",
"'. c #9BBCB2B3C767",
"]. c #9595B898D252",
"[. c #9A6FBC51D469",
"{. c #9ADABFBFD999",
"}. c #A2A2B939CF4F",
"|. c #A4E4BCFCD211",
" X c #83C3BF1FE3A3",
".X c #88A9BFBFE504",
"XX c #9E3EC524DEFE",
"oX c #A7A7C141D716",
"OX c #A393C5F5DDDD",
"+X c #B131C444D797",
"@X c #8580C0F6E55A",
"#X c #92D2C6C6E827",
"$X c #9697C949E767",
"%X c #99BACB0BE7E7",
"&X c #966BCAB5E87D",
"*X c #9B92CCA8E932",
"=X c #A6C6CD8DE569",
"-X c #A939CBFBE454",
";X c #AA6ACFCFE969",
":X c #AC74D337EBEF",
">X c #B070D514EEEE",
",X c #B1A7D898EFCF",
"<X c #AEF8D781F109",
"1X c #AF32D8ABF1AF",
"2X c #B0B0D7D7F1F1",
"3X c #B1DDD97AF1DF",
"4X c #BBAADE84F3DA",
"5X c #BF1FE141F3D3",
"6X c #C7C7DC1BEBAB",
"7X c #C403E01FF534",
"8X c #C20EE1BFF530",
"9X c #CBCBE4E4F4B4",
"0X c #D151E7A7F7B7",
"qX c #D615EA58F7B1",
"wX c #D5D5EB0AF8B8",
"eX c #DEDEEF6FF878",
/* pixels */
"c.z.z.z.g.z.h.g.g.g.h.g.g.g.e.e.e.e.e.q.q.q.0.q.e.t.e.e.g.-.e.q.q.q.q.w.q.q.q.0.0.q.0.q.q.w.q.q.e.y.t.g.g.g.h.g.h.h.h.h.h.h.h.h.z.x.z.c.c.m.b.b.n.B.B.B.B.B.B.M.B.B.B.B.M.B.B.B.B.C.C.B.Z.C.C.",
"c.z.c.z.z.z.h.z.h.z.g.g.g.g.g.g.g.g.g.g.y.g.g.g.g.y.g.k.5.P e.q.w.q.q.q.0.0.w.0.0.r.q.q.0.0.0.w.q.q.q.y.y.g.g.h.h.h.h.g.g.g.g.g.z.z.z.m.x.c.c.b.n.B.n.B.B.B.B.B.B.M.B.B.B.B.B.C.B.C.C.A.C.A.A.",
"c.c.z.z.z.z.z.z.h.h.z.h.g.g.g.h.h.z.z.z.h.h.h.h.h.g.k.(._ G t.0.0.q.q.0.0.0.0.0.0.0.r.r.q.q.q.q.t.q.y.y.g.t.g.g.g.g.g.g.g.h.h.h.l.z.s.c.c.c.c.c.B.B.B.B.B.B.B.B.B.n.B.B.B.B.B.B.B.A.C.C.A.C.C.",
"z.c.c.c.z.z.z.z.z.z.h.z.c.z.c.c.m.m.x.x.z.z.z.h.h.j.(.2.q I q.r.0.0.0.0.0.0.0.0.0.0.0.r.r.0.q.0.q.q.e.y.g.t.g.g.g.g.e.g.g.g.h.z.z.z.z.c.z.m.v.v.N.B.B.C.C.B.C.C.C.B.C.B.B.B.B.B.B.B.C.C.A.A.A.",
"c.c.c.c.c.c.c.j.z.z.z.z.c.c.m.m.N.b.N.c.m.c.z.z.g./.Y.) ; W w.w.0.0.0.0.6.6.0.0.0.0.0.0.r.0.0.q.t.t.e.y.g.g.g.e.g.y.g.g.g.g.z.z.z.z.z.z.z.c.M.m.N.B.B.C.C.A.C.C.C.C.C.B.C.B.B.B.B.C.C.C.C.A.A.",
"c.c.c.z.c.c.c.z.z.z.m.z.c.c.n.M.B.B.B.b.m.c.m.m.V.!...r & K e.w.0.0.0.0.r.0.8.0.0.0.8.0.0.t.q.0.t.e.y.y.g.y.g.e.g.y.g.g.g.j.h.h.g.z.c.c.m.m.m.m.m.B.B.B.C.C.C.A.C.C.C.C.C.n.B.B.B.C.C.C.C.A.A.",
"c.c.M.c.c.c.c.c.c.z.x.m.m.m.n.B.B.B.n.n.m.m.m.k.!.1.n 1 * F e.w.8.0.0.0.0.0.0.0.0.0.0.0.q.r.r.w.q.t.t.y.y.g.y.g.g.g.y.g.g.h.h.z.z.z.l.c.z.c.m.m.b.n.B.B.Z.Z.C.A.C.Z.C.B.C.v.C.C.C.B.B.C.A.C.A.",
"M.c.z.c.c.z.c.j.F.%X&X$X$X%X%X%X*X=X*X*X%X$X*X`.I._ r 2 & 9 w.w.0.0.6.0.0.0.0.8.6.0.0.0.0.t.q.q.t.t.e.y.y.g.g.g.g.y.g.g.g.h.h.h.g.z.z.z.z.z.m.m.N.B.B.A.B.C.C.C.C.C.C.C.C.C.B.C.C.C.A.A.A.A.Z.",
"c.m.x.x.c.c.m.L.qXeXwXqXqXwXqXqXwXwXwXwXwXwX6X~...f 9 ;   # 9.0.6.0.8.0.0.0.0.8.0.0.0.0.w.0.q.t.t.e.y.y.e.g.g.y.g.g.g.g.g.g.h.l.z.h.z.z.z.z.c.m.N.B.B.C.C.C.C.C.C.C.C.C.C.C.B.C.C.C.C.H.C.Z.A.",
"m.z.m.z.g.z.z.#X9X9X5X5X7X4X8X4X4X5X4X4X5X5X}.2.( 3 - .   h 0.0.0.0.8.0.0.0.0.0.0.0.0.0.w.q.q.t.y.e.y.e.g.g.g.h.g.g.g.g.h.g.g.h.z.z.h.z.z.z.c.m.B.B.C.B.C.B.C.C.C.C.C.n.B.C.C.C.C.H.C.C.H.C.A.",
"c.c.c.s.z.h.z..X8X4X<X<X<X1X2X<X1X1X1X1X<X-XY.} r -   O U w.8.8.8.8.0.r.0.0.0.0.0.0.0.0.q.q.e.e.g.y.g.g.g.g.g.g.g.h.g.g.h.g.l.z.h.z.g.z.l.z.c.m.N.B.C.C.C.B.C.B.B.C.C.B.C.B.C.C.N.H.H.C.C.A.Z.",
"c.z.c.z.z.z.h.@X8X4X<X<X1X1X<XOX2X2X2X2X<X'.<.k ; o $ m 9.w.8.8.6.6.0.8.8.0.0.0.r.0.r.9.q.e.y.e.y.g.e.g.g.g.g.h.l.h.g.h.h.h.h.l.z.g.c.z.z.c.c.m.N.B.B.B.C.C.C.B.C.Z.n.C.B.C.C.C.H.C.B.H.H.Z.H.",
"c.c.z.h.z.z.h. X5X4X2X1X2X:XoX,.XX<X<X2XOXY.[ > # @ %.C 8.8.8.8.8.r.8.0.6.r.0.0.t.t.r.t.e.t.g.e.g.h.g.g.g.g.g.g.h.l.h.h.h.h.h.h.g.z.z.z.x.c.c.m.N.N.B.C.Z.C.C.C.C.B.C.B.C.C.C.C.B.C.H.C.H.H.C.",
"c.z.z.z.z.z.z. X8X4X,X,X>X+XY.n 5.<X2X2X_.<.f %   *.E.C 6.6.6.8.8.8.0.0.r.0.0.R 4 D r.7.9 g e.g.J 4 e ~ h.h.s e e q p ~ h.Z 0 4 r D i.m.c.m.m.c.N.N.N.B.B.C.C.C.C.C.B.C.C.C.C.C.C.C.C.B.H.C.H.",
"c.c.c.g.z.z.g.@X8X3X2XOX'.I.{ e n :X2X-XU.[ ; X V :XR.C 6.6.8.8.r.r.8.8.0.r.0.R 4 H r.7.0 s g.e.s p 9 D g.h.s 4 I I e p z.s 4 I G e S c.x.N.m.m.N.N.B.B.B.C.B.C.C.C.B.B.A.C.C.C.C.C.C.H.H.H.B.",
"c.c.z.c.z.z.z..X8X4X(.} n f e 3 q (.2X}.2.r + , OX:XR.C 6.6.8.8.8.r.r.r.r.0.0.R e s Z Z e s e.#.4 D A 0 i.h.s 0 +.^ e a m.d 4 i.z.p e s.x.c.m.m.N.N.N.B.M.C.C.C.Z.C.A.Z.Z.C.Z.C.C.H.H.H.H.H.H.",
"c.c.c.z.z.z.h.@X5X4X1X].u ; > 2 4 ..<X!.' & + Q.1X;XR.C 8.8.8.0.0.r.t.w.0.w.w.E e 0 a a 4 s g.L e K J e Q z.s 9 5 0 s p.c.s e f.m.s e a.z.m.c.c.c.n.n.B.B.B.C.C.C.A.A.A.C.Z.C.A.Z.Z.Z.D.Z.D.S.",
"c.c.j.c.c.z.z..X5X4X1X:XXX6 ; 3 p ) U.X.3 X ] <X,X:XR.B w.w.w.w.r.0.w.q.q.w.t.E e H g.7.9 s g.s 4 e 4 e A h.d q >.s e =.c.s p a.p.e e m.c.z.c.c.m.c.n.B.B.B.C.C.C.C.C.C.A.C.A.A.S.Z.S.Z.D.D.D.",
"c.c.m.c.c.x.z.@X8X4X,X1X>XXXj ; 2 k ) y # , =X<X1X:XR.C w.w.q.q.q.t.q.q.q.q.y.~ 5 H e.7.e s #.e a ^ ^ s e i.s e s.-.5 a c.d 4 e q e Q m.z.m.x.m.m.B.n.n.B.C.C.C.C.C.C.A.A.A.Z.A.Z.S.S.Z.S.D.D.",
"m.m.c.c.c.z.k.@X8X4X,X1X,X1XOXi : q 3 * + U.1X1X1X:XR.C q.q.q.q.t.t.t.q.t.t.e.@.I / h.e.T W #.Y / x.j.+.Q >.! Y k.c.^ Y d.O.Y W o.:.m.m.c.m.m.m.b.n.B.B.B.C.B.C.B.C.C.A.A.A.S.A.Z.S.S.Z.D.Z.S.",
"b.v.m.c.c.c.z.@X8X4X,X1X,X1X1XXXw : ; X M 2X1X2X1X:XR.B e.e.g.e.y.q.e.e.t.y.y.y.y.y.z.g.g.z.z.g.h.z.z.c.c.c.M.c.M.m.m.m.n.n.B.b.B.M.M.m.M.N.B.N.b.B.B.B.C.C.C.C.B.B.Z.C.A.S.S.S.S.S.S.S.S.Z.J.",
"b.c.c.c.z.z.z..X8X4X1X:X1X1X1X1XE.< # $ ].<X2X1X1X:XR.B y.e.e.e.y.y.y.y.y.y.h.y.g.g.g.l.h.g.z.c.z.c.z.c.c.c.m.m.m.b.B.B.B.M.b.n.m.M.n.M.B.N.m.B.B.B.n.C.C.B.B.C.C.C.B.A.A.S.S.S.H.H.S.S.D.Z.Z.",
"b.m.m.m.c.c.c.@X5X,X2X1X1X,X1X1X2X&.o ` 2X1X2X1X3X:XR.C g.y.e.e.e.q.g.g.g.y.g.g.g.g.h.h.z.z.z.z.c.c.c.c.c.m.m.m.M.M.B.B.B.B.B.B.M.B.B.B.B.B.B.B.B.B.B.C.C.C.C.C.C.C.A.Z.A.S.S.S.H.H.J.H.S.D.Z.",
"m.m.m.m.m.z.c.@X8X5X1X1X:X1X1X1X<X:XM [.1X1X1X1X,X:X5.C g.g.g.e.g.g.y.g.g.g.g.h.h.h.h.l.g.z.c.c.m.c.m.m.c.m.m.m.B.n.M.B.B.n.B.B.B.B.m.M.B.B.B.B.B.C.B.C.C.Z.C.C.Z.C.Z.A.Z.S.S.S.S.J.J.J.D.J.J.",
"m.m.m.m.c.z.c.@X8X4X1X:X1X1X1X1X2X1X;X<X1X1X1X1X1X=X4.C e.g.g.e.g.g.g.h.h.l.h.h.z.g.z.z.z.z.c.c.m.m.m.m.m.N.N.N.M.n.B.v.B.B.B.v.B.B.B.B.B.B.B.C.B.B.C.Z.Z.C.C.A.C.A.A.S.A.A.A.S.F.J.J.J.S.J.S.",
"c.v.v.c.z.c.s. X4X:X-X;X=XOX=X=X=X=X=X=X=XOX=X=X=X[.%.c g.g.g.g.g.g.h.h.l.z.h.h.g.l.z.z.g.m.c.c.m.b.m.b.N.N.B.B.B.B.B.B.B.C.B.C.B.B.B.B.B.B.C.C.A.A.A.A.A.A.S.A.S.S.A.S.S.S.S.S.S.D.J.J.D.J.J.",
"b.v.b.z.c.h.z.F.(.3.%.| | | %.|  . . . .%.| | %.%.N 8 i g.l.l.s.h.z.g.z.z.z.l.z.z.z.z.l.m.c.m.m.b.b.N.B.B.B.B.B.B.B.B.B.B.C.B.C.B.B.C.B.C.B.A.A.A.A.S.S.S.S.S.S.S.S.S.S.S.S.S.S.D.D.J.J.J.J.J.",
"c.c.m.z.c.h.z.c.$.c 8 8 8 8 7 7 8 8 8 8 8 7 7 8 8 z i >.z.l.l.l.g.g.z.z.z.z.z.h.x.s.z.c.z.m.m.M.b.b.B.B.B.B.B.B.B.B.C.B.B.B.B.C.C.A.B.A.A.A.A.A.A.S.S.S.J.S.F.S.S.S.S.S.S.S.S.S.S.S.J.J.J.K.K.",
"c.m.z.c.z.c.z.z.l.z.l.l.l.s.g.l.g.z.z.z.z.m.z.k.s.v.z.l.z.l.l.l.z.z.z.z.z.z.z.z.z.x.x.z.c.c.N.N.n.B.B.B.B.A.C.C.B.B.B.B.n.C.n.Z.C.A.A.B.C.Z.S.S.S.F.S.K.K.F.J.F.S.S.S.S.S.H.S.S.S.S.F.J.J.J.K.",
"m.c.c.z.c.z.z.z.z.z.l.l.z.z.l.l.z.z.z.z.c.c.c.m.z.b.z.c.c.z.z.c.c.x.x.z.l.z.z.x.z.c.m.c.N.N.N.N.B.B.A.B.C.B.B.C.C.B.C.B.n.C.C.Z.C.A.A.A.A.S.S.S.F.F.K.K.L.K.K.J.K.F.J.S.F.H.S.S.S.F.D.J.K.L.L.",
"c.c.c.c.c.c.z.c.z.z.z.z.l.l.z.z.l.x.z.c.c.m.m.m.b.c.c.c.c.c.z.z.x.c.z.z.c.z.z.m.x.m.m.m.c.N.N.B.B.B.B.B.A.C.C.C.C.B.B.C.C.B.n.Z.A.A.A.A.A.S.S.S.F.K.K.K.L.K.K.K.F.J.S.F.S.S.S.J.J.H.J.K.K.K.K.",
"x.c.c.c.c.c.c.z.z.z.z.l.z.l.z.k.z.c.m.m.m.m.v.b.b.b.b.c.c.z.c.c.c.m.c.m.c.m.z.m.m.b.c.b.N.B.B.B.B.C.B.C.B.C.B.C.B.Z.C.C.n.C.C.Z.A.A.A.A.S.S.S.F.S.K.K.K.L.K.J.K.K.K.J.F.J.F.S.J.J.K.K.K.L.K.K.",
"c.c.M.m.m.m.c.z.c.z.z.z.z.z.m.x.x.m.m.m.b.m.B.B.B.b.N.N.m.m.m.m.c.m.c.m.m.c.m.m.b.N.m.N.B.B.M.B.B.B.B.C.C.B.C.B.C.C.A.C.C.C.C.A.Z.A.A.A.S.D.S.F.S.F.F.F.L.L.L.L.L.L.K.H.J.H.J.J.L.K.K.L.K.K.K.",
"n.m.m.m.m.m.c.c.c.z.z.x.m.c.m.m.m.N.m.m.B.B.N.B.B.B.B.N.m.b.m.m.m.m.b.m.m.m.n.c.m.B.B.N.N.B.B.B.B.B.B.C.C.C.C.B.C.C.B.C.C.C.B.A.A.A.S.S.S.D.S.F.F.D.F.K.K.L.L.L.G.L.K.J.J.J.K.K.L.L.L.L.K.K.J.",
"b.M.n.n.n.m.m.c.c.c.m.z.x.m.b.m.b.n.B.B.B.B.B.B.B.B.B.n.b.b.m.m.m.m.v.v.m.m.b.n.n.n.n.n.B.B.B.M.B.B.B.C.C.B.C.B.B.C.Z.C.C.A.A.A.A.A.S.S.D.D.F.F.F.F.K.K.L.K.L.L.L.L.L.K.K.K.J.K.L.L.L.K.J.K.J."
};
