/* XPM */
static char *checkbox_checked_small[] = {
/* columns rows colors chars-per-pixel */
"95 35 204 2",
"   c #0EEF1CFD2E8F",
".  c #12521A5A2727",
"X  c #11921CC72D02",
"o  c #12281E333171",
"O  c #12F320202F0F",
"+  c #18D920602CAD",
"@  c #146A21E232B3",
"#  c #1394243A3B10",
"$  c #1DB32AD53A7A",
"%  c #155629EA45E6",
"&  c #18B82BEC4686",
"*  c #16962E0E49CA",
"=  c #19DA2F2F4F0F",
"-  c #16D7323251D2",
";  c #1A3F319651F6",
":  c #1CBC35765899",
">  c #1E7F38995D1D",
",  c #2B4C3B1B4BAC",
"<  c #1FE036B75696",
"1  c #1EAF3BEC6272",
"2  c #20D63D886570",
"3  c #238E3EF869D4",
"4  c #3C54491151DA",
"5  c #30F147875DDE",
"6  c #3C3C4E0E5DDE",
"7  c #1E1E418166E7",
"8  c #1E5341996B54",
"9  c #228B40E16575",
"0  c #2BAC44C564E5",
"q  c #225241426B74",
"w  c #2A2A44446CED",
"e  c #23A44ACB6828",
"r  c #2D6D4B0B6E6E",
"t  c #2FF046C76E2E",
"y  c #31B24F8F6FAF",
"u  c #39FA55956727",
"i  c #37B851D26E2E",
"p  c #24C5418270F1",
"a  c #23A44A2A7676",
"s  c #2828494972F3",
"d  c #25864E9E7959",
"f  c #2A154E3D7AA9",
"g  c #33484D7874B4",
"h  c #29AA51517777",
"j  c #2680512B7B61",
"k  c #291450257AE5",
"l  c #3ABB56567272",
"z  c #36B7535379FA",
"x  c #397955557A3A",
"c  c #3E3E58587A3A",
"v  c #43834C8C5616",
"b  c #42C351915B5B",
"n  c #480855556020",
"m  c #414159597A7A",
"M  c #4B4B614175F6",
"N  c #501060A07030",
"B  c #55B668E97474",
"V  c #501066E779B9",
"C  c #56D76CAC7BFC",
"Z  c #59596C207A40",
"A  c #2D1455D682A9",
"S  c #2D0A5AAC8432",
"D  c #2DD45D848895",
"F  c #31585AE88707",
"G  c #3F7F5B9B8000",
"H  c #31715BA68949",
"J  c #2E6E64A488C8",
"K  c #30B161618808",
"L  c #341966829442",
"P  c #359569299585",
"I  c #390E68BE9414",
"U  c #35156D4D9B5B",
"Y  c #3B5B6E6E9BDC",
"T  c #3A3A72F39DBD",
"R  c #36F773D4A2E2",
"E  c #3C967452A23B",
"W  c #3BFC7939A3E3",
"Q  c #3EBF7BE6AA95",
"!  c #43235DDE80E1",
"~  c #49CA6378865B",
"^  c #5A5A6EAE8303",
"/  c #53136BDC8BBC",
"(  c #595970F181C1",
")  c #4F8F6CAC9252",
"_  c #57576FAF90D0",
"`  c #579771B191D1",
"'  c #5BDC733390D0",
"]  c #55557F7F9D5D",
"[  c #63A37B7B8A8A",
"{  c #67FD7DE38DD3",
"}  c #69A97E7E9010",
"|  c #66067E7E9C7C",
" . c #69697C3C9919",
".. c #410172B3A343",
"X. c #41167C7CA9E9",
"o. c #39FA8888B6F6",
"O. c #662683439515",
"+. c #6B6B81C194D4",
"@. c #652582C29E9E",
"#. c #6CAC85C59898",
"$. c #43838289AE1A",
"%. c #48C98303AE8E",
"&. c #4441834EB220",
"*. c #48288403B232",
"=. c #46468909B4F4",
"-. c #4C4C89DFB4F4",
";. c #45058BCBBC7C",
":. c #4A4A8C7CBBC1",
">. c #48489191BF7F",
",. c #61618080A060",
"<. c #6DAD8808A424",
"1. c #75D68A6AA343",
"2. c #7ABA8C8CA6A6",
"3. c #7D7D8F8FA969",
"4. c #79399050A4A4",
"5. c #7CBC9191A969",
"6. c #73F494D4B2B2",
"7. c #7C1C9B7BB353",
"8. c #2E2E9292CDCD",
"9. c #356A9539CF15",
"0. c #386696CCCF37",
"q. c #36979838CF4F",
"w. c #3BEC9990CF7F",
"e. c #36EA96CAD09D",
"r. c #39D0970FD083",
"t. c #3CFE9A0ED0F2",
"y. c #4A0A8ECEC040",
"u. c #47479111C444",
"i. c #4B769368C55A",
"p. c #41159BC3CFC5",
"a. c #4CE89CD3CD84",
"s. c #51119555C383",
"d. c #541F9C07CAE0",
"f. c #58B99DBECB4B",
"g. c #434B9D1ED24A",
"h. c #48869F39D432",
"j. c #5191A0E0CF0E",
"k. c #46AFA066D43C",
"l. c #4BC3A1E1D522",
"z. c #4C8DA403D898",
"x. c #53A6A5E3D6F6",
"c. c #5959A64CD696",
"v. c #567CA88ED791",
"b. c #5BB3AA27D722",
"n. c #5587A6F5D8B2",
"m. c #5A02A737D979",
"M. c #56B0A8B2D8D1",
"N. c #5B8EAA93D9DE",
"B. c #63A3A3E3CFCF",
"V. c #7F3FA828C888",
"C. c #6236AE03DBBF",
"Z. c #6565B0B0DCDC",
"A. c #7656B2D3D716",
"S. c #7939B535DC9C",
"D. c #7E7EBE3DE28C",
"F. c #85A59757AD0D",
"G. c #81C19F9FB6B6",
"H. c #8C4C9D1DB45A",
"J. c #82C8A083B27E",
"K. c #8444A0E0B979",
"L. c #8888A929BE3E",
"P. c #92FDA67BBBE6",
"I. c #9BDBA929BC7C",
"U. c #8202A4E4C0C0",
"Y. c #8ECEAD2DC686",
"T. c #8B6BAD8DC969",
"R. c #93D4AE43C3EE",
"E. c #8BCBB131CD8D",
"W. c #9C3CB1B1C545",
"Q. c #9A5ABABACE4E",
"!. c #93D3B777D252",
"~. c #9737BB7BD4D4",
"^. c #9C7CBA3AD3B3",
"/. c #9919BF7FD959",
"(. c #A2A2BC7CD191",
"). c #81E2BF4FE363",
"_. c #9EDFC545DEBE",
"`. c #A565C181D7D7",
"'. c #A24CC605DE88",
"]. c #AB6BCA09E01F",
"[. c #B070C545D858",
"{. c #84C4C141E483",
"}. c #89E0C2BEE428",
"|. c #A652CD50E51A",
" X c #A969CD8DE726",
".X c #A525D2D2E565",
"XX c #AB9AD2C5EBD6",
"oX c #AE5ED898EF7F",
"OX c #B04AD649EE54",
"+X c #B0E6D883EFA4",
"@X c #AF37D771F0F0",
"#X c #AF40D8BAF1D1",
"$X c #B078D797F120",
"%X c #B221D9BEF219",
"&X c #BA73DE6CF408",
"*X c #BECCE06EF49F",
"=X c #CA09DEDEED6D",
"-X c #C282DFF4F41E",
";X c #C1E7E110F429",
":X c #CCEDE686F676",
">X c #D595EB39F75A",
",X c #D681EB96F8CD",
"<X c #DC1BEFEFFABA",
"1X c #DD9DF0F0FAFA",
/* pixels */
"h.g.g.9.t.g.t.g.t.t.t.w.g.g.g.k.g.h.g.h.l.k.k.x.x.x.x.l.x.%.x.x.z.x.x.x.x.x.j.x.x.z.x.x.x.m.N.N.N.N.N.N.N.m.m.M.m.N.C.N.C.N.Z.N.C.C.C.B.Z.Z.C.Z.Z.Z.Z.Z.Z.N.C.C.N.N.N.N.C.N.N.N.N.N.C.C.C.Z.C.",
"h.h.p.h.t.t.9.p.t.t.w.p.p.g.g.w.p.h.h.g.k.k.k.l.l.k.l.c.7.I x.x.x.x.x.x.x.x.x.x.x.x.x.n.n.m.N.N.N.N.N.N.N.m.m.m.N.N.N.N.N.Z.C.Z.C.Z.C.Z.C.Z.C.Z.Z.Z.C.C.Z.N.N.N.N.N.N.N.m.N.C.N.N.N.N.C.N.C.Z.",
"k.h.h.9.w.w.w.t.t.t.9.g.t.g.w.g.p.w.9.g.a.g.h.h.l.k.c.P./ K l.x.x.x.l.v.x.x.x.x.x.n.n.n.n.M.N.m.N.N.N.M.N.n.n.n.M.m.N.C.N.C.Z.N.C.Z.C.C.C.C.C.C.C.C.C.C.N.N.N.N.N.N.N.C.N.N.N.N.N.C.C.C.Z.Z.Z.",
"k.k.h.h.t.t.t.q.t.t.g.w.g.t.w.w.g.9.p.g.9.h.g.k.k.x.T.5.7 T x.l.x.x.v.v.v.v.x.x.x.n.n.c.m.M.m.N.N.N.m.M.n.n.c.n.m.N.N.N.Z.N.Z.C.C.Z.C.Z.Z.C.C.C.C.m.C.m.N.N.N.N.N.N.N.N.m.N.N.C.N.N.N.C.C.N.Z.",
"l.l.g.k.w.w.t.w.t.9.p.w.w.t.q.q.0.0.t.9.p.9.g.h.h.U.H.~ ; W x.x.x.v.v.x.v.v.x.x.x.x.n.n.v.m.n.m.N.M.v.v.x.v.x.x.n.N.N.N.N.N.Z.Z.C.C.C.C.Z.Z.Z.M.m.m.m.N.N.m.N.m.N.N.N.N.N.N.C.C.N.C.N.C.N.C.C.",
"l.l.p.k.w.p.w.t.p.p.9.9.w.w.t.q.0.9.0.0.w.t.g.g.B.P.@.w * T x.x.x.v.x.v.v.v.x.v.n.v.x.c.M.m.n.n.v.n.v.v.x.x.x.x.x.n.N.N.N.Z.C.N.Z.Z.C.C.N.N.N.N.N.N.m.m.N.N.N.m.N.N.N.N.C.m.N.N.C.N.C.N.C.C.C.",
"l.l.a.k.g.t.g.t.t.t.9.9.9.9.9.9.e.9.r.0.w.w.9.l.P.1.! 1 * J z.v.v.x.x.x.v.x.x.x.v.x.n.n.n.M.n.n.n.v.z.z.x.x.x.x.v.n.N.N.N.Z.N.Z.Z.C.C.C.N.N.N.N.m.m.v.n.N.N.N.N.N.N.N.N.N.N.N.C.N.C.N.C.N.C.C.",
"x.l.k.w.p.g.w.9.A.}.}.}.}.}.}.{.}.}.}.}.}.}.}.E.F./ w 1 & e z.v.x.x.v.x.x.x.x.v.v.m.n.v.n.v.v.x.x.v.x.x.z.v.x.x.n.n.M.N.N.N.N.N.N.C.N.N.Z.N.N.N.n.n.v.n.N.m.N.M.M.N.N.N.N.N.M.C.N.b.C.N.C.C.C.",
"l.k.h.k.g.t.t.S.1X1X>X>X>X,X>X>X,X,X,X,X>X>X=XI. .g 7 -   $ a.x.x.x.x.x.x.v.x.v.n.n.m.n.v.v.v.n.v.x.x.x.x.z.x.n.x.n.M.N.M.N.N.N.N.N.C.N.N.N.N.v.n.x.v.x.M.M.m.m.N.N.N.N.C.N.N.N.N.C.N.N.C.C.N.",
"l.k.h.g.g.g.t.{.:X:X*X*X*X*X*X*X&X*X*X*X*X&X(.3.m 2 - .   h k.v.x.v.x.v.v.v.x.m.m.m.M.m.M.M.v.x.x.v.v.x.x.x.x.x.z.v.x.N.M.N.N.N.N.C.N.C.N.C.N.v.m.v.x.v.v.v.v.n.M.N.N.C.N.N.N.N.N.C.b.C.N.C.C.",
"l.l.k.h.g.w.w.).;X*XoX#XoX#X@X@X#X@X#X%X@X].H.' w -   + W k.x.l.x.x.x.v.M.M.m.m.N.N.M.m.N.N.n.v.n.x.x.x.x.x.x.x.v.x.n.n.x.N.N.N.N.N.N.C.C.N.N.v.n.n.x.x.x.v.v.v.m.N.N.N.N.N.N.N.N.N.b.b.N.N.b.",
"l.j.k.k.k.t.w.).;X&X@X#X#X@X@X_.#X#X@X@XoXW.1.x : @ $ N l.z.l.x.x.x.v.n.M.N.N.N.N.M.N.N.m.N.m.v.v.x.x.x.M.M.v.x.v.x.n.x.x.M.M.M.N.N.N.N.C.N.N.N.n.v.x.x.x.x.n.m.N.N.C.N.C.N.N.N.b.N.b.N.N.N.C.",
"l.k.l.k.g.t.t.D.&X&X$X#X@XXX`.<._.@X@X$X'.H._ 1 @ $ +.C k.k.l.l.x.x.x.n.n.n.N.N.b.b.b.m.b.M.c.m.v.n.M.n.M.M.M.v.x.x.v.c.x.x.v.M.M.b.B.N.N.C.N.v.n.m.v.v.x.v.v.c.N.N.N.m.N.N.N.N.N.N.m.N.N.N.C.",
"l.l.l.k.g.t.t.{.;X&X%X%XoX[.H.m 6.$X#X@XR.2.y %   #.J.Z k.k.l.z.x.h.x.x.n.N.m.&.q 8 &.b.j 9 f C.f 1 8 q q ..&.q q 8 a ..M.>.8 D c.f 8 f.C.P q %.&.3 q Q m.f 8 d N.m.N.N.N.N.N.N.N.b.m.N.N.b.M.",
"x.l.l.h.h.a.p.).-X&X#X'.W.F._ 3 c XX$X XH./ - . V XXJ.C a.g.k.k.h.x.n.x.n.m.M.&.q q P f.q q j N.f 3 Y E ..:.o.q k T a 2 =.>.q D b.f q j.N.I q *.&.q q P a.q q f m.M.m.N.N.N.N.N.N.N.m.c.m.N.N.",
"l.k.j.l.h.h.p.).&X&XY.` m z q 1 3 T.$X(.2.t O , |.XXJ.C h.h.h.h.x.h.x.x.n.n.N.&.q S f %.p S f N.j q S D F i.X.9 P M.X.q U ;.q D M.k q d.N.I q &.%.q A f $.8 A f v.M.M.m.N.M.N.N.m.N.N.m.N.N.C.",
"l.l.l.h.h.h.g.{.-X&X@X!.y ; > 2 3 | XXP./ & X L.%XXX7.Z g.h.h.k.h.l.x.x.x.c.c.X.3 E q D S D h b.f 8 F H D i.&.3 L n.&.1 L y.8 D n.d 3 d.m.I q *.%.q T 9 H S D f x.v.v.N.N.N.N.M.v.N.N.N.N.M.C.",
"l.l.h.h.h.h.g.{.&X&XOX#X/.5 = 1 8 ~ K. .0   ^ %X@XXXJ.Z 9.g.g.k.h.h.h.l.x.z.v.o.3 -.q 3 Y F d b.j p d.n.n.n.X.3 L x.L q ..y.q F n.A 3 :.N.D q -.*.q :.p q T F f c.x.v.M.n.M.N.M.v.M.v.N.N.N.C.",
"l.l.h.h.k.g.h.).-X&X%X#X@X'.l : 7 z ~ r # , |.@XoXXXJ.Z p.p.h.k.h.h.h.z.h.x.v.$.q :.A q -.D f v.f 3 q 8 3 L &.1 3 3 3 a a.;.q H v.X.q 3 s q k c.%.q >.S q -.F k n.v.n.M.v.v.M.N.v.N.m.N.C.N.C.",
"h.h.h.p.h.g.g.).;X&X+X#X%X@X'.i > 2 3 % @ G.#X#X+XXXJ.Z 9.k.9.a.p.g.h.h.k.l.x.u.E a.=.E x.&.Q m.Q E E T T ;.u.R E R Q h.z.a.T &.x.x.:.U L E j.M.s.E f.=.E x.&.Q M.n.z.v.v.v.M.n.M.N.N.N.N.C.C.",
"k.k.g.g.g.g.t.{.&X&XOX#X%X#X%X~.0 < ; @ M OX@X%X#XXX7.Z t.t.a.9.g.p.g.h.h.h.l.x.z.x.x.x.c.v.x.v.x.v.n.x.x.x.x.x.x.x.x.h.x.v.v.v.n.x.n.x.x.n.n.n.M.m.M.N.N.M.N.n.M.v.n.v.v.n.n.n.M.N.N.N.N.C.C.",
"k.k.g.g.t.k.g.D.-X&XOX$X#X#X#X@XU.< # $ ~.@X@X%X#XXXJ.Z t.t.w.p.g.g.g.h.h.h.k.l.x.x.x.x.z.x.x.x.v.z.x.x.v.z.x.z.x.h.x.x.x.z.x.x.x.x.x.x.x.x.x.x.N.M.M.M.N.v.v.n.M.M.n.n.x.n.v.n.v.M.N.N.N.C.C.",
"l.k.h.g.g.g.h.).;X&X@X#X@X#X#X#X$X@.+ ( %X#X#X%X+XXXJ.Z 9.g.9.h.9.g.g.g.h.h.l.l.l.x.z.l.z.x.x.z.z.h.x.x.x.x.x.x.h.x.x.x.x.j.z.x.x.n.x.z.x.x.x.n.n.n.n.n.v.x.n.n.M.M.m.n.v.x.x.v.M.N.N.N.N.C.C.",
"l.k.k.g.h.g.g.D.&X&X$X#X@X%X%X%X$XXXm /.@X#X#X#X+XXXJ.Z 9.g.g.p.a.p.p.h.h.h.h.h.k.l.l.l.l.l.l.l.l.x.x.j.x.x.h.x.x.x.h.x.z.x.l.x.z.x.x.x.x.x.n.n.v.v.v.v.v.n.v.v.M.m.M.v.x.v.x.v.N.N.N.N.b.N.C.",
"l.l.h.h.h.t.h.D.;X&X@X@XoXoXoX+X$X+X|.%X@XOX@X@X@X.XG.B 0.t.t.9.t.t.h.g.k.k.h.k.k.k.l.h.h.h.l.l.x.l.l.z.l.x.l.x.x.h.x.z.x.x.j.h.x.x.x.x.x.z.n.n.n.x.x.v.x.v.v.x.v.n.x.x.x.x.n.n.N.M.N.N.N.C.C.",
"l.l.l.h.h.g.g.D.&XoX|.|.'.]..X.X X|.|.|.|.|.|.|.|.Q.O.b t.t.t.t.t.t.w.g.g.g.g.h.h.h.g.h.g.g.l.k.h.l.l.l.l.l.l.x.h.x.j.x.h.x.x.n.x.x.x.x.z.x.x.x.v.n.v.v.x.x.x.x.v.v.x.x.x.x.x.n.M.m.N.N.N.N.Z.",
"k.l.l.h.h.h.g.A.R.4.{ { [ O.O.O.{ { { { { { { { [ B v 6 9.0.t.9.t.t.t.t.t.g.g.g.h.g.g.g.g.g.h.h.h.k.l.h.l.k.l.x.x.x.x.x.h.x.x.h.x.v.x.x.x.x.x.x.v.n.n.n.x.v.v.x.x.v.x.x.x.x.x.n.n.m.N.N.N.N.Z.",
"z.l.l.k.k.k.h.l.,.b 4 4 4 4 4 4 4 4 4 4 4 4 4 4 4 4 u o.r.0.t.0.w.t.g.g.g.g.g.g.t.t.g.g.g.g.g.h.h.h.h.l.h.j.l.k.x.h.h.h.h.x.x.n.n.x.x.x.l.x.l.x.n.n.m.n.n.x.x.x.x.z.x.x.x.n.n.v.n.N.N.N.C.Z.Z.",
"h.h.h.h.z.h.k.t.t.t.g.p.t.p.t.t.t.t.9.9.8.8.8.9.e.w.9.0.q.0.r.t.t.t.w.g.g.g.w.g.t.t.g.g.g.g.g.g.a.h.h.h.k.k.h.l.h.z.h.x.x.x.z.x.x.x.x.x.x.j.x.x.v.m.v.v.v.n.v.x.x.x.x.z.x.x.x.n.M.M.M.N.N.C.Z.",
"l.h.h.h.h.h.g.g.p.t.t.p.g.t.t.t.e.q.9.9.8.9.8.9.9.9.0.0.0.0.r.0.t.w.w.p.w.p.w.w.t.t.t.g.w.g.w.g.t.g.g.g.h.h.l.k.x.j.h.x.j.x.h.x.x.x.x.x.x.v.l.x.x.n.m.n.x.v.v.x.x.x.x.v.x.x.n.x.M.N.N.N.N.C.C.",
"l.h.k.h.h.k.g.g.p.p.t.p.p.t.p.t.t.q.r.9.9.9.9.9.9.0.0.0.0.0.0.r.r.t.t.t.9.g.w.w.w.t.t.p.p.w.p.g.t.g.g.k.h.k.k.l.h.l.h.h.z.x.x.x.x.x.x.v.x.x.x.x.x.v.x.x.x.v.v.v.x.v.v.M.M.m.n.m.M.N.N.C.C.C.C.",
"l.z.z.h.k.g.g.g.t.p.t.p.t.p.t.t.r.e.9.9.9.9.9.9.9.0.0.0.w.0.t.r.q.q.t.w.w.g.g.9.t.t.t.w.w.w.w.g.w.g.w.k.g.h.a.h.h.h.x.h.h.h.z.x.x.v.v.x.v.v.v.x.x.x.v.x.v.v.v.v.v.M.M.N.N.M.m.m.N.N.N.N.C.C.C.",
"x.z.z.h.h.h.h.g.g.t.t.g.p.p.p.0.0.0.0.0.e.e.9.9.e.e.9.r.r.t.r.r.t.e.9.t.t.w.t.t.w.w.9.w.w.w.t.t.t.g.t.h.g.h.h.g.h.g.k.z.l.z.z.x.x.x.x.n.n.n.n.v.x.n.x.x.v.n.M.M.M.m.N.N.C.N.N.N.N.N.C.N.C.Z.Z.",
"x.z.h.h.h.h.g.t.g.g.g.p.p.p.r.9.r.0.0.e.9.9.9.9.e.r.0.0.r.r.r.r.w.9.t.r.e.q.e.t.q.t.t.9.r.r.r.w.t.t.t.p.g.h.a.g.h.h.h.k.h.l.z.h.j.x.x.x.m.n.n.v.n.n.v.x.n.N.M.N.N.N.N.N.N.N.C.N.N.C.N.C.N.Z.Z.",
"h.h.h.z.h.h.h.h.g.g.p.g.p.t.0.p.r.0.e.9.9.9.9.e.9.9.9.0.0.r.0.t.e.0.9.r.w.9.9.q.9.q.w.9.e.9.t.w.t.9.t.g.g.h.h.l.h.h.h.h.h.a.h.z.h.x.x.v.n.n.n.M.M.m.M.M.N.m.N.m.N.N.N.N.N.N.N.Z.N.Z.C.N.Z.Z.Z."
};
