/* XPM */
static char *checkbox_hilite_small[] = {
/* columns rows colors chars-per-pixel */
"95 35 127 2",
"   c #0D374AB4023E",
".  c #0ECF56D70202",
"X  c #0F9055550303",
"o  c #145450900D0D",
"O  c #161656D71495",
"+  c #12F76E4A0202",
"@  c #13D473D40202",
"#  c #15897F250283",
"$  c #26267FBF2BEC",
"%  c #29293F7F67A7",
"&  c #238A3E986A9D",
"*  c #28E93EFF6D6D",
"=  c #1F5F424266E7",
"-  c #1E5E426A6BCB",
";  c #21FA419E6B16",
":  c #238E461B72C8",
">  c #2828454575F6",
",  c #25184D4076C3",
"<  c #28E94B0B7737",
"1  c #25FE4D357AD7",
"2  c #29974CDF7B32",
"3  c #272750507E7E",
"4  c #160A813B027D",
"5  c #195994540283",
"6  c #1B1B9F1F02C3",
"7  c #1E1E985809CA",
"8  c #1B9CA2FB02FE",
"9  c #1D5DAC2C0303",
"0  c #2060B5B50586",
"q  c #2020BF3F0303",
"w  c #22FFCF2A0378",
"e  c #23C2D4D0036E",
"r  c #252FDB040403",
"t  c #2700E3F80404",
"y  c #27A8E71E0404",
"u  c #28A9EBCB04A4",
"i  c #2969E0E00889",
"p  c #294BF3E4042A",
"a  c #4242F4F428A9",
"s  c #3676B5354A8A",
"d  c #2FF08E4E74F5",
"f  c #38B9BF3F6A6A",
"g  c #3474B7777232",
"h  c #3EFFBAFA7B3B",
"j  c #39A8C2FE6CA4",
"k  c #3CFDCCDB6D3B",
"l  c #3F3FCF0E7070",
"z  c #422DCEB96EC4",
"x  c #4262D1516E2E",
"c  c #4040CB8B70F1",
"v  c #43E4D2127030",
"b  c #2A3755BC8303",
"n  c #2D2D58588585",
"m  c #2DAE5D9E8BFC",
"M  c #2DEE60A08D8D",
"N  c #2FF063638F4F",
"B  c #2A6A62229151",
"V  c #2F6F6AAA9797",
"C  c #2EAF6D2D9D1D",
"Z  c #2FF066669595",
"A  c #30B16AAA9555",
"S  c #34B56C1C9CFD",
"D  c #3A2A73A39E5E",
"F  c #2CAD75F6AB2B",
"G  c #2E6E77F8AAAA",
"H  c #37777737A7E7",
"J  c #3939739EA1B7",
"K  c #3A7A7A3AA727",
"L  c #31917636AA0A",
"P  c #383874F5A9A9",
"I  c #34347A90ABEB",
"U  c #3C3C7DFEAD6D",
"Y  c #36F77F7FB0B0",
"T  c #400077B7A525",
"R  c #41017A7AA727",
"E  c #3F7F9B1BAE6E",
"W  c #3CFD8202B212",
"Q  c #35758BCBBD3D",
"!  c #3C7C8C77BBE6",
"~  c #40C19F5F9A5A",
"^  c #5393BDFD9FDF",
"/  c #41418303AF2F",
"(  c #43C48606B232",
")  c #4B4B8F0FBBBB",
"_  c #44049070BEBE",
"`  c #5010BB3BA020",
"'  c #2B058EF5CA23",
"]  c #36F78C0CC282",
"[  c #3BD18E23C32D",
"{  c #2DB791B7CCCE",
"}  c #348094C7CE42",
"|  c #389496AECF08",
" . c #367698D8CF4F",
".. c #3C0599B3CF79",
"X. c #36A69616D0E0",
"o. c #397C96F2D07D",
"O. c #3D369A0CD120",
"+. c #450593D3C3EE",
"@. c #4B4B95EFC646",
"#. c #4CCD9656C949",
"$. c #43029CDDCF8F",
"%. c #4F4F9ADBCBCB",
"&. c #50909696C989",
"*. c #44029D41D2D9",
"=. c #48C59F26D410",
"-. c #4D8D9FDFD898",
";. c #4C4CA121CE0D",
":. c #46ACA080D43E",
">. c #4BF3A1E1D514",
",. c #4E2EA343D858",
"<. c #527CA50BD6E4",
"1. c #5898A7A7D6D6",
"2. c #56CCA8C3D777",
"3. c #591EA983D7AA",
"4. c #5472A691D897",
"5. c #58CFA758D918",
"6. c #562EA8B0D8D8",
"7. c #5C0BAAFCDA1A",
"8. c #625CAE0FDBE1",
"9. c #66ABB0BFDCF1",
"0. c #6BFFB32ADE30",
"q. c #7101B61ADF3F",
"w. c #748EB892DFAC",
"e. c #6E83B54AE0F5",
"r. c #7274B6D3E0D6",
"t. c #75E0B948E16E",
"y. c #7878B9B9E1E1",
/* pixels */
"<.<.=.>.=.=.>.=.*.*.*.*.*.$.O.O.O.O...o.o.o.| | O.| O.| o.o.o.o.| | | | | | }  .} o.} | | } | | | ..O.O.*.*.*.=.*.=.=.=.=.=.=.=.>.,.>.<.<.6.6.1.6.7.3.7.3.7.3.7.3.7.7.7.7.5.8.7.8.8.8.7.8.8.e.",
"<.>.>.>.>.=.=.>.*.=.*.*.*.*.*.*.*.*.*.O.*.O.O.*.*.O.$...o.o.o.} } o.| } }  .} } } } | }  .| | | | o...O.O.*.*.*.=.=.*.*.=.*.=.=.>.>.>.<.,.<.<.6.3.7.7.7.8.7.7.7.7.3.7.3.7.7.7.7.7.8.8.8.e.8.8.",
"<.>.<.>.>.>.>.>.>.*.=.=.=.=.*.=.>.>.>.>.*.=.=.=.*.-.*.*.O.o.|  .| } } | } } } } } } X.X.| } | }  .| O.O.O.*.*.*.*.*.*.*.*.=.=.*.>.>.>.>.<.<.<.1.7.3.7.7.7.7.7.7.7.7.7.7.7.7.8.7.5.8.8.8.8.8.e.",
"<.<.<.<.<.<.>.>.>.>.>.>.>.>.>.<.<.<.,.,.>.>.>.>.*.*.=.*.$.O.| } | } } } } } } } } } } } } | } | | o...O.$.O.$.*.*.*.O.*.*.*.=.=.;.>.>.<.<.<.<.6.6.7.8.7.8.7.8.8.8.7.8.7.8.3.7.7.8.8.7.8.8.8.8.",
"<.<.<.<.<.>.<.>.>.>.>.>.<.<.<.5.3.3.5.<.<.,.<.>.-.*.>.-.*.O.|  .} } } } ' } { } ' X.} } } | | } | o.O.O.O.*.*...*.O.O.*.*.=.,.*.>.>.>.>.<.<.6.<.6.7.7.8.8.9.8.8.8.8.8.7.7.7.7.7.7.8.7.8.9.9.9.",
"<.<.<.-.<.<.>.<.<.>.<.>.<.<.6.3.3.3.3.6.5.5.>.>.,.,.>.*.*.*.|  .} } ' } } } { } } } } } } } | | o.o...O.O.*...*.O.*.*.*.=.*.,.=.*.>.>.<.<.<.<.6.6.7.7.7.7.9.9.8.8.8.8.7.8.5.7.8.7.8.8.8.9.9.9.",
"<.<.4.<.<.<.-.<.<.>.<.<.<.<.3.7.7.8.7.3.<.<.<.<.>.=.=.=.*.*.O.} } } } } ' } } } } } } } | X.} | | o...O.O.*.O.O.*.*.*.*.*.:.*.=.=.>.>.>.<.<.<.6.3.3.7.9.8.9.8.9.9.8.8.8.7.7.8.7.8.8.8.9.8.9.9.",
"4.<.<.<.<.<.<.%.` l k k k z z z v v v x x k k k k k h E :.*.o.} { { { } } } } } { } } } } o.| | o.o...O.O.*.*.*.*.O.*.*.*.*.*.-.>.>.>.>.>.>.,.5.7.3.7.7.8.8.8.8.8.8.8.8.8.8.8.8.8.9.8.8.8.9.9.",
"<.<.<.<.>.<.<.^ a p p p p p p p p p p p p p p p p y r s *.*. .} } } } } } } { } ] ' X.} } |  .o.O.O.| O.*...*...*.*.*.*.*.:.*.>.>.:.>.>.>.>.,.6.7.6.7.7.8.8.8.8.8.8.8.8.8.7.8.8.8.8.e.8.9.9.9.",
"<.<.-.>.=.>.>.z p u y t r y t t t r t t t t t t y i w 7 *.O. .{ } { { } | } } } X.X.X.{ | } o.| ..O.O.O.$.*.*.*.*.*.*.*.*.*.*.*.>.$.>.*.>.>.<.<.7.8.8.7.7.7.8.8.8.8.7.8.8.8.7.8.8.9.9.8.9.9.9.",
"<.<.<.=.>.=.-.j y t r r r r r r r r r r r r r r r r 9 @ | | X.{ ' } } } } } } { o.} } |  .| | ..O.*.O.*.*.*.*.*.:.*.*.*.*.*.,.*.>.>.>.>.>.>.<.5.7.7.8.8.7.8.8.8.8.8.8.8.8.7.8.8.8.9.9.9.9.0.9.",
">.<.<.>.>.;.=.j y r r r r r r r r r r r r r r r r r 8 +  .} ' { ' { { { { } } } } } | X. .....*.O.O.*.*.*.O.*.=.*.*.=.=.>.=.:.>.:.>.>.>.>.<.<.5.6.7.7.7.9.7.8.8.7.7.8.7.7.8.8.8.8.9.9.9.9.0.0.",
"<.<.-.-.>.:.*.j y r r r r r r r r r r r r r r r r e 8 + ' { { { X.' { X.} ' } } } o.o.o...o.O.O.*.*.*.*.*.*.*.>.*.;.:.:.*.*.,.>.>.>.>.<.,.<.<.4.6.6.7.7.8.8.8.8.8.8.8.7.8.8.8.8.8.8.9.9.e.e.0.",
"<.>.>.=.>.>.>.j y r r r r r r r r r r r r r r r r w 8 + ' ' { { ' X.' } } | } F & m X.] ; 1 ..*.V & ; I *.*.1 ; ; ; > H ,.1 - & ; n +.<.<.4.4.4.,.7.7.7.7.8.8.8.8.8.8.8.8.8.8.8.8.8.9.9.e.9.0.",
"<.>.>.>.>.>.>.j y t r r r r r r r r r r r r r r r r 8 + ' ' ' { X.X.} } X.} { F & B o.] - 1 ....1 : ; n *.>.1 & S C ; : >.1 ; S N & b <.<.4.4.<.4.6.7.7.8.7.8.8.8.8.8.8.8.8.8.8.8.9.9.8.9.0.0.",
"<.<.<.>.>.>.>.j y r r r r r r r r r r r r r r r r e 8 + ' { { } { X.{ X.X.X.o.L & 1 b b - < $.! ; m b - +.>., ; W U ; , <.1 & @.>.: - =.,.4.4.4.4.6.7.7.7.7.8.8.8.8.8.8.8.9.8.9.9.9.e.e.e.r.0.",
"<.<.<.-.>.<.*.j u r r r r r r r r r r r r r r r r e 8 + { { ' } } o.|  .| }  .G ; ; 1 , & < ..L & A Z ; H :.1 ; ; ; 2 ) 5.1 ; %.<.1 ; &.<.,.<.<.2.3.3.7.7.7.8.8.8.8.9.9.8.8.9.8.9.9.0.0.0.q.q.",
"<.<.<.<.<.>.>.j t r r r r r r r r r r r r r r r r e 8 +  .{ }  .X.} | | | | o.G ; B ..[ - < $.1 ; ; & ; b :.2 ; _ , ; / <.3 ; #.#.; : ;.,.<.>.2.2.<.3.3.7.7.8.8.8.8.8.9.9.9.9.9.9.9.9.0.0.0.q.",
"<.<.<.<.<.<.;.j t t r r r r r r r r r r r r r r r e 8 +  .| } |  .o.| | |  .O.G > N ..[ - 1 ! = , U U , ; @.1 ; #.( ; 1 <.1 % : ; ; P <.>.<.<.<.5.3.3.7.7.8.8.8.8.9.8.8.9.9.9.9.0.0.0.9.q.0.0.",
"5.<.<.<.<.>.>.j t t r r r r r r r r r r r r r r r e 8 + .. .| | o.o.o.| | | ..Q S U *...S H ! S Y -.<.Y J ! K D ;.6.R J &.R D J T ) <.<.6.6.<.<.6.3.7.3.7.7.8.8.8.8.8.9.9.9.0.9.0.9.0.0.q.0.0.",
"6.5.<.<.<.>.>.j u r r r r r r r r r r r r r r r r e 8 + O.....O.O.....| ..O.....*.O.*.*.*.>.>.>.-.=.>.<.<.<.6.<.5.4.6.5.3.3.3.6.5.5.7.5.5.5.<.1.3.3.7.7.8.8.8.8.8.5.8.8.9.0.0.0.9.0.0.0.0.0.0.",
"5.<.<.<.<.=.<.j t r r r r r r r r r r r r r r r r e 8 + O...O.O.| O.O.O...O.*.*.$.*.*.>.=.=.>.>.<.<.>.<.<.<.<.5.5.3.6.7.7.3.6.3.5.5.5.5.3.3.7.7.7.7.7.8.7.8.8.8.8.8.8.0.9.0.0.0.q.q.q.0.q.0.0.",
"<.6.5.<.<.>.>.j t t r e r r r r r r r r r r r r r e 8 + O.O.*.....O.*.O.*.*.*.*.=.*.:.*.=.>.,.>.>.<.<.<.<.<.<.<.4.5.7.7.7.7.7.3.5.7.5.7.7.3.7.7.7.7.7.8.8.8.8.8.8.8.8.8.0.0.0.0.q.q.w.q.q.0.0.",
"5.6.<.5.<.<.<.j t r r r r r r r r r r r r r r r r e 8 @ *.O.....O.$.*.*.*.*.*.=.*.*.=.>.=.>.<.<.<.<.<.5.4.5.5.6.5.7.3.7.7.7.3.7.7.7.3.7.7.7.5.7.8.7.7.8.8.8.8.8.8.8.8.0.9.0.0.0.0.q.q.q.r.0.q.",
"<.<.6.<.<.,.<.j t r r r r r r r e r r r r r r r r w 6 + O.*.O.*.*.*.*.=.=.:.:.=.=.>.*.>.>.>.,.<.4.<.4.6.4.6.6.6.3.7.7.7.1.7.8.1.7.5.7.7.5.7.8.8.8.8.8.9.9.9.8.9.0.9.8.0.8.0.9.0.w.r.0.w.r.0.e.",
"6.<.<.6.<.>.%.f t r w e w e w w w w w w w e w w w q # X *.$.*.*.*.*.=.*.>.:.>.*.:.>.>.>.>.<.<.<.2.4.6.6.6.7.7.7.7.7.7.7.8.1.8.7.7.7.7.7.7.8.8.8.8.8.9.9.8.9.0.0.0.0.0.0.0.0.0.0.0.r.t.r.q.r.r.",
"2.<.6.<.<.-.>.g 0 5 # # 4 4 4 4 4 # # # 4 4 # # # +   o :.*.*.$.*.*.:.>.:.>.>.>.;.:.>.>.>.<.6.5.6.6.3.3.7.3.7.7.7.7.7.7.8.7.7.8.8.7.7.8.8.8.8.9.9.9.0.0.0.0.0.0.0.0.0.0.9.0.0.0.0.r.r.r.r.r.r.",
"<.<.<.<.>.>.>.~ $ .                                 O d >.*.=.=.*.>.>.>.>.>.>.>.>.>.>.>.<.<.6.<.6.3.7.7.7.7.8.7.7.7.8.7.3.7.8.7.8.8.8.8.8.9.9.9.0.0.0.q.0.w.0.r.0.0.0.0.0.0.0.0.0.0.r.w.r.t.y.",
"<.<.>.<.>.>.=.<.:.,.>.*.=.%.$.$.=.>.>.>.<.<.<.>.<.<.-.>.;.>.=.>.>.>.>.>.>.>.>.>.>.,.,.>.<.<.6.6.6.7.7.7.8.7.8.7.8.7.7.7.7.7.8.7.9.9.8.9.8.9.9.0.0.0.w.w.r.r.r.r.q.0.q.q.q.0.0.0.0.0.r.w.r.r.y.",
"<.<.<.,.>.<.<.>.>.:.:.>.:.:.=.:.=.>.>.=.<.<.<.<.<.<.<.<.>.>.-.<.>.<.,.>.>.>.>.,.<.<.<.<.6.6.3.6.3.7.7.9.8.3.9.7.7.7.8.7.7.8.8.9.8.9.9.8.9.0.0.q.0.w.y.w.y.y.r.r.q.q.q.0.0.q.0.0.e.e.r.t.t.y.y.",
"<.<.<.<.<.<.<.>.,.>.>.>.:.:.>.>.>.>.<.<.<.<.<.<.<.<.<.<.<.>.<.>.<.>.<.>.<.>.,.<.<.,.<.<.5.6.6.7.7.7.7.8.7.9.8.8.7.8.8.7.8.8.8.8.9.9.9.9.0.0.0.0.r.y.y.y.y.w.y.w.w.q.q.q.0.q.q.r.e.r.t.t.t.t.y.",
"<.<.<.<.<.<.>.<.>.>.>.:.>.>.>.>.<.<.<.<.<.1.3.6.<.<.1.<.<.>.<.<.<.4.<.<.<.,.<.<.4.4.4.5.6.3.3.7.7.8.7.8.8.8.7.8.8.8.7.8.8.8.8.8.9.9.9.9.9.0.0.0.r.r.w.y.y.w.y.y.y.w.r.q.q.q.q.q.r.t.r.y.t.t.t.",
"<.<.<.<.<.5.<.<.>.>.>.>.,.<.,.<.<.<.4.4.4.4.4.7.3.7.3.6.<.6.,.5.6.<.<.3.<.3.<.<.4.6.6.6.6.7.7.7.7.7.8.7.8.7.8.8.8.8.7.8.8.e.7.7.8.9.9.0.0.0.0.0.w.w.w.r.y.y.y.y.y.y.t.0.w.r.r.r.y.y.t.y.t.t.r.",
"5.5.3.6.5.<.<.<.<.,.>.<.,.<.<.<.<.<.6.6.7.7.7.7.7.3.3.3.3.<.6.6.<.2.<.<.<.<.5.3.3.7.3.7.7.3.7.7.7.7.7.8.8.7.8.7.8.7.8.8.8.8.7.e.9.9.0.9.0.0.w.0.w.w.w.t.y.t.y.y.y.y.t.t.r.r.r.t.y.y.y.t.t.t.r.",
"5.6.6.6.6.6.<.<.<.<.,.,.<.5.6.6.3.6.7.7.7.7.7.7.7.8.7.3.6.6.6.6.6.6.6.1.<.5.5.6.6.6.3.3.7.6.7.7.7.7.8.7.8.8.7.8.8.8.8.8.8.8.9.9.9.0.0.e.w.w.w.r.t.r.t.t.y.t.y.t.y.y.y.y.t.w.t.t.y.y.t.t.t.r.r."
};
