/* XPM */
static char *checkbox_hilite_small[] = {
/* columns rows colors chars-per-pixel */
"95 35 112 2",
"   c #0C0C47470202",
".  c #0CF84A0A0202",
"X  c #0EA4527D0298",
"o  c #1495521215D6",
"O  c #1A5A55951F1F",
"+  c #12F96E080202",
"@  c #15567DFE0263",
"#  c #22B53EC86A45",
"$  c #1EEA41356B83",
"%  c #210C41176711",
"&  c #2243414A6BB7",
"*  c #22A342427070",
"=  c #244F4ACB764B",
"-  c #26914E237BE6",
";  c #29CA4E4A7AF1",
":  c #2363511176F7",
">  c #28E94FD07777",
",  c #25FB51517B05",
"<  c #2A3A50B17BEC",
"1  c #15F98172027E",
"2  c #199A96160283",
"3  c #1ADB9E1E02C3",
"4  c #1B83A20E0303",
"5  c #1D1DAA2A0303",
"6  c #1EDFB7370303",
"7  c #20E1B4340747",
"8  c #25A681812EAF",
"9  c #3333BAFA31F2",
"0  c #22EFCF020370",
"q  c #23A4D4EA0366",
"w  c #252CDAFF0400",
"e  c #26F4E3060404",
"r  c #27BDE6660404",
"t  c #28D3ED170485",
"y  c #2DEEE2A20F0F",
"u  c #2920F326040D",
"i  c #2B6BF8780606",
"p  c #4000F6762262",
"a  c #3DBEB57579FA",
"s  c #2EE2C4F869C3",
"d  c #33B1C3296A74",
"f  c #35F6C8E96BEC",
"g  c #38F9C9086A6A",
"h  c #35F6CA0973F4",
"j  c #2C8D56568323",
"k  c #2D6D5A338522",
"l  c #2DFE5D7D8A2A",
"z  c #2FB0541480C0",
"x  c #31D25A3A87A7",
"c  c #32205C00891B",
"v  c #2E6E5FE08989",
"b  c #33F4667E9343",
"n  c #387867A794D4",
"m  c #35A069D494BF",
"M  c #37F86A2A9353",
"N  c #35556D4D9B3B",
"B  c #3AFB6DAD9A9A",
"V  c #3B6671BC9EC9",
"C  c #36D77374A161",
"Z  c #3C2D73EAA267",
"A  c #3E697BFCAB55",
"S  c #40E17394A3A3",
"D  c #40407737A828",
"F  c #42AD7E3EAC16",
"G  c #2EAF88488101",
"H  c #4202BF7F8141",
"J  c #4A4AB4B48E4E",
"K  c #4A0AB7F79292",
"L  c #43CC81F9AD5D",
"P  c #48488343AD2D",
"I  c #40809F9FAAAA",
"U  c #44BE834CB1EE",
"Y  c #48898464B131",
"T  c #44848949B4B4",
"R  c #4ACB8949B7F7",
"E  c #4B4B8747B8B8",
"W  c #45C68C0CBCBC",
"Q  c #49FA8D47BC06",
"!  c #41019D5DB3F3",
"~  c #47879090BE3E",
"^  c #2E2E9292CDCD",
"/  c #397999D9C040",
"(  c #359B955DCF10",
")  c #38C696D2CF2E",
"_  c #3BDC996CCF76",
"`  c #367796B6D0C0",
"'  c #3A1496F5D0A2",
"]  c #3D469A28D0FF",
"[  c #4B8B8E4EC141",
"{  c #47079454C4C4",
"}  c #4B1B9484C3F3",
"|  c #41219BB1CFCF",
" . c #4C3F9BE8CC8C",
".. c #54959C9CC6A6",
"X. c #53439C5CC9E9",
"o. c #58F99D3DCD8D",
"O. c #436A9D43D255",
"+. c #489A9F28D436",
"@. c #5475A2C2CFCF",
"#. c #4621A080D3D3",
"$. c #4C05A1F1D50D",
"%. c #4F4FA3E3D858",
"&. c #53A8A5DED701",
"*. c #5932A64DD673",
"=. c #5670A8BAD797",
"-. c #5A8EAA12D786",
";. c #55ABA6F4D8B8",
":. c #5901A721D993",
">. c #5671A8B4D8D9",
",. c #5BDFAAAAD9FC",
"<. c #626EADD7DBD3",
"1. c #6459B09BDC7C",
/* pixels */
"+.O.] { _ O.] O.] ] _ O._ O.| O.+.+.+.#.#.$.$.&.$.&.$.&.&.$.&.&.$.&.&.&.&.&.&.&.&.&.&.&.&.>.>.>.,.,.,.,.,.,.:.,.,.,.<.,.<.<.<.,.<.<.<.<.<.1.<.1.1.<.<.<.<.,.<.,.<.:.,.<.,.,.,.,.,.,.<.<.<.<.<.",
"+.+.#.] ] ] _ ] _ ] _ O.O.O._ O._ #.| O.+.$.$.$.$.$.$.&.&.$.&.&.&.&.&.&.&.&.&.&.&.&.&.&.:.>.,.>.<.,.,.,.,.,.>.>.*.,.,.,.,.<.<.<.<.1.<.<.1.1.<.1.<.1.<.<.<.,.,.<.,.,.,.,.,.,.,.,.>.<.,.<.<.1.1.",
"$.+.O.] ] ] ] _ ] _ ] _ ] O.O._ ] ] O.| | +.+.#.$.$.$.$.&.&.&.$.&.&.&.&.=.&.&.=.&.;.&.;.:.=.,.<.,.,.>.,.>.>.;.;.:.,.,.,.,.,.<.<.1.<.1.<.1.<.1.<.<.<.1.<.<.,.,.,.-.,.,.,.:.<.,.,.,.,.,.<.<.,.1.",
"$.#.O.#.] ] ( ] ] _ ] ] O.] _ ] _ _ _ _ | | _ #.#.$.$.$.$.$.&.&.$.&.&.>.&.=.&.&.&.;.;.:.;.>.>.,.,.>.>.>.;.;.:.;.;.,.,.<.<.<.<.<.<.1.1.1.<.<.<.<.*.<.<.<.,.,.,.,.,.,.,.,.,.,.,.,.,.,.<.<.<.<.1.",
"$.#.+._ ] _ ` _ ` _ _ _ _ _ ` ` ) ) ` _ ] _ | +.+.+.$.&.&.$.&.&.&.&.&.=.&.*.&.&.&.&.*.;.*.>.>.>.>.>.>.>.&.>.&.&.>.>.>.>.,.<.<.<.1.<.<.1.<.<.<.,.<.:.,.>.<.,.:.:.,.:.,.,.,.,.<.,.,.<.,.<.<.<.<.",
"$.$.#.O._ O.] ] ] _ _ _ _ ] _ ) ) ) _ ` ] ] O.O.+.+.$.$.$.$.%.&.=.=.&.&.=.&.&.=.;.*.;.;.:.,.>.>.:.>.&.&.&.&.&.&.>.>.,.,.,.<.1.<.<.<.<.<.<.<.,.,.:.:.;.:.:.,.,.,.:.:.,.,.,.,.,.<.,.<.<.,.,.<.<.",
"%.$.#.O.O.] O.` ] ` ) ` ` ` ` ( ` ) ) ) ) _ _ _ +.#.#.$.&.&.&.&.&.=.=.&.&.=.&.=.&.>.;.:.:.>.>.&.*.&.&.&.&.&.&.&.;.>.,.,.,.1.,.<.<.,.<.,.,.,.,.,.:.:.*.*.>.,.,.,.,.,.<.,.,.,.,.,.<.,.,.<.<.,.<.",
"$.$.#.O.| O.] / J h s s s s s s s s s d s d g d d g H I $.&.&.&.&.&.=.&.&.&.&.&.=.&.:.;.;.&.;.&.;.&.&.&.&.&.&.&.>.;.,.>.,.,.,.,.<.<.,.<.<.,.,.>.:.:.&.;.>.,.,.,.,.,.,.,.,.,.<.,.-.<.,.,.<.<.<.",
"#.#.+.O.+.] ] K p i u u u u u u u u u u u u u u u t y 9 $.$.$.&.&.&.&.&.&.&.*.;.:.>.:.:.:.&.&.;.&.=.&.&.&.&.&.&.;.;.>.>.>.,.,.,.<.-.-.,.-.-.,.*.;.>.*.&.>.>.>.:.>.,.,.,.,.-.<.,.-.-.<.<.,.<.<.",
"&.#.+.#.O.O.] d t t r e r e e r r w r e r e e r r w 0 2 +.&.&.&.&.=.&.=.=.*.;.;.:.>.>.&.=.>.*.&.;.=.&.&.&.&.&.&.&.&.>.>.>.,.,.,.=.<.<.<.<.<.,.>.&.&.;.*.&.=.:.*.>.,.,.<.,.,.-.-.<.,.,.,.<.,.,.",
"$.#.+.O.O._ _ d r e w w w w w w w w w w w w w w w q 5 @ &.&.&.&.&.&.=.*.:.=.>.>.>.=.,.>.,.>.:.*.&.&.&.&.&.&.&.&.&.;.;.&.>.>.,.,.,.,.<.,.,.<.*.,.>.;.=.&.&.&.&.=.>.,.,.,.,.<.<.,.,.,.,.,.<.,.-.",
"$.$.+.#.+.] _ d r e w w w w w w w w w w w w w w w q 4 + $.+.&.$.&.&.*.;.:.,.,.>.<.,.,.,.,.,.>.&.=.&.&.&.=.>.&.&.&.&.>.;.=.=.=.,.,.-.=.<.<.-.>.>.:.>.&.&.&.&.=.>.,.-.,.<.,.,.,.,.*.,.,.,.,.,.,.",
"&.$. .+.O.] _ d r w w w w w w w w w w w w w w w w q 3 + #.$.$.&.$.&.&.&.;.,.,.<.,.,.=.>.,.-.,.*.&.&.=.;.&.=.>.=.*.&.&.*.&.;.=.>.*.=.<.-.<.,.,.-.:.&.=.&.&.&.>.=.,.,.,.,.<.>.,.,.,.,.*.,.,.,.<.",
"$.$.#.+.+.] ] d r w w w w w w w w w w w w w w w w w 4 + #.#.$.$.&.&.&.&.;.>.=.U # # P <.< & ; <.; & & & # S U & & # : Z ;.W & c ,.; $ ..,.m * P Y & & L ;.; & , ,.>.>.<.>.<.,.,.,.,.,.,.*.,.*.",
"&.$.#.#.+.O.] d r w w w w w w w w w w w w w w w w q 4 + #.+.$.#.$.%.&.&.;.:.>.U # & m X.& & , >.> & B Z Z Q L & < V = # T [ & k >.; & o.<.m # U L # & m  .# & ; >.>.=.>.,.,.,.:.,.,.,.:.:.,.,.",
"$.$.$.$.+.O.+.d r e w w w w w w w w w w w w w w w w 4 + | +.+.#.$.&.%.&.;.>.>.Y $ k ; P & k ; ,.> & k l l { U $ b =.A $ N Q & l :., & ..,.M & U P $ x - P & j ; *.:.:.>.>.,.,.,.*.,.*.*.,.,.<.",
"+.$.#.+.+.+.+.d r e w w w w w w w w w w w w w w w q 4 + ] +.+.+.+.$.&.$.&.>.&.L & V & j j c : -.< $ x x l } U # b &.U # b Q $ l &.> # X.,.n % Y P & Z % k j v < &.*.>.>.,.,.>.=.=.,.=.,.,.,.,.",
"&.$.+.+.#.+.+.d r e w w w w w w w w w w w w w w w q 4 + ] O.+.#.+.$.$.%.%.%.&.L & Q & & V c , -.< * X.&.;.&.U $ b &.b & V [ & x &.j & Q ,.l & Q Y # Q & & V c ; :.&.;.>.>.>.,.,.=.>.>.,.,.,.<.",
"+.$.+.+.+.O.+.d r w w w w w w w w w w w w w w w w q 3 + _ ] O.+.+.+.+.$.#.&.&.L & Q j $ R v ; -.; & & $ & b L & # # # =  .W & c &.L & & = & , *.U & Q k # R x ; =.&.;.;.=.=.>.>.=.>.=.,.,.<.<.",
"+.+.+.O.+.O.O.d r e w w w w w w w w w w w w w w w w 4 + _ O._ _ O.O.+.+.$.%.*.{ V  .R Z @.P A :.A Z Z Z Z U { C Z C A +.&. .V L >.&.R N b Z o.>.} Z o.R Z *.U F >.=.>.>.*.=.:.>.>.,.,.,.,.<.<.",
"#.#.#.| ] O.O.d r w w w w w w w w w w w w w w w w q 3 + ] ] ] ] ] ] +.+.+.#.$.%.=.&.&.=.;.;.;.&.&.&.&.&.&.&.;.&.&.$.&.$.&.&.=.&.&.>.&.&.&.&.;.;.-.,.,.,.>.>.>.,.:.=.*.;.;.>.;.>.,.>.,.<.,.<.<.",
"#.#.#.| O.O.O.d r e w w w w w w w w w w w w w w w q 4 + ] ] O.] O.O.O.+.+.+.$.$.%.&.&.&.&.&.&.&.&.&.&.&.&.&.$.&.&.&.$.&.%.%.&.&.&.&.&.&.&.&.&.;.>.=.>.>.>.>.=.>.=.>.&.;.=.&.&.>.=.>.,.,.<.-.<.",
"$.#.$.| O.| O.a e w w w w w w w w w w w w w w w w q 4 + ] ] ] O._ O.O.O.+.O.$.$.$.$.$.&.&.$.%.&.$.&.&.&.&.$.&.&.&.$.&.&.&.$.&.%.&.&.&.%.&.&.&.>.=.&.>.>.>.=.&.:.>.=.>.>.&.=.&.=.>.>.,.,.-.<.<.",
"$.#.O.$.O.| | s e w w w w w w w w w w w w w w w w w 4 + ] ] { ] | O.] O.+.+.+.$.$.$.$.#.$.$.$.$.$.$.$.&.&.&.&.$.&.&.$.$.&.&.%.&.&.%.&.&.&.&.;.&.=.=.&.>.=.=.=.&.>.>.:.:.=.&.&.>.,.,.,.=.-.<.<.",
"$.$.+.+.+.] +.d r e w w w w w w w w w w w w w w w q 3 + ' ] O._ _ O.] O.+.#.+.$.#.$.+.+.#.#.$.$.$.$.$.&.&.$.&.$.+.&.$.&.X.&.&.&.&.&.&.&.&.&.&.&.>.&.*.&.&.&.&.&.&.;.;.&.&.&.&.;.>.,.,.,.,.<.<.",
"$.$.$.+.+.O.] d w w 0 0 q 0 0 0 0 0 0 0 0 0 0 0 0 7 1 X ) ] ' _ _ ] | O.O.O.O.+.O.+.+.O.O.+.+.$.$.$.$.$.$.$.$.&.$.&.&.&.$.$.&.$.&.&.&.&.&.%.&.&.=.;.&.=.=.=.&.=.:.=.&.&.&.&.&.;.>.,.,.,.>.<.<.",
"#.$.$.+.+.+.O.a 7 2 @ 1 1 1 1 1 1 @ @ 1 @ 1 @ @ @ X X o ) ' ' ) _ ] O.| O.O.O.O.+.+.O.O.+.O.O.#.$.$.$.#.$.$.$.&.&.$.&.$.$.$.&.&.&.&.&.&.%.$.&.&.&.;.>.;.*.&.&.&.&.&.&.&.&.&.&.;.:.>.,.,.,.<.<.",
"$.$.+.$.#.#.+.! 8 X . . . . . . . . .   . . .       o a ` ) ) ) _ ] ] O.O.O.O.] ] ] O.O.O.O.O.O.O.+.+.$.#. .$.$.+.&.+.&.&.&.$.&.=.&.=.&.%.&.&.&.>.>.>.:.>.&.&.&.&.&.&.&.%.;.;.*.*.>.:.>.<.<.<.",
"$.+.+.+.+.#.#.O.+.O.#.O._ O.] _ ] ` ( ( ^ ^ ^ ( ` ` ( ) ) ) ) | ] _ ] O._ _ | O.] ] O.O.O.O.O.O.O.O.+.+.+.+.+.#.$.$.&.+.$.+.&.&.&.=.&.&.@.&.&.&.&.=.>.=.>.=.&.&.&.&.&.&.&.&.&.&.;.>.>.,.<.<.<.",
"$.+.+.%.%.#.O.] ] O.] ] ] ] ] _ ' ` ( ( ^ ( ^ ( ` ` ( ) ) ) ) ' ` _ ] ] ] O._ ] ] ] ] ] _ _ O.| O.O.O.+.+.+.#.#.$.$.+.&.&.&.%.&.&.&.&.&.&.&.&.&.;.>.>.:.>.;.=.;.&.&.&.=.&.;.;.>.;.,.,.<.,.<.1.",
"$.+.#.#.+.#.O.O.] ] ] ] O.] ] _ ] ) ( ( ( ( ( ( ( ` ' ( ) ' ' ' ` ] _ _ O.] O._ ] _ _ O.O._ O.O.O.O.O.O.+.+.#.#.$.$.$.$.+.&.+.*.&.&.&.&.&.&.&.&.&.=.=.&.=.&.*.:.&.&.>.>.>.>.=.>.:.,.,.<.<.<.<.",
"$.$.#.+.+.O.O.O.] { ] #._ O.] _ ` _ ) ( ( ( ( ^ ( ' ( ( ) ' ' ' ) ) _ _ _ ] _ _ ) ] _ _ _ _ _ ] _ O.O.] +.+.$. .$.#.+.+.&.$.$.&.&.&.=.&.=.&.*.&.&.&.&.&.&.&.=.-.=.=.>.>.,.,.>.=.,.,.,.,.,.<.1.",
"&.$.+.$.+.+.O.O.O.] O.O.| | | ) ' ( ( ( ( ( ( ( ( ` ) ) ' ' ' ` ] ) ( ] ` ] _ _ ] ) _ _ ) _ ] ] ] ] ] #.O.+.+.+.| +.+.+.$.$.$.&.&.&.&.;.;.;.&.>.;.&.&.&.*.;.:.>.,.,.,.,.,.,.,.,.,.,.,.,.1.<.1.",
"$.$.$.$.+.+.O.O.O.O.] ' | | ' ) ) ' ' ' ( ( ( ( ' ` ) ) ) ` ] ` ) ( ] ( ` _ ] ` ) ) ) ) ) ) ) ] ] ] _ O.O.#.+.+.+.+.+.+.#.$.$.$.$.&.&.;.;.;.;.=.;.;.=.&.>.=.>.>.>.,.,.,.<.,.,.<.,.<.<.<.1.1.1.",
"&.$.#.%.#.+.+.O.+.O.+.O.| ' | ) ) ) ( ( ( ( ( ( ' ` ' ) ) ) ` ] ) ) ) ] ) ` ( ) ) ) ) ) ) ) ] ] _ _ _ #.O.O.+.#.+.+.+.+.+.$.$.$.$.&.$.&.&.;.>.>.>.>.>.>.:.>.,.<.<.:.,.,.>.,.,.<.<.,.<.<.<.<.1."
};
