/* XPM */
static char *checkbox_hilitechecked_small[] = {
/* columns rows colors chars-per-pixel */
"95 35 246 2",
"   c #0ACB20E11CDD",
".  c #0BEC2A6B1A1A",
"X  c #0F9021E218D9",
"o  c #10912BAC1A1A",
"O  c #14D53BBC1F1F",
"+  c #0DB81C47244F",
"@  c #0DE31D682BF6",
"#  c #10101E5E2EEF",
"$  c #0B0B22E32121",
"%  c #135337371FA0",
"&  c #1293226234B5",
"*  c #1313244439DA",
"=  c #125228E93CBD",
"-  c #0D054A6E0202",
";  c #0F904ACB0687",
":  c #0EEF53D402C3",
">  c #165650D116D7",
",  c #13076CCF0254",
"<  c #135370700202",
"1  c #15967EFF0283",
"2  c #19DA73330DCE",
"3  c #185854542424",
"4  c #1C1C4A8A3E3E",
"5  c #1D9E60E12565",
"6  c #1E9F66A62868",
"7  c #206061A12626",
"8  c #212164E529AA",
"9  c #292972933131",
"0  c #15B62A8A45A6",
"q  c #18992EEF4707",
"w  c #18992EEF4F8F",
"e  c #179835F64707",
"r  c #16D72FF04BCC",
"t  c #1CDD35F64E4E",
"y  c #1A05330852D3",
"u  c #1CDD36B75A5A",
"i  c #1FE039795D1D",
"p  c #1E383B6E626F",
"a  c #1E9F3D7D68E9",
"s  c #22833DBE6444",
"d  c #241C3EBF6B63",
"f  c #1B9C498946C7",
"g  c #1E5F52B34222",
"h  c #1C5C40C15595",
"j  c #1FE05DDE4242",
"k  c #222254544808",
"l  c #1E5E450563A3",
"z  c #1F1F42726ABA",
"x  c #227241716484",
"c  c #22C641616B12",
"v  c #29BF44EF6CC2",
"b  c #23A4494968E9",
"n  c #2CAD4A8A6E2E",
"m  c #2FF046866CAC",
"M  c #243945F07045",
"N  c #253B4A9575EB",
"B  c #26464EBF7A5A",
"V  c #2AAB4F4F7B3B",
"C  c #32524D2D74D5",
"Z  c #34344F4F78B8",
"A  c #262751F27BDC",
"S  c #2BAC52527D5D",
"D  c #37F857177030",
"F  c #36B754147A7A",
"G  c #3ABB53937838",
"H  c #3D3D7F7F65E6",
"J  c #3FC05B5B7B7B",
"K  c #428273B36AEB",
"L  c #450561217FBF",
"P  c #160581D7027F",
"I  c #199A96D60283",
"U  c #1BA9A3830316",
"Y  c #1F1FB8780303",
"T  c #1FA0A3A30A0A",
"R  c #2424B2320D0D",
"E  c #2C2CA4241D5D",
"W  c #2A6A81412FB0",
"Q  c #296980403878",
"!  c #347486C639FA",
"~  c #3BFCA2223C3C",
"^  c #3434B5B53030",
"/  c #3DFEBB7B3575",
"(  c #230CCECE0376",
")  c #25A6CFCF0788",
"_  c #240AD54E0364",
"`  c #2577DB2E0442",
"'  c #27A8DD1C0747",
"]  c #27A8D4D40A0A",
"[  c #2981DB7E0A79",
"{  c #2F6FD7D71555",
"}  c #2EFFDA6A13C4",
"|  c #30B1DBCB1616",
" . c #3435DA9A1D1D",
".. c #2702E32303FF",
"X. c #27DBE666041F",
"o. c #2929EDED0505",
"O. c #2AABE0A00A8B",
"+. c #290CF2CF0404",
"@. c #2D8DF4F409CA",
"#. c #3722DC7120A1",
"$. c #3838DADA2262",
"%. c #3BBCD1912CED",
"&. c #3D0DDAAA2AFB",
"*. c #3F7FC1003979",
"=. c #3F7FD9993070",
"-. c #4141D9592DAE",
";. c #416CD62B3389",
":. c #4606D8D83636",
">. c #44E5D9DA3959",
",. c #3FC0E0E02E6E",
"<. c #48C9F2722FF0",
"1. c #34B586C64D4D",
"2. c #36B795554A0A",
"3. c #3EFFAF2F4949",
"4. c #2DEE89497EFF",
"5. c #3D3DB9797B3B",
"6. c #42C3AAEA4A4A",
"7. c #4141BFFF4202",
"8. c #44C5BCFC4989",
"9. c #4BCCA6A65EDF",
"0. c #4ACBB1B15A9A",
"q. c #5A5A87877F7F",
"w. c #35E6C31D6B20",
"e. c #3858C24C6BE1",
"r. c #34B5C8736B2B",
"t. c #3A5BCAEB6BCC",
"y. c #3A7AC4C47333",
"u. c #3F3FC88876B6",
"i. c #49CACD6D45A6",
"p. c #4707C5044888",
"a. c #4B8CC9294DAE",
"s. c #4989D99940C1",
"d. c #5111D0904D8D",
"f. c #5090C40354D5",
"g. c #5D9DE6255292",
"h. c #4121CEBE6E4E",
"j. c #5E1EC98960E1",
"k. c #4F0FCE0D7F3F",
"l. c #4141D05070F1",
"z. c #6404CD6D6A4A",
"x. c #7070C4C47D7E",
"c. c #2A2A55B68202",
"v. c #26665A1A81C1",
"b. c #2C7D5A6A8474",
"n. c #2C825BC68A4A",
"m. c #2FB05E9E88C8",
"M. c #2C2C64648606",
"N. c #2DEE5FE08D0D",
"B. c #32CC62558BB2",
"V. c #2D2D64C594B4",
"C. c #2DEE68289757",
"Z. c #2F2F6DAD9C5C",
"A. c #31C2646492D2",
"S. c #38F966A69353",
"D. c #31716A6A9717",
"F. c #32206E819DF9",
"G. c #3BFC6A6A99D9",
"H. c #362672029E2E",
"J. c #3A3A750A9F4A",
"K. c #33D46F4FA0C1",
"L. c #35B672B2A020",
"P. c #39FA7343A101",
"I. c #3BFC7838A020",
"U. c #335A7A87AC2C",
"Y. c #3AD47B14AB2B",
"T. c #3A7A7E3EB030",
"R. c #40805E9E8383",
"E. c #496962C384E5",
"W. c #53036BAB8AEA",
"Q. c #519170B08CCC",
"!. c #55156F2F9010",
"~. c #414174349F1F",
"^. c #5C5C72329090",
"/. c #68E97AFB97D7",
"(. c #66067D3D9A7A",
"). c #40007B3BA5E5",
"_. c #3E1E8121AD0D",
"`. c #3BBC83C3B333",
"'. c #3E3E8E6EBFDF",
"]. c #4F4FB8F89414",
"[. c #5151BD7D9ADA",
"{. c #70B0BC7C80C0",
"}. c #7F7FAEEE9D5D",
"|. c #77B7B57592D2",
" X c #7F7FB6369151",
".X c #7EFFB7379818",
"XX c #43839ADAAE2E",
"oX c #415B842AB49A",
"OX c #459B8A0AB6B6",
"+X c #44448B6BBD3D",
"@X c #47C88EAEBDDE",
"#X c #50908A0AB3B3",
"$X c #44049090BDBD",
"%X c #75158A4AA443",
"&X c #78B88B4BA4A4",
"*X c #797992F3A0C0",
"=X c #7C3C9E9EA4C4",
"-X c #7CFD9252A828",
";X c #7C7C9999B2F2",
":X c #7878B6F6AF2F",
">X c #7939C60584C4",
",X c #76B6D5148343",
"<X c #3CFD9A1AC141",
"1X c #3DC39A71CFA3",
"2X c #3A3A9797D0D0",
"3X c #3DC09AA9D130",
"4X c #470797D7C787",
"5X c #496A9313C403",
"6X c #464696D6C8C8",
"7X c #4B0B96B7CB8B",
"8X c #41559BA0CF4A",
"9X c #4AFE9C42CDA7",
"0X c #43F39D3DD2C4",
"qX c #48DA9F27D416",
"wX c #4A4A9E9ED8D8",
"eX c #50509FDFD797",
"rX c #4A6AA202CF6F",
"tX c #5050A161D00F",
"yX c #46B4A09AD4A7",
"uX c #4BB9A1CFD50F",
"iX c #4D22A2D8D8CE",
"pX c #5259A4F8D634",
"aX c #5899A565D4D4",
"sX c #55F7A8A1D762",
"dX c #596FA978D79F",
"fX c #5578A6CAD8D0",
"gX c #58B9A666DA3A",
"hX c #5664A8EAD8D5",
"jX c #5CF0AB0FDA23",
"kX c #6EAEA929CFCF",
"lX c #7EBEA9A9CA4A",
"zX c #5FE0AA2AD817",
"xX c #62B8AE01DBDA",
"cX c #669FB0B7DCEA",
"vX c #6A19B289DDC9",
"bX c #7030B171DADA",
"nX c #8181A7A79D1D",
"mX c #82C39CDDA343",
"MX c #84C49757AA6A",
"NX c #84C49E9EA828",
"BX c #85C5A424ABEB",
"VX c #90D0A1E1B575",
"CX c #95D5A6A6BA7A",
"ZX c #9212A828BF3F",
"AX c #8D8DAE6EC807",
"SX c #9393AD6DC3C3",
/* pixels */
"1X1X3X<X3X3X3X3X3X0X3X0X0X0X0X0X0X0XyX0XuXyXuXuXuXuXuXuXpX#XpXpXiXuXuXqXuXuXuXpXuXpXuXuXrXpXpXuXuXuXrXpXuXuXpXpXqXaXpXpXuXpXpXpXsXpXgXhXhXhXhXhXjXjXxXxXxXcXvXvXcXvXvXvXvXbXvXvXvXvXvXvXbXvXvX",
"3X3X3X3X3X3X3X3X3X3X3X8X0X0X0X0X0X0XyXyXuXuXuXuXuXuXuXaX;XS.iXuXuXuXuXyXuXuXuXuXuXuXuXuXuXuXuXuXuXuXuXuXuXpXrXpXeXuXpXpXtXpXpXpXpXsXhXdXhXjXjXjXjXjXzXxXxXcXcXvXvXcXvXvXvXvXvXbXbXvXbXvXvXvXvX",
"3X3X3X3X<X3X1X3X3X3X3X3X0X0X0X0XyXyXuXuXuXyXuXuXuXqXaXSXW.B.pXuXuXuXuXuXuX0XuXrXyXuXuXuXuXpXuXpXuXuXuXuXuXpXuXpXpXuXrXuXqXpXpXpXpXpXgXfXjXjXjXjXjXxXzXxXxXcXcXvXcXcXvXvXvXvXvXvXvXvXvXvXvXvXvX",
"0X3X3X3X0X1X1X1X3X0X0X0X3X0X0X0XrXyXuXuXuXpXpXuXuXpXAX-Xx P.uXuXuXuX0XuX0XuX0X0X0XqXwXyXuXqXuXuXuXyXuXuXuXyXpXiXqXuXuXuXuXuXuXpXpXsXpXdXhXjXjXjXjXxXxXxXxXcXcXcXcXcXcXvXvXvXbXvXvXvXvXvXvXvXvX",
"0X0X3X3X0X0X1X3X1X0X0X1X0X0X0XwXuXuXiXpXuXpXpXeXuXAXVXR.w ).uXuXyXqXqXuXuX0X0X8X3X0XyX0XuXqXuXwXqXqXyXuXuXuXpXyXuXuXuXuXuXuXuXpXpXpXpXhXjXgXjXjXjXxXxXxXxXvXcXcXvXvXvXvXbXvXvXbXvXvXvXvXvXvXvX",
"0X0X0X3X3X3X1X1X1X0X1X8X3X8X0X0XuXiXsXpXpXpXaXaXkXVX(.v q H.uXyXuXuXuXuX0X0X0X0X0X0X0XyX0XuXqXqXqX0X0XuXuXuXuXuXuXyXuXyXqXuXuXuXuXpXpXsXpXdXjXjXxXjXjXxXxXxXcXxXvXvXvXvXvXvXvXvXvXvXvXvXcXvXcX",
"yX0X0X3X0X0X3X0X0X0X8X0X0X8X8XwXpXpXsXhXhXhXeXeXSX&Xm.s q M.yXuXuXuXpXwX0X3X3X1X3X0X0X0XuXyXqXqX0X0XuXqXiXiXuXuXuXrXuXuXqXqXuXuXuXpXpXpXgXhXjXjXjXhXxXxXxXcXvXvXvXvXvXvXvXvXvXbXvXvXvXvXvXcXcX",
"yX0XyX0X0X3X0X<X].u.r.r.r.r.w.w.t.h.l.h.h.l.k.:XMXE.m s 0 b uXuXuXpXuXyX0X0X0X1X1X0X0X0X0XqX0XqX0X0X0XqXyXiXuXuXyXuXuX9XuXuXuXuXpXpXpXpXpXgXpXjXfXjXxXxXcXcXvXvXvXvXvXbXvXbXvXvXvXvXcXvXcXvXcX",
"wX0X0XqX0X0X3X[.<.@.+.+.+.+.+.+.+.+.+.+.+.+.g.}.(.C s y # = 9XiXpXuXuXqX0X3X1X1X0X0X0X0X0XwX0XqXqXyX0X0XyXqXwXwXuXuXuXuXuXuXuXuXuXuXuXpXpXpXsXpXfXjXjXxXvXxXvXvXvXvXvXvXvXvXbXvXbXvXvXvXcXcXjX",
"0XqXqXyXyXyXqXy.o.+.X.X.X.X.X.X.X.o.X...X.=.x.*XR.s y + & S rXpXuXuXqX8X0X3X3X8X0X1X3X0X0XqX0XqX0X0X0XuX0XqXrXuXuXuXuXuXpXuXuXiXuXuXuXuXpXpXpXpXhXhXjXxXxXxXxXxXvXvXvXvXvXvXvXvXbXvXvXvXcXcXcX",
"uX0XyX0X0X0XwXe.X.` ` ` ` ` _ ' ` ` ` ` } z.BX^.v w $   I.pXpXiXwX0X0X0X3X3X3X3X3X0X0X0X0X0X0X0XqX0XqX0XqX0XqXuXuXwXaXuXpXuXuXuXuXuXuXuXrXpXpXsXhXhXjXzXxXxXvXvXvXvXvXvXvXvXvXvXvXvXvXvXcXcXxX",
"wXqXyXyXyX9X0Xe.X...` ` ` ' &.p.&.` _ O.>.|.%XG u # o 5 pXsXpXpXqX0X1X2X3X3X3X0X0X3X0X3X0X0X0X0X0X9XqX0X0XrXwX0XuXpXyXpXpXpXpXuXuX0XuXuXuXiXpXpXhXhXjXxXzXxXxXvXvXbXvXvXvXvXvXvXvXvXvXvXcXcXjX",
"qXqXuXuX0XyXyXe.X...` ] ' &.x.%Xf.O.`  .>XmX!.u & . 9 2 sXpXpXuX0X1X<X3X2X3X3X3X8X0X0X0X3XyX0X0XyX0XyX0XqXqX9X6X6XuXuXpXrXpXiXpXwXuXeXuXpXuXuXpXfXhXhXzXjXxXxXxXvXvXvXvXvXvXvXvXvXvXcXxXcXxXcX",
"yXuX0XuXrXuX0Xe.X.` ' { :.>XnXb 2.| ` s.}.&XC 0   ! E < pXpXpXuX8X2X2X2X3X3X3XY.z z c d c 0XyXZ.c c Y.yXwXY.N d v n.tXA.c J.pXH.d A.rXrXuXuXuXpXsXpXhXjXjXxXxXvXvXvXvXvXvXvXvXvXvXvXcXcXcXjXjX",
"yXrXyXuXuX0XqXe.X.O.;.j.nX*XW.i g ;.| z.=XW.u + 8 ;.T < pXpXyX0X1X2X2X2X2X3X3XU.d A Z.F.F.0XyXA M x n.yXyXN c +Xn.S +X7XN M OXc N 9XyXpXuXuXwXuXpXpXsXdXjXxXxXxXvXvXvXvXvXvXvXvXvXvXvXcXcXjXcX",
"yXyXuXuXyXyX0Xe.X.#.0.K K Z b i h 3.>..X&Xv $ O i.] U < pXuXqX0X1X1X3X1X2X2X3XU.d N b.v.D.0X+Xc N.c.c 7XyXS c A A.`.pXuXoXc c z oXpXpXuXuXuXpXpXpXfXhXhXjXhXxXxXvXvXvXvXvXvXvXvXvXvXvXcXcXxXcX",
"uXuXyXyXwX0X0Xe.X.'  .^ j r i a s H ,XBXQ.0   6.} ` U < yX0X0X1X2X3X3X1X3X1X2XU.d N c.n.F.0XH.c C.C.c Y.uX7XD.B c c `.pXpXB.d m.pXpXpXuXuXpXpXuXpXpXdXdXjXgXxXxXcXcXvXvXvXvXvXvXvXvXcXcXcXcXcX",
"qXuXqXqX0X0X0Xe.X...` ] 7.4 w p v J =X/.x + 9 &.` _ U , 0X0X0X3X8X3X1X0X3X3X3XU.d V.0X0X9XuXB x c c d S 7XB.A.pXP.s D.sXpXP.d I.iXpXpXpXiXpXpXpXpXaXsXdXjXjXxXxXxXcXvXvXvXvXvXvXvXvXvXvXcXcXcX",
"qXyX0XyX0X0X0Xe.X...` ` [ a.k t x F E.n = % i.[ _ _ U < uX0X0X0X0X0X3X3X3X0X0XU.d c z c c `.c N `.Y.N z 5XA c B.V c OXhXgXP.d P.iXpXpXpXuXpXpXpXpXdXhXhXhXzXxXjXxXcXvXvXvXvXvXvXvXvXvXvXvXcXcX",
"qX0X0X0X0X0X0Xe.X.` ` ` ] | a.j u s c 0 $ ~ | ` ` _ U , 0XyXqXuX0X0X0X0X0X0X0X'.F.F.H.K.K.`.D.oXyXuX_.H.+X7XI.B.G.@XsXpXgX@XJ.OXiXpXpXpXpXsXpXsXfXjXhXhXjXhXjXzXxXcXvXvXvXvXvXvXvXvXvXvXcXvXcX",
"uX0X0X0XyX0X0Xe.X.` ` ` ` ` | 8.f u w # 6 &.' ` ` _ U , wXyX0X0X0X0X0X0X0X8X0XqX0XyX9X0XyXyXuXwXuXuXpXuXiXpXuXpXfXsXpXsXpXfXfXiXpXpXpXpXfXfXfXfXgXdXsXdXsXjXjXxXjXcXxXxXcXcXvXvXvXvXcXcXcXcXcX",
"wXyXyXyXyX0XqXe.X...` ` ` ` `  .9.e & . / ] ` ` ` _ U , yXyXqX0XqX0X0XqX0X0X0X0XyXyXyXyX0XuXyXeXuXuXpXuXpXpXiXpXfXhXpXpXpXpXfXfXpXpXfXpXfXiXfXfXhXpXfXfXdXhXhXxXjXjXxXcXcXcXcXvXvXcXcXcXcXcXcX",
"yXuX9XyXuXyXqXe.X.` ` ` ` ` ` ` -.1.# 9 #.` ` ` _ _ U , uXuXyXyX0XqXwX0XqXqXqXqXqX0X0X0XyXuXrXuXiXiXpXtXiXpXpXpXpXpXpXpXpXiXpXpXfXfXfXhXfXsXhXgXhXhXsXhXfXhXjXjXjXjXjXxXxXcXcXcXcXcXcXcXcXxXxX",
"uXqXuXrX0XyXuXe.X.` ` ` ` ` ` ` ] d.3 ;.[ ` ` ` ` _ U < 0X0XyX9XuXuXwXyXuXuXuXuXuXuXyXyX0XqXyXyXuXuXuXpXpXpXpXpXpXpXpXpXsXpXsXsXhXhXfXpXsXpXgXfXgXsXdXsXhXjXjXjXxXjXxXjXjXxXcXcXcXzXcXcXcXxXxX",
"yXuXuX0XwXyXwXe.X...` ` ` ` ` ` ` | %. .` ` ` ` ` _ I , 0X0XuXqXuXyXuXyXuXuXuXuXwXuXuXuXuX0XuX0XuXuXeXuXaXuXpXpXpXpXpXaXpXpXsXsXfXhXhXhXhXhXjXhXhXhXjXhXjXjXjXjXjXxXxXxXjXxXxXjXxXxXxXxXxXxXxX",
"0X0X0XwXyXyXyXe..._ ( ( ( ( ( ( ( ( ( ( ( ( ( ( ( Y P : uX0XyXuXuXuXuXuXuXuXuXpXpXpXuXuXuXqXqXuXuX9XpXpXuXpXuXwXuXpXpXpXpXpXfXhXjXjXjXjXjXjXjXgXjXjXjXjXjXhXxXxXxXxXjXjXjXxXxXjXzXjXjXxXjXjXjX",
"0X0X0X0X0XyX3X5.R I P P P P P P P 1 P P P P P P 1 , : > 0XuXqXuXuXuXuXuXqXpXpXpXpXuXpXqXuX0XuXrXuXuXqXpXpXpXpXpXpXpXwXaXpXfXpXhXhXjXjXjXjXjXxXjXjXjXjXxXjXjXxXjXxXxXxXxXxXjXjXhXjXjXjXxXjXxXjX",
"0X0X0X0X0XyX0XXX9 : - - - - - - - - - ; - - - - - ; 3 4.uXyXqXwXuXpXpXpXuXpXpXpXuXpXpXuXuXuXwXuXuXpXpXuXaXqXpXpXpXpXpXpXpXfXdXjXjXjXjXjXjXjXjXxXjXxXjXxXjXcXjXxXjXxXxXxXxXjXjXjXjXjXjXjXjXjXjX",
"yX0XyX0X0X0X0X0XuXyX0XuXyXuXyXuXuXuXuXuXuXuXuXuXuXuXuXqXrXyXuXpXpXpXpXpXpXqXpXaXpXpXuXqXuXuXuXrXuXuXuXpXpXpXpXpXpXpXpXsXhXhXdXhXjXjXjXjXxXxXxXxXcXjXjXxXjXxXjXjXjXxXxXxXjXjXjXhXjXjXjXjXjXjXjX",
"0X0X3XyX0X3X0X0X0XyX0X0X0XyXwXyXuXyXuXuXuXpXpXpXwXpXyXuXyXqXqXiXeXpXpXpXpXpXpXuXpXpXpXpXuXuXpXpXpXpXpXpXpXpXfXfXgXdXpXpXpXhXhXzXxXjXxXxXjXxXxXxXxXxXxXjXxXzXjXxXxXxXjXjXjXjXjXjXhXjXjXjXxXjXxX",
"0X0X0X0X0X0X0X0X0X3X0X8X0X0XyXuXqXuXuXqXuXuXpXuXpXpXuXuXqXuXuXuXpXpXpXpXpXqXpXpXpXuXpXpXaXuXpXpXpXpXpXpXpXfXhXhXdXhXdXdXhXhXjXxXxXxXxXxXcXxXcXxXxXxXxXxXjXxXjXxXxXjXzXjXjXjXjXjXjXxXjXzXjXjXjX",
"0X0X0X0X0X3X0X0X3X0X8X0X0X0X0XyXqXqXyXuXuXuXuXpXpXuXuXuXyXuXpXpXpXpXpXpXpXpXpXpXpXpXpXpXpXpXpXpXpXpXsXaXpXfXdXhXjXzXjXjXjXjXhXxXjXxXcXcXcXxXxXxXcXxXxXxXxXxXxXdXxXjXjXjXjXjXjXjXjXxXjXjXxXxXxX",
"0X8X8X0X0X0X8X0X0X1X1X0X3X0X0X0X0XqXuXuXqXpXwXpXpXeXpXpXuXpXpXpXpXpXgXpXpXpXpXwXpXpXpXpXpXdXhXfXdXhXhXfXfXgXdXhXjXjXzXjXjXjXzXxXjXxXxXcXcXxXcXxXcXcXxXxXxXjXjXxXgXjXjXjXjXjXjXjXjXjXjXjXjXxXjX",
"0X3X0X8X2X3X0X0X8X1X0X8X0X0X0XuXqXuXqXuXuXuXpXpXpXpXpXuXpXpXuXpXpXpXpXpXpXpXpXpXpXeXpXpXsXgXhXdXhXjXhXhXjXhXdXhXjXjXjXjXjXxXxXxXxXxXxXxXcXcXcXcXcXcXxXxXzXjXxXjXjXjXjXjXjXjXjXdXjXxXxXxXxXxXxX",
"0X0X0X0X8X8X2X8X0X8X8X0X0X3X0X0X0XqXuXuXuXuXuXpXuXpXpXpXpXpXpXpXpXpXpXpXpXpXpXpXpXpXpXpXfXdXdXjXgXjXjXjXhXhXdXsXdXjXjXjXjXjXjXxXxXxXxXxXcXcXcXcXcXcXcXcXxXxXxXxXgXzXgXzXjXzXaXdXdXjXzXxXxXxXxX"
};
