/* XPM */
static char *checkbox_hilitechecked_small[] = {
/* columns rows colors chars-per-pixel */
"95 35 232 2",
"   c #0A8B1E5E1CDD",
".  c #0C62224D1CDD",
"X  c #0D232B41192F",
"o  c #15153B7B1D9E",
"O  c #0D631C0724CF",
"+  c #0E9F1CED2B3B",
"@  c #0FD01EBE2F2F",
"#  c #0E0E21E22464",
"$  c #12D323233737",
"%  c #129324CF3B10",
"&  c #0D184A680237",
"*  c #0E8F54F50202",
"=  c #141450901818",
"-  c #13036D620232",
";  c #139472720202",
":  c #17D874340848",
">  c #161640002161",
",  c #1757565620E1",
"<  c #1D1D5E9E25E6",
"1  c #1F1F65252868",
"2  c #2060646425A6",
"3  c #222267A72929",
"4  c #26A773F42FB0",
"5  c #29EA71F23434",
"6  c #14D52AC04570",
"7  c #16D72D6D4949",
"8  c #18592D4D4A8A",
"9  c #189937B846C7",
"0  c #169733F44C0C",
"q  c #18382FD04C8C",
"w  c #1A5A328B52B3",
"e  c #1E1E36F75ADB",
"r  c #1E5E3A7A5CDD",
"t  c #1E493B7C6479",
"y  c #206B3DE9645A",
"u  c #23183F0F69C4",
"i  c #1C1C46864303",
"p  c #1D9E4A0A4181",
"a  c #1D7E52B341C2",
"s  c #1C1C43C45393",
"d  c #2161539342C3",
"f  c #21A25EDF4747",
"g  c #1F5F418166E7",
"h  c #1E3641516BC3",
"j  c #218C40D6653A",
"k  c #27E845056464",
"l  c #222A41296B34",
"z  c #2ACB45A56C8D",
"x  c #21E24A4A6828",
"c  c #23A443E47050",
"v  c #256549AA7636",
"b  c #2A154B7673B4",
"n  c #25E64F2F78D9",
"m  c #29B34E0E7ADF",
"M  c #34344E4E75A0",
"N  c #276750107777",
"B  c #29EA50107777",
"V  c #263C517C7A4F",
"C  c #29DD51117BFC",
"Z  c #3DFE5D5D7171",
"A  c #387953F47919",
"S  c #3DFE7DBD66A6",
"D  c #40005B7B7B7B",
"F  c #40406F6F6CAC",
"G  c #15E68179027F",
"H  c #1A1A97D70343",
"J  c #1B8AA27F0338",
"K  c #1FA0BB3B0303",
"L  c #2121B1F10808",
"P  c #2666830330B1",
"I  c #2A6A80C031B2",
"U  c #347487073C3C",
"Y  c #2E6EA5E521A2",
"T  c #3BFCA1A13DBE",
"R  c #3474B37331B2",
"E  c #3CBDB93937F8",
"W  c #232BCF0203AC",
"Q  c #245CD4CC0384",
"!  c #257FDB41044A",
"~  c #27A8D31209CA",
"^  c #2A08DC880ADF",
"/  c #2DEEDA6A1242",
"(  c #304ADB81156F",
")  c #33F4DB3B1CDC",
"_  c #2720E3DD040E",
"`  c #27D9E657043A",
"'  c #28E9ED0C04A4",
"]  c #2912F30A0404",
"[  c #2D0DF514092A",
"{  c #36A1DA852076",
"}  c #3CDDD2F22E8F",
"|  c #3D2DD9B92B6B",
" . c #3737E0601FA0",
".. c #3D7DF5B51FE0",
"X. c #4181DADA2D6D",
"o. c #4000C1003A3A",
"O. c #3FC0D6563070",
"+. c #4318D959344A",
"@. c #45C6D9993A5A",
"#. c #4141E2E22DAE",
"$. c #367682024D8D",
"%. c #377795D54787",
"&. c #3F7FAE6E4A0A",
"*. c #31F2840479B9",
"=. c #34B5BFFF69EA",
"-. c #3CBDBB7B78B8",
";. c #41C2A8E849CA",
":. c #4282BF3F4383",
">. c #4484BC3C4888",
",. c #4B8BA7A75DDE",
"<. c #4D8DB0705B5B",
"1. c #589883837F7F",
"2. c #2F04C44F69B4",
"3. c #33A2C2BF6AB6",
"4. c #3575C7C77131",
"5. c #4646C6C64606",
"6. c #4849CC0B4363",
"7. c #4DCECB0A4CCD",
"8. c #4989D9183FC0",
"9. c #5090D4544C4C",
"0. c #4D8DC7065111",
"q. c #4B8BC4C45858",
"w. c #5818E5244D0D",
"e. c #41C2C6C67F3F",
"r. c #6221C9C96666",
"t. c #6565CBCB6D2D",
"y. c #6FAFC5457979",
"u. c #7030C9087FBF",
"i. c #2CFA55C98242",
"p. c #2D0D5A9484BE",
"a. c #2E4E5D1D88C9",
"s. c #30E45B5B8686",
"d. c #31215C5489A1",
"f. c #31B166068888",
"g. c #344E668D93AD",
"h. c #37F867A79515",
"j. c #351068689438",
"k. c #3A7A68289252",
"l. c #35F66CAD9BFC",
"z. c #3AFB6F2F9A3A",
"x. c #357571F29ADA",
"c. c #3D0D72229F7F",
"v. c #36F77394A242",
"b. c #3B7B73D8A292",
"n. c #3DFE7A5AA403",
"m. c #3DD37AD0A8BE",
"M. c #42C35E9E8484",
"N. c #4585626280C0",
"B. c #48E962028363",
"V. c #4ECF6BAB8B4B",
"C. c #52926A5A8A5A",
"Z. c #569670308E0E",
"A. c #5C5C72329090",
"S. c #68E97C3C96D6",
"D. c #65057D7D9A7A",
"F. c #410172F3A4A4",
"G. c #42827B7BA868",
"H. c #3F7F8000AC2C",
"J. c #7A7A95159F9F",
"K. c #4B0BB7178F4F",
"L. c #70B0BBBB81C1",
"P. c #7777B4349393",
"I. c #7F7FB6369151",
"U. c #7D7DB0F09A5A",
"Y. c #43888299AE3B",
"T. c #4464832FB1E9",
"R. c #48888555B404",
"E. c #45458909B3B3",
"W. c #496A8A0AB7D7",
"Q. c #4ACB87C7B9B9",
"!. c #46468E23BB3B",
"~. c #4B148D84BD21",
"^. c #515188C8B232",
"/. c #414197D7B232",
"(. c #46C790D0BDBD",
"). c #75F68747A161",
"_. c #75768A2AA3C3",
"`. c #79198DCDA3A3",
"'. c #7CFD9D1DA444",
"]. c #7CBC9292A868",
"[. c #7E3E9C9CB1B1",
"{. c #75F6B171AAEA",
"}. c #7878C30284C4",
"|. c #7535D1918848",
" X c #2E2E9292CDCD",
".X c #38F99898C1C1",
"XX c #35999562CF17",
"oX c #389796DECF65",
"OX c #3BEF9996CF54",
"+X c #368396B0D06A",
"@X c #39DF970FD08C",
"#X c #3D169A12D13A",
"$X c #4A0A8F4FC040",
"%X c #4A0A9363C3E3",
"&X c #412F9BDBCFB8",
"*X c #4D049CAFCDA8",
"=X c #50509757C2C2",
"-X c #56569A9AC747",
";X c #53A09B9BC9E3",
":X c #59999D1DCC0B",
">X c #43479D2DD254",
",X c #48909F22D438",
"<X c #57179F1FD090",
"1X c #50D1A0A0D00F",
"2X c #4682A060D42F",
"3X c #4BDAA1E6D522",
"4X c #4F4FA323D898",
"5X c #53D1A5E0D6EF",
"6X c #5912A679D69F",
"7X c #5649A8CAD76B",
"8X c #5A9EA9AED79C",
"9X c #551BA6FBD8C1",
"0X c #58B6A72BD99D",
"qX c #5679A8AED8D6",
"wX c #5BCBAAB3DA01",
"eX c #6525A363CF8F",
"rX c #7D7DAA2AC848",
"tX c #60A1A949D797",
"yX c #6269ADEBDBC3",
"uX c #6565B0B0DCDC",
"iX c #8707AD2D9F5F",
"pX c #81C1BA3A9656",
"aX c #84449CDCA7A7",
"sX c #84849797AAAA",
"dX c #85459999A9A9",
"fX c #8404A323A2A2",
"gX c #8888A8A8A8A8",
"hX c #8E4EA121B838",
"jX c #94D4A626BBBB",
"kX c #9151A8A8BEBE",
"lX c #8FCFAD6DC949",
"zX c #9151AB6BC605",
/* pixels */
",X>X>X.X#X>X#X#X>X#X#X>X>X>X>X>X>X2X,X2X3X2X5X3X5X5X3X5X5X^.4X5X5X5X5X5X5X5X5X3X5X5X5X5X9XqX0XwX0XwXwXwXwXwX0XwX7XwXwXwXyXyXyXyXyXyXyXyXuXyXyXuXuXuXuXuXyXyXwXwXyX0XwXwXwXwXwXwXwXwXwXyXyXuXuX",
",X,X>X>X#X#X#X#XOX#X#X#X#X>X>X#X>X>X>X>X,X3X2X2X2X3X3X6X[.j.5X3X3X5X5X5X5X5X5X7X5X5X5X5X6XqXwXwXwXwXwXwXwX0X0X7X0XwXyXwXyXwXyXyXyXuXyXyXyXyXuXyXuXyXyXyXtXyXyXwXwXwXwXwXyXwXwXwXyXwXwXuXyXyXwX",
",X,X>X>X#X#X+X#XOX#X#X>X2X#X#X>X#X#XOX&X&X,X,X,X3X2X6XzXC.f.3X5X5X5X5X5X5X5X7X5X5X5X9XqX9X0X0XwXwXwXwXwX0X0XqXqX0XwXwXwXwXwXwXyXuXwXyXuXuXuXyXyXyXwXyXyXwXwXwXwXwXwXwXtXwX0XwXwXwXwXwXyXyXuXyX",
"3X,X>X>X#X#X#X#X#X#X.X#XOX#X#XOX#XOXOXOX&X&X&X,X3X1XzX].j c.3X4X5X5X5X7X7X7X5X5X5X9X9X9X9X0X0XwXwXqXqXqX5XqX5XqX0XwXwXyXyXyXyXyXyXyXuXuXuXyXtXyXyXwXtXwXwXwXwXwXwXwXwXwXwXwXyXwXuXwXwXyXwXyXuX",
"3X3X,X#X>XOX+X#XOXOXOXOXOX#X+X+X+XOXOXOXOXOX&X2X,XrXhXB.8 G.5X5X5X5X5X7X7X7X5X5X5X5X5X6X7X0X7X0XqXwX9X5XqX9X5X7X7X7XwXwXwXwXuXuXyXyXuXyXyXyXyXwXwXwXwXwXwXwXwX0XwXwXwXwXyXwXwXwXwXyXwXyXyXtXyX",
"3X3X2X>X>X.X+X#X#X#XOXOXOX#X+XOXOX+XXXOX#X#X>X#XeXjXD.z 7 x.5X5X5X5X7X5X5X5X7X5X9X5X6XqX0X0X0XqXqXqX5X5X5X5X5X5X7XwXqXwXyXyXyXyXuXyXyXyXyXwXwXwXwXwX5X0X0XwXwXwXwXwXwXwXwXwXwXyXwXyXyXwXwXyXyX",
"4X3X>X>X#X#X>X#X+X+X+X+X+X+XXXXX+X+X+XOXOXOXOX*XkX_.A y 7 f.3X5X7X7X5X7X7X5X5X5XqXqXqXqXqX7X7X0X9XqX5X5X5X5X5X5X5X5XwXwXwXwXwXuXyXyXyXyXyXwXwXwX0XqXqXqX0XwXwXwX0X0XwXwXwXwXwXwXyXwXwXyXyXyXyX",
"3X3X2X>X>X>X#X.XK.4.2.2.2.2.2.2.2.2.3.2.2.3.e.{.sXC.b y 7 x 5X5X5X5X5X5X5X5X5X7X6X5X0XqX7X5X5X5X5X5X5X5X4X5X5X4XqX5XwXwXwXwXwXwXwXyXwXwXyXwXwXqXqXqX0XqX0XwX0XwXwXwXwXyXwXyXwXwXwXyXwXwXwXyXyX",
"4X2X,X2X>X#X#XK...[ ] ] ] ] ] ] ] ] ] ] ] [ w.gXD.M y q $ % *X5X5X5X5X5X5X5X6X5X0XqX0X7X0XqX5XqX5X7X5X5X5X4X9X5X5X5XqXqXwXqXyXwXyX8XwXwXtXwX7XwX0X6X5X7X0X0X0X0XqXwXwXwXwXyXwXwXwXwXyX8XyXwXyX",
"3X2X2X>X>X#X#X4.] ' _ _ _ ` ` _ _ _ _ _ _ #.L.`.M.j w O # C 2X5X5X7X7X5X5X7XqXqX0X0X0XqX7XqX5X5X5X7X5X5X5X5X5X5X5XqXqXqXqXwXwXwXwXwXyXwXtXtXwX7XqX5XqX5X7X6X7X7XqXwXyXwXwXwXwXwXwXtXyXwXyXwXwX",
"3X2X,X2X>X#X#X=.` _ ! ! ! ! ! ^ ! ! ! ! / r.fXA.z w O . n.3X4X5X5X5X5XqX0X0X0X7XwX7XwXqXwXqXqX5XqX9X5X5X5X7X9X5X5X9X5X5X5XqXwXwXwXwXwXyXtXyXwX7X5XqX7X5X5X5X5X5X0XwXwXwXyXwXwXwXwXwXwXwXyXwXtX",
"1X3X>X,X>X>X#X3.` _ ! ! Q ^ | 5.| ! ! ^ @.P.).A w @ X 1 ,X3X4X4X5X5XqXqX7XwXwXwXwX7XwXwXwXwX0XqX5X5X5X5X7X5X5X5X5X5X9X9XqXqXqXwXwXwXwXwXyXwXwXwXqX5X5X5X5X5X5XqX0XwXyXwXwXwXwXwX8XwX8XwXwXwXwX",
"5X3X2X,X&X#X.X=.` _ ! ! ! X.y.1.q.^ ! ) }.dXC.r $ X 4 : 3X2X3X3X4X5X5X5X5X0XwXtXtXwX7XwXwXwX0XwXqX5X7X9X7XqXqX5X6X5X5X6X4X5X7XwX7XwXtXwXyXwXwXwXqX5X5X5X9X5X5X8XwXwXwXwXwXwXwXwXwX8X6XwXwXwXwX",
"3X2X3X,X,X#X>X3.` ! ! ^ @.}.aXZ %.( ^ 8.U.).M 6   U Y ; >X3X3X4X4X5X5X5X7X0X7XR.l l T.tXC j m tXm h h l u F.T.l h t n b.qX$Xh a.6XC l -XyXh.l Y.R.u l Y.qXm h V wX0XwXwX0XwXwXwXwXwXwXwXwXwXtX",
"1X3X3X2X,X,X>X3.` ^ +.r.pX`.C.y f | / t.'.Z.w O 3 O.J : >X3X3X,X,X5X5X4X7X0X0XY.l l j.:Xl l m 0XC l z.b.b.~.Y.l i.z.v u E.%Xl a.7Xm l :XwXj.u R.T.l l j.;Xl l m 0X7X7X0XwXwXwXwXwXwX8X6X6XwXwX",
"3X3X3X3X3X>X,X3.`  .<.F D M x y s &.@.pX`.z @ > 6.~ J - >X>X,X3X4X5X4X5X5XqX0XE.l p.m Y.l p.C wXm l p.d.a.%XT.h g.qXm.j l.!.l a.7XC l ;XwXh.u R.Y.l p.m Y.l i.m 7X0X0XwX0XwXwXwXwX8X6X8XwXwXwX",
"3X3X3X,X,X,X>X3._ _ { R a 0 r l g S |.gXC.7 . ;./ Q J ; >X>X,X,X3X3X3X3X5X7X5XT.j b.l s.i.a.N tXn u s.d.a.%XT.l g.qXT.h g.~.h a.5Xm l ;XwXh.j R.Y.u F.j s.i.a.C 7XqX5XwXqXwXqXwX7XwXqXwXtX8XwX",
"3X3X3X,X,X,X2X3._ _ ! ! :.i q t x D J.S.k # 5 | ! Q H ; #X>X>X,X,X3X3X5X4X4X7XY.l Q.l l c.d.V 7Xm c ;X9XqXqXT.t g.5Xg.u b.~.l s.9Xi.t ~.wXa.l Q.R.l ~.l j F.d.m qX5XqXqXqXwXqXqXqX7X7XwXtXwXwX",
"3X3X,X,X,X,X,X3._ _ ! ! / 0.d w j A B.b % o 6.^ ! Q J - #X>X>X>X,X,X,X4X2X5X5XH.l ~.i.l W.f.m 8Xm l l y l j.H.l u u u v *X!.l d.5XY.l h b l C 7XY.l (.a.l !.a.C 7X5X5XqXqXqXwXqX7XwX7XwXtXyXyX",
",X,X,X&X>X,X>X3._ _ ! ! ! / 7.a e j l 7 . T ( ! ! ! J - .X>X#X>X&X&X,X,X2X4X5X%Xb.*XW.b.5XG.m.wXm.b.b.b.b.E.%Xx.b.v.G.,X4X*Xv.T.7X5XW.l.j.c.1X7X=Xb.:XR.b.5XT.m.qX5XqXqX5X5X5XwXwX7XwXwXwXyXyX",
"2X2X>X>X#X>X>X3.` ! ! ! ! ! / >.i e w + 1 | ! ! ! Q J - #X>X#X.X>X.X,X,X2X3X4X4X5X5X5X7X7X7X5X5X5XqX5X5X5X5X5X4X5X3X4X<X5X5X5X5X5X5XqX7X5X5XqX5X7XwXwXqXwXwXwXqXqXqX6XqX7X7X5XwXqXqXwXwXwXyXyX",
"3X>X>X>X>X>X>X3.` ! ! ! ! ! ! { ,.9 $ X E ^ ! ! ! Q H ; @X#X>X>X>X>X>X,X2X*X2X3X4X3X5X5X5X3X5X5X5X5X5X5X5X5X5X4X5X3X4X5X5X5X5X5X5X5X5X5X5X5X9X9X0X7XwX0X7X7XqXwXqXqXqXqX7X7X5X5XqXwXwXwXwXyXuX",
"3X>X>X>X>X>X>X3.` _ ! ! ! ! ! ! +.$.# 4 { ! ! ! ! Q J - #X#X#X&X>X>X>X>X,X,X,X3X2X5X5X4X5X5X4X5X4X5X3X5X5X4X4X5X3X5X5X3X5X3X5X4X5X5X4X5X5X5X9X9X7X5XqX0X5X5X5XqXqXqXqXqX7X4X5X7XqXqXwXwXwXyXyX",
"3X3X,X,X,X>X>X3.` ! ! ! ! ! ! ! ^ 9.< o.^ ! ! ! ! Q J - #X#X#X#X#X>X>X>X,X,X,X,X3X3X3X2X2X4X2X3X3X4X5X3X5X5X3X5X3X5X5X3X4X5X5X3X5X4X7X4X5X4XqX5XqX7X6X5X5XwX5X5XqXqXqXqX5X5X7XqXwXwXwXwX8XwXyX",
"3X3X3X>X2X>X>X=.` ! ! ! ! ! ! ! ! / } ) ! ! Q ! ! W H - #X#X#X#X#X#X>X>X,X,X,X,X2X3X,X,X>X3X3X4X2X5X2X5X3X5X5X5X5X5X3X5X3X5X5X3X5X5X5X5X4X7X5X5XqX5X5X5X5XqX5X5X5XqXqX6X5X5X9XqX0XwXwXwXwXyXyX",
"2X3X3X,X2X>X>X4.^ ! W W Q Q W W W W W W W Q W W W K G * @X@X#X#X#X#X#X#X>X>X>X,X,X,X,X>X>X,X2X3X3X3X3X4X3X3X3X3X3X5X5X5X5X3X3X5X5X5X5X5X5X4X5X5XqXqX6X5X5X5X5X7X6X5X5X9X5X5X5X9XwX0XwXwXwXwXyX",
"3X,X3X,X2X2X2Xe.L H G G G ; G G G G : G G G G ; G - * = +X@X#X#X#X.X>X>X>X>X>X>X>X>X>X>X>X,X,X2X2X4X3X*X2X3X3X5X5X5X3X3X3X,X5X5X5X5X5X5X4X5X5X5X5XqXqXqX7X5X5X5X9X5X5X,X5X5X5X9XqX0XwXwXwXuXyX",
"2X3X3X3X2X2X2XH.P * & & & & & & & & & & & & & & & * = *.+X@X@X.XOX#X>X>X>X>X#X>X>X#X>X>X#X>X>X>X&X,X2X,X3X2X2X4X3X3X3X1X3X5X5X5X5X7X7X5X3X4X3X7X5X0X0XqXqX7X5X5X5X5X5X5X5X9X9X9X7X0X0XwXwXuXuX",
"3X2X,X2X,X2X>X>X.X>X>X>X#X#X#X#X+X+XXXXX X X XXX+X+XXXoXoXoXoX@X#X#X>X#X#X>X#X>X#X#X#X>X>X#X>X>X,X>X,X,X*X3X2X2X3X4X3X;X5X3X5X3X5X5X5X5X5X1X5X5X5XqXqX5X0XqX5X5X5X4X5X5X4X5X5XqXqXqX0XwXwXyXyX",
",X3X,X3X3X2X>X>X>X>X#X>X>X#XOX#X#XOXXXXX XXXXX X+X+XoXoXXXOX@X@X+X#X#X>X#X>X#X#X#X#X>X#X&X>X&X>X&X,X&X,X,X,X2X3X3X3X3X5X<X4X5X5X5X5X5X5X5X5X5X5XqXqX0XqX7X5X7X5X5X5X5X7X5X5X5XqXqXwXwXwXyXyXyX",
"4X3X,X2X,X2X,X>X#X>X.X#X>X#X#XOX#X+XXXXXXXXXXXXX+XXXXXoXoXoX@X@X@X#X#X#X#X#X#X#XOX#X#X>XOXOX>X&X>XOX>X>X2X3X2X3X2X3X3X3X3X3X5X5X5X5X5X7X5X5X5X5X5X7X5X5X7XqX5X7X5X7X7X7X7X0X5XqXqXwXwXwXyXyXyX",
"3X,X3X,X2X2X#X>X#X#X>X>X#X>X#X@X+X+XXXoXXXXXXXXX+XXXXXoXoX#X@X@X+X+X#X.X#X#XOX#X#XOXOX#XOXOXOX>XOX>X>X>X&X2X2X2X,X3X2X3X3X5X3X4X5X5X7X5X7X7X5X5X5X5X5X5X5X6X7X7X7X7X0XwX0XwX0X0XwXwXwXyXwXyXuX",
"4X3X,X,X,X,X>X>X>X&X@X&X&X@XoX@X@XXXXXXXXXXXXXXXXX+X+X+X@X@X@X@X@X#XXX#X#X#X#X+XOXXXOXOX+XOX#XOX#X#X>X>X>X,X,X,X,X&X,X3X3X3X4X9X5X5X5X5X5X7X7XqX9X5X5X5X5XqXqX0XwXwXwXwXwXwXwXyXwXuXwXuXwXuXuX",
"4X4X4X,X,X,X,X>X>X>X>X>X&X&X&X@X@X@X@XXXXXXXXX@X+X+X+X+X@X@X#X@X+X+XXX#XXX#X+XOX+XOXoX#X@XoX#XOX#X#X#X>X,X,X>X,X,X,X>X3X3X3X3X4X5X3X5X5X6X7XqX7X9XqX5X9X7XwX0X0XwXwXwX0XwXwXwXwXwXwXwXwXyXuXuX",
"4X2X,X5X,X,X>X>X>X>X>X>X>X@X&XXX@X@X@X@XXXXXXXXX+X+X@X+X@X@X.X#XoXoX@XoXXXOX+X+XXXOXOXXXXX#XoXOXOXOX#X>X>X,X>X>X,X,X,X>X3X2X,X2X3X5X5X5XqX5X5X0X7X0XqXqX0X0XwXwXwXwXwXwXwXwXyXwXyXyXwXuXyXyXuX"
};
