/* XPM */
static char *leftdisabled_small[] = {
/* columns rows colors chars-per-pixel */
"25 25 38 1",
"  c #4CA28F39BB25",
". c #4E099252BED2",
"X c #52DE9348BDCB",
"o c #58E596F0BF58",
"O c #4DF593E2C1E4",
"+ c #52FB9592C1B7",
"@ c #5479992BC597",
"# c #5A059A2FC2DF",
"$ c #55959EDECD0C",
"% c #58989D5DC8C8",
"& c #5D32A14CCC36",
"* c #4CC9A2C2D4E8",
"= c #5384A5AED6B3",
"- c #5AC5A691D4FF",
"; c #54EAA8BED797",
": c #5A47A943D79D",
"> c #5443A6ACD8F5",
", c #5898A767D959",
"< c #5C7CAB09D9CC",
"1 c #61EEA48ACE81",
"2 c #6363A747D212",
"3 c #63B6AA98D6C4",
"4 c #68A0AB33D54C",
"5 c #63F6AED6DB58",
"6 c #6A15AE18DA6F",
"7 c #7030AF2FDB5B",
"8 c #6AAAB2B2D797",
"9 c #66ADB0CBDCE5",
"0 c #6B11B32ADDF2",
"q c #7177B61BDF31",
"w c #7475B878DF9F",
"e c #6DCEB4E5E0E1",
"r c #724BB6ECE11D",
"t c #75FEB905E0E9",
"y c #7B99BBD4E2B0",
"u c #8149BEB8E3EE",
"i c #843AC0B7E4F7",
"p c #8888C1C1E5E5",
/* pixels */
"yuyuuyyyt009<<<<-=*******",
"uuyuyuyyrr0<:::;=-*******",
"iiiuyyyt00<;==;>2$=***=**",
"iiuuuyyrq9<;==><-@>===>=>",
"iiiuyytr05:>==<4@O;===;;>",
"iiiyyyre05:>==2%..;>:;;;>",
"iiuyyte05<:>321@..::;::<:",
"piyytrr05<>34&%XOO<<:::<:",
"uuyyrw095:341+OO .:<<5<<:",
"pyytw0e55341@O O .<5<55<<",
"uytww065342@OOOO..:9855<5",
"uurww0062&%+OOOO..599955:",
"uyrrq605#oX.OOOOXX9999995",
"uyyrr00e4#+OO+O+.X9909095",
"uywwrqe963#X.+++.o5000995",
"uyyyrre9964X O++.@5990999",
"uuuyyw000065+X+#X#9690095",
"uuyyywww00re4#ooX#0690995",
"uuuyytwrq60qw6#oX#0099995",
"uuuyyyrwrqqqrq7oXo6699995",
"iyuyytrter0qer04oo0009995",
"uuuuywww000qwrww8o0009995",
"iuuuyr0000e060qw000099965",
"iiiyyt0099560er0q00009995",
"iiiuyrw005959000q00009955"
};
