/* XPM */
static char *lefthilite_small[] = {
/* columns rows colors chars-per-pixel */
"25 25 101 2",
"   c #010172B20C4C",
".  c #040584440566",
"X  c #094981C104C5",
"o  c #03C48BDB034E",
"O  c #07C88B4B0586",
"+  c #03448ACB08A9",
"@  c #03C495550283",
"#  c #04049ADA0586",
"$  c #016290F10808",
"%  c #15968B4B1C5C",
"&  c #199A8F8F17D8",
"*  c #14D593F41737",
"=  c #145C95DC1AB7",
"-  c #17D893931899",
";  c #13A999841BB1",
":  c #0162A4C404A5",
">  c #0338AC600338",
",  c #0081AFAF0788",
"<  c #0220B55303BB",
"1  c #02D8BB25032E",
"2  c #07C8BF3F02C3",
"3  c #1656ACEC199A",
"4  c #2F6F99D93EFF",
"5  c #0101C4840141",
"6  c #01E2D2D303A4",
"7  c #0061D595096A",
"8  c #0040D8580B8C",
"9  c #1151D7D70E8F",
"0  c #1C5CFABA1F1F",
"q  c #21C2FB1B1B3C",
"w  c #1BDCD5142666",
"e  c #14D5F02F2363",
"r  c #1C1DFC5C2566",
"t  c #27A8F1F130B1",
"y  c #2D43A6FC436E",
"u  c #2E2EA6664828",
"i  c #3151A7474465",
"p  c #29AAB2324686",
"a  c #4080AE6E68A8",
"s  c #59DAFEBE5E1E",
"d  c #46C7D1106060",
"f  c #4444D0D068A8",
"g  c #5B9BFB7B61A1",
"h  c #6C2CEE6E6DAD",
"j  c #64E5FEBE6424",
"k  c #6868FEBE63E4",
"l  c #69A9F6766C2C",
"z  c #64A4FE7E6EAE",
"x  c #6AAAFEBE68E9",
"c  c #68E9FE7E7575",
"v  c #53D4B6B6B7F7",
"b  c #5515BBFBB1B1",
"n  c #5111B3F3BA7A",
"m  c #5818B777BC7C",
"M  c #5D0DBAFBBD5D",
"N  c #6363BD1DBF9F",
"B  c #5D5DC6C69C5C",
"V  c #6EAEDA9A8D8D",
"C  c #61A1C7879FDF",
"Z  c #6525CA4A9F9F",
"A  c #7171D6569B9B",
"S  c #6404C989A282",
"D  c #6969CB75A666",
"F  c #5360ABEBCCFF",
"G  c #4CF1A335D4D1",
"H  c #53A8A600D679",
"J  c #552EA9DCD487",
"K  c #59B5AAEAD68D",
"L  c #5697A747D898",
"P  c #5899A7E7D96E",
"I  c #5656A9A9D9D9",
"U  c #5BF1AAB2D9E1",
"Y  c #5E1EB0F0D413",
"T  c #6ACABEAEC45C",
"R  c #6B2BBD9DCCCD",
"E  c #638AAE9CDB1A",
"W  c #6898AF3FDBDB",
"Q  c #61E2B333D393",
"!  c #6AAABD3DD110",
"~  c #666FB0CFDCB6",
"^  c #6B35B34BDDD1",
"/  c #71B1BA7AD7D7",
"(  c #722EB59CDEDB",
")  c #734BB8B0DF06",
"_  c #6EC1B575E0CE",
"`  c #72A8B70BE0C5",
"'  c #75C3B8D0E116",
"]  c #7C1BBC2FE2F5",
"[  c #6C5CC109C413",
"{  c #6EAEC141C848",
"}  c #735EC257C55A",
"|  c #7313C121CAEB",
" . c #7E7EC080DF9F",
".. c #85C5F2B28FCF",
"X. c #8989F2928EAF",
"o. c #8787F2F29353",
"O. c #8B6BF1D19232",
"+. c #8B0BF2B29919",
"@. c #81A2BF0EE41B",
"#. c #843AC0B9E4F8",
"$. c #8888C1C1E5E5",
/* pixels */
"] ] ] ` ] ] ] ] ' _ ^ E E E E U U I H G G G G G G ",
"] @.#.#.] ] ] ] ' _ ~ E U U K P F b F G G G G G G ",
"@.@.@.@.@.] ] ' ) ^ ~ I I H L F B d n G G G G G G ",
"@.#.#.@.] ] ] ' _ W U I H H F S h w v G G G H H H ",
"#.#.#.@.] ] ' ` ^ E U H G F S O.t 3 m H H H H H G ",
"$.@.#.] ] ] ' ` ^ E U K F C o.g 2 ; M H H H H H H ",
"#.#.@.] ] ' ` ^ W E K F S +.k e @ = m I I K I U H ",
"#.#.@.] ] ` _ _ E U K D X.c r 5 O ; M U U P U U U ",
"$.@.] ] ' _ ^ ~ E K D X.z q 6 > $ * M U U U U U U ",
"#.] ] ' ` ) ^ E Q D O.k q 7 1 > $ * N U E Q U E U ",
"#.] ' ' ` ^ ^ T A X.k r 8 < < > o = N E E E E U U ",
"#.] ] ) ` ^ R V l s 0 6 < < 1 : + = [ E ~ E E E E ",
"@.` ] ` _ ^ ! f 9 7 5 < < < < > o = T ^ ~ E ~ E E ",
" .] ' ' ) ^ ^ } p $ : > < < < > o ; [ E ^ ~ ^ ~ E ",
"@.] ] ( ( ^ ^ ~ N y . : < < 1 > o = R ~ ^ ~ ~ ~ E ",
"] ] ] ' ` ^ / ^ ~ T i + : > < > o = T ~ ~ ^ ^ ~ ~ ",
"@.@.] ] ' ( ( ^ ^ W T u . : < , o = [ ~ ^ ^ ~ ~ E ",
"@.@.@.` ] ( ` ^ ^ ^ ( | i + : : o * [ ^ ~ ^ ^ E E ",
"@.@.@.] ] ' ' ) ^ ^ W ( } i + # o * [ ~ E ^ E ~ E ",
"@.@.] ] ] ] ' ) ( ` ( ( ( } u X . & [ ~ ^ ~ ^ ~ E ",
"#.] ] ] ] ] ` ` ` _ ^ ` ) ) } u   & [ ^ ~ ^ E E E ",
"@.@.@.#.' ' ' ( _ ^ W ` ( ^ ) | 4 % [ ^ ^ ~ ~ ~ E ",
"@.@.] ] ] ' ) ^ ^ _ _ ^ ^ ( ( ) } a R ^ ^ ^ ^ E E ",
"#.#.#.] ] ' ^ ^ W ^ W W ^ ^ ( ( ^ / ^ ^ ~ W ~ E E ",
"#.#.#.] ] ) ( ^ ~ ~ ~ ~ ^ ^ ^ _ ) ^ ^ ^ ^ ^ ^ E E "
};
