/* XPM */
static char *playhilite_small[] = {
/* columns rows colors chars-per-pixel */
"90 25 248 2",
"   c #055B5EDF0586",
".  c #007564870505",
"X  c #01C26B00027C",
"o  c #0000661D0852",
"O  c #0242736D01D3",
"+  c #02327CBB0210",
"@  c #00207C1C0869",
"#  c #08486CAC1010",
"$  c #00CD83A402F0",
"%  c #0CCD81810000",
"&  c #01188B99022C",
"*  c #07888E0E0040",
"=  c #0159857509D2",
"-  c #00CD8BB208FC",
";  c #019A942F02D1",
":  c #00E99D0A02C5",
">  c #00A19454098A",
",  c #094994940848",
"<  c #001A9C690923",
"1  c #07C89C9C08C9",
"2  c #034399591A5A",
"3  c #0128A4C00239",
"4  c #0808A2A20040",
"5  c #00CAAE1D01AD",
"6  c #096AAF0F00A1",
"7  c #00A1A514095A",
"8  c #0000A9A908C9",
"9  c #012FB4CD01FA",
"0  c #0849B287022D",
"q  c #01B3B9F802BA",
"w  c #0A4BBB100242",
"e  c #0191B67B0999",
"r  c #098AB3B30808",
"t  c #00D1BB1B0A9B",
"y  c #0E8FAC6C19DA",
"u  c #1656AB2B1717",
"i  c #1818A8A8199A",
"p  c #0000B0F01394",
"a  c #00C1BC7C0FD0",
"s  c #0DCEBEBE1697",
"d  c #0646B5B51818",
"f  c #15D6BEBE16D7",
"g  c #13D4B8B81959",
"h  c #23A4A1211EDF",
"j  c #25E6BDFD1E1E",
"k  c #3CBDBD3D1F5F",
"l  c #1A9B9A9A2626",
"z  c #2FF0BCFC28E9",
"x  c #31B2BCFC3636",
"c  c #016CC22C01D8",
"v  c #01C2CF0E0101",
"b  c #0889CF0E02C3",
"n  c #0182CA8A0788",
"m  c #05C6CBCB1050",
"M  c #1697C6461293",
"N  c #1D7EC6E61C5D",
"B  c #0F90C8C81C1C",
"V  c #0788D4D41616",
"C  c #0ECFDB1A1E5E",
"Z  c #0747E2A20747",
"A  c #0747EC6C0C0C",
"S  c #0ABBED6A0BB2",
"D  c #01ADF3BE045A",
"F  c #0404FE1D043A",
"G  c #010FF3640788",
"H  c #0545FE7E0A0A",
"J  c #0505FDFD1394",
"K  c #0D0DFD7D1252",
"L  c #1313F6351818",
"P  c #1919FF3E1C9D",
"I  c #1D1DC1C124A5",
"U  c #22E3C0C020E1",
"Y  c #2323CA2A2464",
"T  c #2A6ACA4A2929",
"R  c #3BFCC7872969",
"E  c #3DFEC1C13C7C",
"W  c #2A8BD1B13333",
"Q  c #23E4D95936F7",
"!  c #3939D6D63BBC",
"~  c #2B2BF2313535",
"^  c #3ABBFEFE3EFF",
"/  c #4242DA9A3C3C",
"(  c #38B9A8684343",
")  c #3D3DBC7C43C4",
"_  c #3979BD7D4949",
"`  c #3D7D915173B3",
"'  c #3A7AA4647070",
"]  c #52D3BB3B4D8D",
"[  c #6121BCFC5EDF",
"{  c #46BA968972F2",
"}  c #4808974273B3",
"|  c #460698187232",
" . c #4A3099597528",
".. c #41419DDD7E7E",
"X. c #4ECF9E5E7DFE",
"o. c #4FD0BCFC64A4",
"O. c #48C9A36378F9",
"+. c #36F7C2C24585",
"@. c #3ABBC0804000",
"#. c #3939C9C94787",
"$. c #47C8C8C84646",
"%. c #5212C9494141",
"&. c #42D8DB8643AE",
"*. c #5191D7574545",
"=. c #4F8FCB8B52D3",
"-. c #40C1D4945010",
";. c #4B8BDC9C5515",
":. c #50F1D43354B5",
">. c #5505DA2A5626",
",. c #5353DA5A58F9",
"<. c #6161D9995DDE",
"1. c #3FC0E1204181",
"2. c #4202FEBE4585",
"3. c #4949FE7E4787",
"4. c #4DCEFF7F4F4F",
"5. c #4F0FFFBF52D2",
"6. c #5005FFF85281",
"7. c #5B1BFC3B5F1F",
"8. c #6727F6F65F1F",
"9. c #59DAC5856262",
"0. c #5F9FD9D965E6",
"q. c #6954DA6F6D2D",
"w. c #7EFFC84873B3",
"e. c #7474DC5C7656",
"r. c #7F3FD6D67EFF",
"t. c #7D3DDC1B7C92",
"y. c #61E2E0E062A2",
"u. c #64A4FDFD6626",
"i. c #6E2EFC3B6F2F",
"p. c #7171FA396DEE",
"a. c #7232F9F974F5",
"s. c #822CD8ED7E13",
"d. c #80C0E0607E7E",
"f. c #82C2EC6C7EFF",
"g. c #81E2F1117E3E",
"h. c #8808F4B47EBE",
"j. c #7EFFCECE8141",
"k. c #7EFFDB30818C",
"l. c #7EFFD7578ACA",
"z. c #7A3ADC1B8A0A",
"x. c #6BABDE9E9494",
"c. c #7EFFF4F487C7",
"v. c #7CFDFF7F8343",
"b. c #7474FFBF8A0A",
"n. c #7EFFFFBF9010",
"m. c #7232C0C0A9A9",
"M. c #649AD439A61B",
"N. c #698AD696A686",
"B. c #6CC2D8EEA5D0",
"V. c #6565D474A9A9",
"C. c #6909D5F6A969",
"Z. c #73E7DAADA632",
"A. c #7A5ADEFFA707",
"S. c #77B7DE9EA828",
"D. c #7ABBDFCAA9BF",
"F. c #6B6BD191B1F1",
"G. c #74F5D1D1BC7C",
"H. c #76B6E1E1A5E5",
"J. c #7D81E1F7ABDA",
"K. c #4EC3A406D560",
"L. c #4CCDA6A6D858",
"P. c #52DBA53DD634",
"I. c #57D8A6E6D757",
"U. c #5631A884D729",
"Y. c #5979A9C9D7F7",
"T. c #55A6A6E3D8D8",
"R. c #5926A70DD97F",
"E. c #56ECA8FED96E",
"W. c #5CD2AB48DA28",
"Q. c #6060B3F3C080",
"!. c #635CAEA3DC1B",
"~. c #6601B0B0DC49",
"^. c #6B60B344DE2B",
"/. c #71A4B620DF61",
"(. c #7407B703E0E7",
"). c #75ACB8EFE148",
"_. c #7ACCBBA6E2DE",
"`. c #8181D7168101",
"'. c #8141D8588101",
"]. c #87C7E06080C0",
"[. c #8E8EE6668D8D",
"{. c #8E0EEDAD8E4E",
"}. c #87C7F1308101",
"|. c #84B6FD9983E0",
" X c #8888F8788585",
".X c #8606F1B18E4E",
"XX c #8585FF3E8F4F",
"oX c #8AE0FE7D8B8B",
"OX c #9515F0F08707",
"+X c #9292F3888BCB",
"@X c #8CCCE8689353",
"#X c #8969F1F19333",
"$X c #9D9DF5759656",
"%X c #9C5CFC4B9565",
"&X c #9656F2319858",
"*X c #9EDEF8379999",
"=X c #9151FEBE9818",
"-X c #9C3CFE9E9CCC",
";X c #A565FEFE9656",
":X c #A9A9FEFE9717",
">X c #83C3D211B878",
",X c #816EE322AC8C",
"<X c #9AFBFD7DA2E3",
"1X c #9B9BFEFEB5F5",
"2X c #A423FEDEA464",
"3X c #A9EAFEEEA535",
"4X c #B3F3FEBEAFEF",
"5X c #A7E7EF6FB070",
"6X c #ABD2FD96B366",
"7X c #ABABFCFDB9BA",
"8X c #B4F4FE4DB474",
"9X c #B838F231B878",
"0X c #B373FD3DBA7A",
"qX c #B919FDDDBF1F",
"wX c #817BBF17E4AA",
"eX c #80C0C646D514",
"rX c #BE7EFDBDC1A1",
"tX c #8455C0C3E546",
"yX c #8B27C48DE68C",
"uX c #8E4ECBCBE726",
"iX c #8E43C6A6E943",
"pX c #9126C747E77C",
"aX c #90D0C848E7E7",
"sX c #9126C707E963",
"dX c #9350C8A0EA04",
"fX c #CE8EFC7CC646",
"gX c #CD2DFE88CBF6",
"hX c #D542FE99CB8B",
"jX c #D8AEFE53CACA",
"kX c #CD8DFEFED1F1",
"lX c #CE4EF5F5DA19",
"zX c #D413FDFDD353",
"xX c #DAAFFD11D429",
"cX c #D47EFEFEDB5A",
"vX c #DCACFD2DDD0C",
"bX c #E4A4FEFECB8B",
"nX c #E5A5F837D6D6",
"mX c #E5A5F979DE7E",
"MX c #DEFEFE1DE2E2",
"NX c #E53EFC89E50B",
"BX c #E5A5FD7DEF4F",
"VX c #EE83FEA9EE2D",
"CX c #FA39E4E4F6B6",
"ZX c #FEFEF5B5F7F7",
"AX c #F332FDB0F3A6",
"SX c #FAEAFDBDF5B5",
"DX c #FC9CF777FB3A",
"FX c #FDD2FD7AFC6E",
/* pixels */
"P.U.T.U.T.T.Y.T.T.T.T.T.R.Y.W.W.W.W.W.!.W.W.!.W.W.W.!.!.!.~.~.^.~.^.^.^./././._._.wXwXwXwXwXyXyXyXyXpXpXdXdXdXdXdXdXdXdXiXiXyXyXyXwXpXpXyXyXiXtXiXpXyXyXyXyXyXyXyXyXiXiXiXsXpXsXdXdX",
"T.T.Y.Y.R.T.T.T.T.T.P.P.T.Y.Y.W.!.W.W.W.W.!.W.!.!.!.!.!.!.~.^.^.^.^.^.^.^./._./._._._.wXwXtXtXtXyXyXiXpXdXdXdXdXdXdXdXdXiXiXyXyXyXyXyXwXyXpXiXiXyXyXyXtXyXyXyXyXyXyXyXdXiXiXiXdXiXdX",
"T.Y.Y.Y.Y.Q.G.F.M.M.M.M.V.V.V.M.M.M.M.M.V.M.M.C.M.C.C.N.N.Z.Z.Z.Z.B.B.Z.Z.Z.Z.S.Z.D.D.D.A.,XA.D.J.,XJ.J.,X,XJ.,X,X,X,X,X,XJ.D.,XA.,X,X,X,XJ.,XJ.,X,X,X,XD.,X,XD.A.D.H.x.>XiXiXdXdXdX",
"T.E.E.E.Y.z. Xu.6.5.3.5.5.6.6.6.6.6.6.6.6.6.6.6.6.6.6.6.5.5.5.4.5.5.6.6.6.6.6.6.6.5.6.6.6.6.6.6.4.6.6.4.6.6.6.5.6.6.6.6.5.5.5.5.5.6.6.6.4.6.6.6.6.6.4.4.6.6.6.5.6.6.3.P s m.pXsXdXiX",
"T.T.T.T.Y.2.^ L S S S A S A S S S S A S S S S S S S S S S S S S S A S S S S S S A A S S S S A A S S A S S S S S S S S S A S S S S S S A S S S S S S S S S S S S S S A v : O.aXaXiXiX",
"P.U.U.T.P.K F c e q 9 9 q q 9 q 9 q q 9 q 9 9 q 9 q q 9 q 9 q 9 q 9 q 9 0 9 9 q q 9 9 9 9 9 9 9 9 q q q 9 9 q 9 9 9 q q 9 9 q e q q 9 9 q 9 q 9 q 0 q 9 q 9 q 9 9 9 q 3 &  .yXiXiXaX",
"P.P.P.P.I.F D q 5 9 q 9 5 9 9 9 9 9 9 9 9 9 9 9 q 9 9 9 5 9 9 9 9 5 9 9 9 9 q 9 q 9 6 9 q 9 q 9 9 9 9 9 9 9 9 9 9 9 r 9 9 9 q 9 q 9 9 9 9 9 9 9 q 9 9 9 5 9 9 9 9 9 9 3 $  .iXiXiXtX",
"P.P.P.U.P.F D q 9 9 9 5 q 9 q 9 9 9 9 q 5 5 9 9 9 9 9 9 9 9 9 q 9 9 9 9 q 9 9 9 e t 9 q 5 q e q 9 r r q 9 9 9 9 9 9 9 9 9 e 9 r e e 9 9 5 9 9 9 9 9 9 9 q 9 9 9 9 q q 8 = } yXyXiXyX",
"U.P.P.P.U.F D c 9 6 q 5 9 9 9 0 r q 9 9 q q 9 q 9 9 9 9 q 9 q 9 9 q 9 9 9 0 9 0 q 9 9 9 9 e q 9 r t 6 6 9 9 9 9 9 9 9 q 9 9 9 9 9 9 9 q 9 9 9 q 9 9 9 9 9 9 9 q 9 9 9 3 $  .iXiXtXyX",
"P.P.U.P.U.F D c 9 q q &.r.k.t.q.q n r.&.9 9 9 9 9 9 q 9 9 9 9 q q r 9 r.k.k.s.'.`.e `.>.9 q 6 q q.q.a e 9 9 q 9 9 9 9 R s.s.Y 5 <.'.q.r 9 9 9 9 9 9 9 q 9 9 9 9 q 9 9 3 $ } tXtXtXtX",
"U.P.P.P.P.F D q q q 9  XFXFXFXFXOXV DX|.8 9 9 9 9 9 q 9 9 9 q 9 r e 9 FXFXFXFXFXFX5 FX3X8 5 9 e =XoX5 5 5 q q 9 q 9 9 >.FXDXt.q AXFXzX5 5 9 9 9 9 9 q 9 9 9 9 9 9 9 e 3 =  .wXyXtXtX",
"U.P.P.P.P.F D w 9 5 q |.FX=.N FXhXn FXh.: *.<X6X+XN / oXW 0  X7.9 9 e 9 3 FXFX& & > FX0X}.;X&.0 i.a.7 ;.*X3X@XB 9 9 q ,.FXvX3XT FXvXhX> z $X7X<X! q a.8.f.3X/ 9 9 9 9 5 $ } tXtXtXtX",
"I.P.P.K.P.F D q 9 9 q |.FX6X6XFX*X9 FXh.t mXgXs.DX%XM DX{.Q DXy.5 8 5 5 : FXFX@ $ & FXZXoXAXAX8 cXhXw FXrX:.a.E 5 9 9 ,.FXb.AXe.MX:XjX= 6XAXl.NXmXp hXDX[.vXVXq 5 5 9 3 $ | tXtXtXtX",
"P.P.P.P.P.F D q q 9 9 |.FXMXkX$Xl 9 FX+X- %..X4XFX-X: 3XnXe.FXd 3 3 9 5 3 FXFX@ + : FX6X@ -XDX* hXhX, 0XFXFX0Xx ; 5 9 :.FX~ FXNX#X;XjX+ k s.7XSXZX; bXvX; s.FXT : 5 q 3 $ | tXwXtXwX",
"K.K.P.P.P.F D q 9 9 9 |.FX] O O @ 0 FXh.+.FXn.W FX-X$ $.FXBX&X& & 3 9 9 9 FXFX$ * 3 FX1X+ %XFX$ kXjXu w.#.#.FX-X; 3 9 ,.FXI xXFX[ -XhX1 FXqXC lXFX= hXAXj 5XDXg ; 3 9 3 $ } wXtXwXtX",
"K.K.K.K.U.F D q 9 e q |.FXo.@ + & c FX.Xi NXDX8XxX4X@ , vXFX_ + & 3 9 9 9 ZXFX= & 3 SX<X$ ;XFX= kXgX: 8XDXCXNXE & 3 5 >.FXU +XFXy %XgX& qXFXzX9XFX< fXVXNXFX[.$ & 5 9 3 $ } wXwXtX_.",
"K.K.K.P.P.D A q 9 9 9 8 ; $ $ ; : 4 3 & & ; q $ @ + h 9.BXxX$ $ ; 5 9 9 e 3 * $ & 3 4 > $ - ; % = - $ & 5 q $ $ - 3 8 9 1 & $ = + O $ % > t & + + + gXkX$ 3 $ $ & 3 9 3 $ } tXwXwXwX",
"K.K.P.K.K.D D w 9 q 9 9 3 ; & 3 5 9 3 : > ; ; & - - f fXrX) + $ : 5 9 9 9 9 < ; : 5 8 < ; < : * ; > ; ; ; ; & & ; 3 5 9 3 : > > & ; > ; ; ; & - $ & XXv.+ $ $ ; : 8 9 3 $ } wXwX_._.",
"K.K.K.K.P.F D c 5 9 9 5 5 3 5 5 9 5 9 8 3 4 3 : : : 3 : < $ $ ; 3 q q 9 9 5 3 3 8 9 9 3 5 3 3 8 3 4 3 3 3 : : 3 3 5 9 5 5 4 3 3 3 3 4 3 5 3 3 : < 4 7 & $ & ; 3 5 9 q 3 - | wXwX_._.",
"K.K.K.K.P.J G w q 9 q 9 9 5 5 9 9 9 9 5 9 5 9 5 9 5 5 5 : > ; 3 8 9 9 9 9 9 5 9 5 9 9 9 5 q 5 9 9 5 9 9 9 5 5 5 9 9 9 9 9 9 9 5 5 9 5 9 9 5 5 5 9 5 5 : ; : 5 5 9 9 q 3 $ ..wXwX_._.",
"K.K.K.P.L.Z b e 5 5 5 5 5 5 5 5 5 5 5 5 5 5 5 5 5 5 5 5 3 : : 5 5 5 5 5 5 5 6 5 5 9 5 5 5 5 9 9 5 5 9 5 5 5 5 5 9 5 9 5 5 5 5 5 6 5 5 9 5 5 5 9 5 5 5 3 3 3 5 5 5 5 5 ; O ` _._._./.",
"K.K.P.K.K.2 ; $ $ $ $ $ $ $ $ @ $ $ $ $ $ + $ $ $ $ $ + $ @ $ + $ $ $ $ $ $ = - $ & & & & & $ & $ & $ * & & & & $ & $ $ $ - $ $ $ $ $ $ $ $ $ $ $ $ $ $ $ $ = $ $ = + X   X._._./.^.",
"K.K.K.K.K.' #   . . .   . .   . o o . . . . . . . . .   . . . . . . o o . X X O O + + + % + + + + $ + + + $ + + + + + O O O O O O O X X X X X X X X X X X X X X X X X . ( eX_.)./.^.",
"K.K.P.K.K.P.T.T.T.T.P.U.P.U.P.P.P.P.T.T.Y.Y.W.W.!.!.!.~.~.!.^.~.^.^.^.^././././././././.).)./._./._._._._._._._._._._._._._._._./._._._._._._._._._._.).).).).)./.)._._._._._.)./.^.",
"K.K.K.P.P.P.P.I.R.I.I.T.T.P.P.P.P.P.P.U.T.Y.!.W.!.!.!.~.!.!.!.~.~.~.^.^.^.^.(.^./././././././././._./._._._._./././.wX_._._._._._._._._._._._._._.).).(.(.(./././././._./._._./.(.^."
};
