/* XPM */
static char *rightdisabled_small[] = {
/* columns rows colors chars-per-pixel */
"25 25 46 1",
"  c #57578B0BADAD",
". c #59EA8C4CAD1D",
"X c #5A1A8E0EB191",
"o c #5D3D90B0B333",
"O c #5C9C95BABC4E",
"+ c #5E1E9838BFBF",
"@ c #63639191AFAF",
"# c #6711953FB4DF",
"$ c #62C299FABEFE",
"% c #68E99818B8B8",
"& c #5F9F9818C040",
"* c #63879C4CC35B",
"= c #6A909E43C398",
"- c #6DADA151C626",
"; c #6464A222CA4A",
": c #6C6CA3FDCA5D",
"> c #7121A212C6CE",
", c #72FEA5F7CA09",
"< c #743DA9A9CDF2",
"1 c #7A19AA8ACDAD",
"2 c #6AEAA8E9D070",
"3 c #76B7ADCED111",
"4 c #7E7EAE0ED111",
"5 c #6CDCB41BDE49",
"6 c #7C08B0CAD3BA",
"7 c #7144B626DF31",
"8 c #74F5B923DFF4",
"9 c #7949B9D9DF5F",
"0 c #6F6FB5B5E1E1",
"q c #7393B723E141",
"w c #755EB8C4E1B0",
"e c #7BB6BBD5E2D0",
"r c #8303B313D4F4",
"t c #89C9B777D757",
"y c #8808B838D918",
"u c #91B2BEFFDE7E",
"i c #8188BECDE3E5",
"p c #8563C15AE586",
"a c #8A7FC407E701",
"s c #8FCFC848E767",
"d c #8D86C5B2E8BD",
"f c #8E0EC8C8E8E8",
"g c #921DC5F0E5F0",
"h c #911BC71AE8DE",
"j c #94CAC9B5E9F5",
"k c #995CCBB3EBD3",
/* pixels */
"dhhhhhhjjhjjjjkkkkkkjhhhd",
"sdsdhhjkkjjjkkkkkkkkshdfd",
"ddddghkgkkkkkkkkkkkkhhdaa",
"addddjjuugjkkkkkkkkkjddaa",
"aaaaaddytrgkkkkkkkkkjdaap",
"aaaaadarr,<dkkkkkkkkjgaap",
"aapaaaa61,>1gjkjkkkkkjdap",
"paaaiap61,>,1ahsjjkkkhdpp",
"apapppa31>=,>,pddjjkkhfap",
"aappppp6,>=>>>:yagjjjjapp",
"ppappip6,===--::pafhjhdai",
"ippapee3,=$=$-==:ephjdapi",
"piippwe3:=+$$$=%#2eafaape",
"iiiiiew<:=$*$$##<ieaaapie",
"ee9ee9w<:=O+Oo@>pepadapee",
"eeee9ww2:+OO#.-eipaaappee",
"eeewww52=&&X =eippaaapeee",
"qq8w8w7:*&X *eeeeppaiieew",
"0777www:&X.*we9eepepiiiee",
"0705570;O *www9eeepeiieew",
"5575777;X*qqwwwweeeeeieee",
"5555577+*wwqwwweweiiieeee",
"55557572qqqqqqwweeeeeewee",
"55555777qqwqqwww8eeeeewww",
"55555555555qqqqqeewwwwwww"
};
