/* XPM */
static char *righthilite_small[] = {
/* columns rows colors chars-per-pixel */
"25 25 80 1",
"  c #06065C5C04C5",
". c #04445E9E0BCC",
"X c #016C630E09CA",
"o c #03597C670157",
"O c #010173330849",
"+ c #00C17EBF0A8B",
"@ c #016263E417D8",
"# c #04C58D0D0303",
"$ c #00818B8B0C8D",
"% c #02839A5A0141",
"& c #0074A46401C2",
"* c #0040AE6E0343",
"= c #0081B43C018A",
"- c #0012BB8D02DF",
"; c #1959A9A91EDF",
": c #1858A42426A7",
"> c #1C83BD232161",
", c #1FE0B9392525",
"< c #0212C59503A4",
"1 c #008ACB550321",
"2 c #02C3CB0A09CA",
"3 c #02C3D3B30384",
"4 c #0182E5A50606",
"5 c #0283E6A60F4F",
"6 c #00FBF95F059F",
"7 c #02C3F2720909",
"8 c #0949FEFE12D3",
"9 c #1B5BC0C020E1",
"0 c #1D9EDA192565",
"q c #2E6ED41331B2",
"w c #2464FF7F2C6C",
"e c #2C6CE8683636",
"r c #2F2FE8E83979",
"t c #32D9E97C3CFD",
"y c #326A965E40E9",
"u c #36369B9B4505",
"i c #44C5B0B05A5A",
"p c #48C9B2326EAE",
"a c #34B5E96940C1",
"s c #4343EAEA4888",
"d c #4101FD7D4484",
"f c #5696ECEC5959",
"g c #5A5AEE6E6161",
"h c #77F8EEEE8A8A",
"j c #7B3BE4649555",
"k c #6CD2B3FADE2B",
"l c #6FAFB838DDDD",
"z c #72B2B9F9D6D6",
"x c #711DB61DDEFC",
"c c #7535BA3ADEFE",
"v c #7383B6DAE0FA",
"b c #75C3B935E1C5",
"n c #7BACBBF3E2CA",
"m c #77B7C504C807",
"M c #7939C605C706",
"N c #754AC303CA4A",
"B c #7A7AC6BDCA2E",
"V c #7D7DC949CAF5",
"C c #8080D292ADED",
"Z c #84C4D656B19C",
"A c #86C7D858B232",
"S c #8974D8EEB474",
"D c #9151DA9AB8F8",
"F c #8177BEE4E3F6",
"G c #81D7CAB5CDE2",
"H c #8974CD8DCDA3",
"J c #8B4BCECED339",
"K c #9050CFCFD494",
"L c #9393CB8BDFDF",
"P c #9320D11DD3C6",
"I c #85F3C1D6E545",
"U c #8A8AC3F7E6BF",
"Y c #8E0EC8C8E6A6",
"T c #8DB7C5B6E8DE",
"R c #9171C6D6E7C7",
"E c #93F1CB05E536",
"W c #99A9CE9EE5E5",
"Q c #91BCC738E8F6",
"! c #94D4C9D2EA3C",
"~ c #994BCBD7EBB5",
/* pixels */
"TRRRQQTQ!Q!!!!~~~~~~!!QTT",
"TTTYRREPE!!!!!~~~~~!QTQUT",
"TUTTRRKjDW!~~~~~~~~~RTTUT",
"TTTTRRKhfSW~~~~~~~~~!TTUI",
"UUUUTTKgd0AW~~~~~~~~~QUII",
"UUUUUTPsw5>SW~~~~~~~!QUUI",
"IUUUIUJa841>AW~~~~~!!QUTI",
"UIIUITJt63129AW~~!~~~!QUI",
"TFFUIUHt61-11>AEE!~~!!UII",
"UUTUITJt61--<19ZE!E!~QUTI",
"FUIUIIHt61---<1>ALR!!QUIn",
"FFIIIIHt61===--=:CERQQUIF",
"FFUFIIGt61====&#OiYETTTFn",
"FFFFFFVt61===&$@uPRETTIFn",
"nnnnnnVr61**&o yJTTTTUInn",
"nnnnnnVt63=&o.yHIITTTFInn",
"bnbbnbVr6-&o@yGFFUUUUFFnn",
"vbvvbbNa7*+XyGFnFFUFFFFnn",
"vvvvvbVe3$.yBFcnFFFFFFnnb",
"kkvklvBq%XyMccnnnnFFnFFnn",
"kvkkllB>OymcbbbnnnnFnnnnn",
"kkkkkvN:yMvxvbbbnnnnFnnnn",
"kkkkkkNpzzvvvvbbnnnnnnnnn",
"kkkklvkzxvvvbbvbbnnnnnnvb",
"kkkkkkkkkkvvvvvbnnbvbbbvb"
};
